<?xml version="1.0" standalone="no"?>
<!DOCTYPE svg PUBLIC "-//W3C//DTD SVG 1.1//EN" "http://www.w3.org/Graphics/SVG/1.1/DTD/svg11.dtd" >
<svg xmlns="http://www.w3.org/2000/svg" xmlns:xlink="http://www.w3.org/1999/xlink" version="1.1">
<metadata>
Created by FontForge 20201107 at Fri Sep 10 12:33:53 2010
 By Unknown
Typeface (c) (your company). 2010. All Rights Reserved
</metadata>
<defs>
<font id="apex-a.pura-006" horiz-adv-x="1014" >
  <font-face 
    font-family="apex-a.pura-006"
    font-weight="400"
    font-stretch="normal"
    units-per-em="2048"
    panose-1="2 0 5 0 0 0 0 0 0 0"
    ascent="1638"
    descent="-410"
    x-height="488"
    cap-height="675"
    bbox="-1500 -1305 2900 2172"
    underline-thickness="150"
    underline-position="-292"
    unicode-range="U+0020-F002"
  />
<missing-glyph horiz-adv-x="1024" 
d="M100 0v1434h824v-1434h-824zM150 50h724v1334h-724v-1334zM325 1148q31 28 58 43q53 30 112 30q92 0 148 -47.5t56 -127.5q0 -49 -23 -98.5t-87 -129.5q-63 -80 -99 -132t-36 -99q0 -38 24 -133h-32q-35 97 -35 148q0 76 81.5 218t81.5 217q0 57 -33 90t-91 33
q-38 0 -69 -17q-26 -15 -56 -40v45zM389 334l57 58q11 10 20 10q10 0 22 -11l56 -60q9 -11 9 -20q0 -11 -10 -22l-56 -62q-14 -14 -21 -14q-11 0 -20 10l-61 71q-7 9 -7 18q0 10 11 22z" />
    <glyph glyph-name=".notdef" horiz-adv-x="1024" 
d="M100 0v1434h824v-1434h-824zM150 50h724v1334h-724v-1334zM325 1148q31 28 58 43q53 30 112 30q92 0 148 -47.5t56 -127.5q0 -49 -23 -98.5t-87 -129.5q-63 -80 -99 -132t-36 -99q0 -38 24 -133h-32q-35 97 -35 148q0 76 81.5 218t81.5 217q0 57 -33 90t-91 33
q-38 0 -69 -17q-26 -15 -56 -40v45zM389 334l57 58q11 10 20 10q10 0 22 -11l56 -60q9 -11 9 -20q0 -11 -10 -22l-56 -62q-14 -14 -21 -14q-11 0 -20 10l-61 71q-7 9 -7 18q0 10 11 22z" />
    <glyph glyph-name=".null" horiz-adv-x="0" 
 />
    <glyph glyph-name="nonmarkingreturn" horiz-adv-x="508" 
 />
    <glyph glyph-name="space" unicode=" " horiz-adv-x="508" 
 />
    <glyph glyph-name="space" unicode="&#xa0;" horiz-adv-x="508" 
 />
    <glyph glyph-name="exclam" unicode="!" horiz-adv-x="500" 
d="M234 604h64q124 -23 124 -148v-4q0 -153 -156 -356l-12 -28l24 -4q34 0 288 64l4 -4v-8q-20 -19 -300 -108q-26 -12 -48 -12q-40 9 -40 40v12q96 283 96 360v32q-17 104 -56 104q-94 -283 -136 -356l-12 -8h-8q-16 0 -20 64l8 232h-4q-105 -64 -116 -64h-16l-12 12v8
q95 111 148 124h4q36 0 36 -60l-4 -32q4 -104 16 -104h4q26 69 60 204q29 40 64 40z" />
    <glyph glyph-name="quotedbl" unicode="&#x22;" horiz-adv-x="155" 
d="M72 384h12q76 -75 76 -136v-76q0 -74 -72 -168l-16 -4l-12 12v32q0 102 -60 232q12 47 72 108z" />
    <glyph glyph-name="numbersign" unicode="#" horiz-adv-x="400" 
d="M280 680h60q88 -20 88 -68v-40q0 -63 -120 -152q-75 -36 -148 -36q-95 0 -116 80q0 96 148 192q53 24 88 24zM124 488q0 -35 52 -40q89 0 160 108l8 32v4q0 35 -52 40q-51 -19 -144 -76q-24 -7 -24 -68zM268 300q120 -16 120 -92q0 -85 -136 -180q-71 -28 -144 -28
q-93 0 -108 80v4q0 99 156 192q62 24 112 24zM76 112q7 -48 44 -48h8q102 0 168 120l4 24q0 31 -48 36h-4q-27 0 -156 -80z" />
    <glyph glyph-name="dollar" unicode="$" 
d="M992 1740h40q18 0 36 -68v-52q0 -66 -184 -172q-347 -583 -812 -1432l-20 -16h-4q-38 0 -48 68v12q271 655 720 1312q228 316 256 340z" />
    <glyph glyph-name="percent" unicode="%" horiz-adv-x="0" 
d="M-112 300h48l8 -8v-12q0 -425 -392 -880q-299 -308 -672 -308q-266 0 -356 192q-24 51 -24 100v8q0 156 128 244h8l4 -12q-44 -79 -44 -160v-24q0 -111 108 -196q91 -52 216 -52h8q617 0 880 908l28 192q18 8 52 8z" />
    <glyph glyph-name="ampersand" unicode="&#x26;" horiz-adv-x="937" 
d="M-164 1300h120q242 0 584 -168q256 -147 368 -460q20 -87 20 -128v-108q0 -208 -220 -444q-185 -156 -272 -156q-108 -36 -272 -36h-4q-340 0 -660 176v4l8 8q321 -72 536 -72q509 0 692 416q32 102 32 180q0 181 -112 380q-304 364 -768 364q-47 0 -276 -32h-4l-8 8
q107 68 236 68z" />
    <glyph glyph-name="quotesingle" unicode="'" horiz-adv-x="198" 
d="M12 204h56q104 -13 104 -44l8 -76v-64q-10 -20 -32 -20q-89 0 -148 188q6 16 12 16z" />
    <glyph glyph-name="parenleft" unicode="(" horiz-adv-x="292" 
d="M128 604h28q104 -118 104 -196v-16l-16 -16q-52 0 -244 160v12q53 56 128 56zM156 232q104 -126 104 -184v-36l-12 -12h-4q-47 0 -240 156v8q0 47 152 68z" />
    <glyph glyph-name="parenright" unicode=")" horiz-adv-x="480" 
d="M188 1820h28q88 -21 88 -56l-4 -24v-28h4q0 11 64 68h12q29 -15 32 -108v-8q-38 -32 -52 -32v-8h84q24 -2 24 -12v-16q-22 -62 -68 -88l-40 12q60 -58 60 -76q-34 -32 -112 -32q-7 0 -28 28v-4l4 -64q-6 -16 -12 -16h-12q-96 36 -96 68l16 68q-68 -92 -76 -92h-8
q-44 53 -44 112q41 45 64 52v4h-4l-100 -12l-12 16v4q32 100 56 100h16l28 -4l-56 48v12q44 44 112 44l32 -32v8l-12 60zM224 1608l-8 -12l4 -24h4l24 20q-4 16 -24 16z" />
    <glyph glyph-name="asterisk" unicode="*" horiz-adv-x="923" 
d="M188 516q44 0 284 -80h4q112 76 212 76q228 -32 228 -104v-32q0 -19 -68 -164l-8 -44l20 -120q-27 -48 -96 -48q-32 19 -32 88v4q0 60 112 232l12 40q0 81 -136 96q-69 0 -96 -76q-20 -148 -36 -148q-91 0 -136 96q-86 116 -204 116q-120 0 -120 -60v-16q0 -93 280 -276
l16 -20v-4q-10 -20 -32 -20h-4q-153 42 -304 172q-84 85 -84 172q0 103 96 120h92z" />
    <glyph glyph-name="plus" unicode="+" horiz-adv-x="700" 
d="M-196 200h20q38 -51 72 -56l84 32h16q44 -13 44 -176q0 -144 84 -280q116 -148 328 -148q189 0 244 116q68 116 68 164v60q0 135 -92 168q-12 26 -12 64q6 40 36 40h4q51 0 132 -176l12 -68v-104q0 -206 -244 -320q-80 -28 -168 -28h-8q-328 0 -456 268q-56 83 -84 272
l-48 -4q-88 0 -136 144v4q0 18 104 28z" />
    <glyph glyph-name="comma" unicode="," horiz-adv-x="1500" 
d="M976 1016h124q153 0 252 -104q36 -61 36 -108q0 -152 -256 -272l-252 -64q-49 0 -60 68q0 131 220 308l28 4h8q36 0 36 -32v-4q0 -20 -64 -76q-104 -109 -104 -140q6 -20 28 -20h56q198 0 268 196q8 14 12 56q0 111 -264 128q-485 0 -784 -388q-96 -198 -96 -352
q0 -345 376 -536q153 -64 352 -64q424 27 808 384q-245 -427 -928 -500h-4q-368 0 -540 196q-78 69 -116 132q-112 170 -112 360v4q0 365 372 628q152 93 428 172q130 24 176 24z" />
    <glyph glyph-name="hyphen" unicode="-" horiz-adv-x="670" 
d="M156 409q-40 0 -40 28v83q0 29 41 29h356q41 0 41 -29v-83q0 -28 -40 -28h-358z" />
    <glyph glyph-name="hyphen" unicode="&#xad;" horiz-adv-x="670" 
d="M156 409q-40 0 -40 28v83q0 29 41 29h356q41 0 41 -29v-83q0 -28 -40 -28h-358z" />
    <glyph glyph-name="period" unicode="." horiz-adv-x="956" 
d="M240 656h4q32 0 40 -48q0 -30 -124 -348l-20 -108q0 -56 44 -56h4q154 0 348 408q43 68 88 68h8q31 0 60 -60v-4l-8 -88q0 -170 104 -280l24 -4h36q64 0 188 72h4q18 -8 20 -16v-28q-154 -148 -324 -148q-96 26 -136 92q-32 57 -32 256q-215 -364 -420 -364h-12
q-91 0 -128 96l-8 60v20q0 160 240 480z" />
    <glyph glyph-name="slash" unicode="/" horiz-adv-x="1634" 
d="M1801 1680h48l24 -24v-68q0 -87 -196 -112h-44l-64 -32q16 -24 16 -44v-8q0 -126 -240 -284q-372 -357 -372 -588q0 -233 252 -364q67 -20 116 -20q176 0 332 112l24 8h12l12 -12v-16q-209 -168 -420 -168q-274 0 -384 280q-28 85 -28 164q0 383 496 772q36 41 36 64v12
q-438 -243 -864 -568q-204 -174 -308 -312l-20 -32v-4h4q119 60 216 60q156 0 200 -120l4 -32q0 -130 -192 -276q-122 -68 -260 -68q-141 0 -184 104l-8 60v16l-104 -80l-4 4v8q128 127 128 168q75 250 364 468q471 393 808 604q562 328 600 328zM129 180q0 -84 96 -84
q131 0 264 160q24 44 24 80v24q-13 56 -52 56h-12q-99 0 -296 -140q-17 -35 -24 -96z" />
    <glyph glyph-name="zero" unicode="0" horiz-adv-x="1200" 
d="M900 1432h100q120 0 208 -132q32 -74 32 -116v-112q0 -151 -152 -468q-70 -114 -268 -312q-323 -292 -528 -292h-4q-143 0 -224 92q-64 102 -64 240v12q0 380 284 728q231 232 340 268q132 79 276 92zM168 420v-32q0 -178 112 -212l32 -4h12q202 0 544 392
q252 345 252 552q0 111 -204 144l-76 8q-261 0 -368 -168q-133 -159 -216 -336q-88 -149 -88 -344z" />
    <glyph glyph-name="one" unicode="1" 
d="M868 2172h16q68 -49 68 -124v-92q0 -182 -280 -732q-560 -872 -560 -1124v-24q0 -24 16 -72v-4h-20l-88 28q-20 0 -20 8v20q0 233 292 756q117 255 492 876q44 75 44 124v40q0 72 -84 164l-4 20v12q3 41 128 124z" />
    <glyph glyph-name="two" unicode="2" horiz-adv-x="1300" 
d="M676 1504h88q152 0 284 -128q52 -71 52 -156v-20q0 -191 -220 -520q-112 -148 -272 -332q532 180 688 180h68q53 0 84 -140v-4q0 -10 -228 -60q-111 -23 -328 -36q-152 -34 -340 -120q-331 -168 -548 -168l-4 4q10 94 304 280q252 222 392 396q268 337 268 524t-256 228
q-158 -42 -380 -268q-65 -70 -128 -188l-4 -4h-20q-6 1 -44 84l-8 8q79 233 324 372q132 68 228 68z" />
    <glyph glyph-name="three" unicode="3" horiz-adv-x="848" 
d="M384 1396h108q232 -32 232 -140v-28q0 -72 -120 -388q141 -103 208 -356l8 -68v-92q0 -127 -152 -260q-86 -64 -192 -64h-8q-172 0 -376 152q-48 53 -48 112q0 53 28 100q216 -264 376 -264h28q104 0 196 128q40 73 40 188q0 199 -180 304l-28 4q-85 0 -232 -172h-12
q-12 4 -12 24v20q0 133 176 288q163 182 180 276v28q0 82 -96 116q-57 16 -100 16q-187 0 -376 -160h-8q-24 8 -24 32q0 61 72 92q165 112 312 112z" />
    <glyph glyph-name="four" unicode="4" horiz-adv-x="1200" 
d="M1048 1848h40q64 0 84 -168v-8q0 -194 -188 -648q-7 0 -152 -308q344 -36 344 -56l8 -56v-36q0 -7 -20 -12l-380 48q-17 0 -100 -220q-64 -144 -64 -248v-12q0 -43 24 -76l-64 -28q0 -12 -52 -20l-8 12v48q0 194 164 564h-4q-438 33 -608 60q-72 14 -72 28v4
q0 160 516 728q345 346 468 384q44 20 64 20zM132 796q0 -28 140 -28l448 -52q82 213 312 692q56 109 56 196q0 72 -44 72h-8q-195 -31 -792 -740q-112 -98 -112 -140z" />
    <glyph glyph-name="five" unicode="5" horiz-adv-x="1200" 
d="M1424 1672q12 -20 12 -40v-44q0 -49 -376 -60q-280 8 -364 24l-4 -4v-12q0 -156 -200 -508l-72 -152q352 156 524 156q112 0 112 -72v-20q0 -132 -468 -612q-358 -328 -516 -328h-8q-58 0 -64 144q0 185 84 288l20 8q24 -5 24 -20q-64 -149 -64 -240q0 -72 40 -72
q139 0 772 664q88 76 88 144q-10 56 -92 56q-100 0 -324 -104q-114 -39 -236 -156q-53 -76 -100 -76q-32 13 -32 36q388 620 420 792q12 27 12 68v32l-12 48q0 16 696 44z" />
    <glyph glyph-name="six" unicode="6" horiz-adv-x="1200" 
d="M816 1648h76q127 0 264 -176q72 -111 72 -176v-12q0 -40 -104 -112h-4l-4 12l4 36q0 216 -204 300l-60 8q-124 0 -268 -180q-264 -303 -380 -680l-24 -88q325 214 408 220q184 64 336 64q144 0 208 -68q24 -32 24 -72q0 -126 -248 -364q-440 -360 -748 -360q-75 0 -96 32
q-68 78 -68 220v4q0 403 404 1060q174 251 300 300q70 32 112 32zM120 248v-40q0 -78 68 -108l52 -8q196 0 604 320q196 177 196 264v12q-18 100 -140 100h-24q-172 0 -480 -172q-103 -63 -244 -204q-32 -101 -32 -164z" />
    <glyph glyph-name="seven" unicode="7" horiz-adv-x="1100" 
d="M944 1835h96q76 -50 76 -118v-71q0 -158 -284 -621q-559 -731 -560 -947q4 -38 20 -75l-4 -3h-16l-84 24q-24 0 -24 6v27q0 178 272 597q155 272 484 729q104 144 104 263q0 115 -120 115q-204 0 -608 -270q-192 -146 -200 -223q-18 -20 -40 -20q-41 0 -56 51v3
q0 129 460 378q328 155 484 155z" />
    <glyph glyph-name="eight" unicode="8" 
d="M924 1704h72q69 0 96 -188v-112q0 -120 -100 -340l-40 -44v-4q37 0 88 -88q24 -67 24 -140q0 -436 -472 -656q-257 -132 -436 -132q-156 0 -156 120v12q0 188 296 528l32 36q-54 -12 -116 -12q-107 0 -144 76l-8 48q0 195 292 532q284 288 480 344q49 20 92 20zM160 888
v-4q0 -48 80 -52h16q206 0 580 236q140 104 140 160q24 103 24 188v16q0 164 -108 164q-158 0 -476 -320q-256 -283 -256 -388zM100 208v-4q0 -56 76 -56h28q123 0 376 120q179 86 320 228q40 114 40 252q0 164 -116 164q-126 -83 -288 -152q-248 -217 -300 -312
q-136 -157 -136 -240z" />
    <glyph glyph-name="nine" unicode="9" horiz-adv-x="1100" 
d="M948 1809h96q32 0 72 -60q16 -34 16 -58v-70q0 -165 -292 -631q-548 -716 -548 -930v-17q0 -31 20 -61l-4 -3h-8q-24 0 -96 24q-24 0 -24 6q0 218 288 645q119 219 428 645v3h-4q-216 -74 -340 -124q-247 -71 -380 -71q-172 0 -172 88v6q0 134 320 360q404 248 628 248z
M120 1270v-7q15 -60 108 -60l24 -3q139 0 400 107q309 108 360 201q20 63 28 138q0 114 -124 114q-198 -6 -576 -252q-220 -154 -220 -238z" />
    <glyph glyph-name="colon" unicode=":" horiz-adv-x="1046" 
d="M384 1280q156 0 272 -348q40 -127 40 -244q229 -184 412 -380v-20q0 -8 -12 -8q-102 33 -404 260h-4q-114 -540 -428 -540h-12q-139 0 -228 92q-20 39 -20 84q0 192 160 328q50 32 96 32h16q64 -2 64 -44q-25 -72 -44 -72q-124 0 -180 -196v-28q83 -72 176 -72h28
q164 0 232 264q20 71 20 148v48q-275 154 -388 400q-20 55 -20 108q0 130 164 188h60zM276 1084q0 -100 256 -288v4q-67 269 -168 336q-74 0 -88 -52z" />
    <glyph glyph-name="semicolon" unicode=";" horiz-adv-x="951" 
d="M392 684h72q80 0 140 -116v-4q127 40 188 40h20q126 0 148 -100v-24l-44 -256l-4 -44v-36l28 -4h12l84 12l4 -4v-8q-72 -64 -168 -64q-92 12 -92 84v36q0 47 68 220v24q0 67 -92 84q-88 -12 -132 -28l4 -4v-44q0 -203 -228 -396q-90 -52 -156 -52h-8q-137 0 -160 128
l-4 32v4l12 64q-84 23 -84 156v8q0 189 252 272q87 20 140 20zM96 400q21 -72 68 -72q64 71 316 184q-52 88 -112 88h-24q-136 0 -232 -120q-16 -37 -16 -80zM176 168v-8q15 -72 108 -72q115 0 200 172q24 73 24 128l-8 64q-94 0 -232 -136q-92 -103 -92 -148z" />
    <glyph glyph-name="semicolon" unicode="&#x37e;" horiz-adv-x="951" 
d="M392 684h72q80 0 140 -116v-4q127 40 188 40h20q126 0 148 -100v-24l-44 -256l-4 -44v-36l28 -4h12l84 12l4 -4v-8q-72 -64 -168 -64q-92 12 -92 84v36q0 47 68 220v24q0 67 -92 84q-88 -12 -132 -28l4 -4v-44q0 -203 -228 -396q-90 -52 -156 -52h-8q-137 0 -160 128
l-4 32v4l12 64q-84 23 -84 156v8q0 189 252 272q87 20 140 20zM96 400q21 -72 68 -72q64 71 316 184q-52 88 -112 88h-24q-136 0 -232 -120q-16 -37 -16 -80zM176 168v-8q15 -72 108 -72q115 0 200 172q24 73 24 128l-8 64q-94 0 -232 -136q-92 -103 -92 -148z" />
    <glyph glyph-name="less" unicode="&#x3c;" horiz-adv-x="1646" 
d="M940 1300q89 0 104 -108q-18 -195 -260 -508q-78 -89 -288 -300v-4q13 -84 72 -84q80 0 248 168l24 8h4l12 -12v-4q-42 -116 -204 -192q-59 -20 -96 -20h-20q-63 0 -120 56q-256 -253 -256 -384q0 -120 284 -176q141 -40 324 -40q286 0 664 100q127 54 340 204h8v-12
q-46 -121 -292 -260q-398 -140 -784 -140h-16q-286 0 -520 72q-168 82 -168 212v8q0 112 112 268q82 91 264 268v12q0 192 -204 324q-16 17 -16 32v12q32 49 296 132l-4 40v16q0 138 408 312h84zM580 1068l52 -200v-8q0 -24 -28 -24q-75 24 -124 24q-151 0 -172 -104
q0 -37 52 -48q112 -84 112 -184l4 -4v-4q224 211 312 340q128 178 128 268q0 71 -44 92q-93 -32 -292 -148z" />
    <glyph glyph-name="equal" unicode="=" horiz-adv-x="0" 
d="M-4 200v-4l-12 -112q0 -254 244 -460q100 -64 180 -64q320 42 320 256q0 107 -120 348v12l12 8h8q140 -136 140 -320v-100q0 -170 -200 -284q-63 -24 -120 -24h-8q-232 0 -468 296q-122 153 -164 380l-8 64l4 4h192z" />
    <glyph glyph-name="greater" unicode="&#x3e;" horiz-adv-x="1470" 
d="M1340 578h36q77 0 112 -140v-96q-16 -128 -36 -128l-8 8v40q0 107 -36 180h-12l-4 -28v-16q0 -61 32 -228v-24q-18 -140 -136 -140l-32 -4q-217 22 -236 76l-4 28v20l8 96q0 30 -36 32q-34 -2 -48 -16l12 -68v-20q0 -114 -308 -204l-68 -4h-12q-86 0 -156 48
q-213 -154 -284 -160q-152 23 -152 136q0 140 204 328q70 56 136 56q85 -61 152 -180l16 -16q216 195 216 216l4 24v4q0 22 -20 28q-72 -25 -72 -100q0 -47 -48 -80q-9 -20 -40 -44q-20 8 -24 112q0 168 256 208q79 0 88 -92q0 -124 -292 -352q7 -18 88 -28q170 0 240 104
l4 24l-32 104v4q0 48 124 64l64 4h12q58 0 68 -52l4 -16l-20 -112v-16q0 -47 96 -72q112 28 112 100l8 56q-3 82 -60 208q21 128 84 128zM92 2q17 -64 92 -64q84 35 164 104q-100 153 -108 156l-4 4h-4q-62 0 -140 -176v-24z" />
    <glyph glyph-name="question" unicode="?" horiz-adv-x="1663" 
d="M1787 1670h48l24 -24v-68q0 -87 -196 -112h-44q-20 0 -60 -36q64 -27 64 -80q0 -63 -116 -148q0 -18 72 -92q0 -73 -208 -96q-187 -55 -308 -228q-104 -151 -104 -276q0 -233 252 -364q67 -20 116 -20q176 0 332 112l24 8h12l12 -12v-16q-208 -168 -420 -168
q-288 0 -396 312l-16 124q0 383 512 616q41 22 44 32q-3 13 -108 60l-4 4v8q0 37 76 44q88 36 88 76l-20 44q-69 -30 -444 -260q-288 -176 -576 -424q-182 -175 -228 -256v-4h4q119 60 216 60q156 0 200 -120l4 -32v-4q0 -119 -180 -264q-124 -76 -272 -76q-141 0 -180 100
q-12 32 -12 60v20l-104 -80l-4 4v8q128 127 128 168q75 250 364 468q471 393 808 604q562 328 600 328zM115 170q0 -84 96 -84q131 0 264 160q24 44 24 80v24q-13 56 -52 56h-12q-99 0 -296 -140q-17 -35 -24 -96z" />
    <glyph glyph-name="at" unicode="@" horiz-adv-x="1112" 
d="M612 1696h152q231 0 328 -160q28 -54 28 -104v-80q0 -192 -360 -424q-224 -166 -248 -296q-24 -79 -24 -240q-15 -40 -52 -40h-4l-16 12v36l-32 236q0 85 72 144l356 328q158 171 168 276l4 12q0 85 -80 160q-75 52 -200 52q-195 0 -480 -120q-112 -96 -112 -228
q0 -120 152 -228q60 -12 60 -48q0 -25 -36 -28q-119 0 -236 124q-52 78 -52 180q0 338 536 432zM480 232q108 -129 108 -208q0 -16 -16 -24h-4q-52 0 -244 160v12q60 60 156 60z" />
    <glyph glyph-name="A" unicode="A" horiz-adv-x="0" 
d="M132 2000h40q24 0 52 -220q76 -425 132 -496q97 -177 308 -260q52 -9 52 -16l-12 -12h-64q-229 0 -416 396q-36 73 -76 212h-4q0 -72 -116 -464q-12 -47 -12 -108v-44q0 -84 32 -156l28 4l8 -12q0 -116 -68 -116h-8q-75 0 -88 132q-12 46 -20 160q172 660 172 900v20
l-4 44z" />
    <glyph glyph-name="B" unicode="B" horiz-adv-x="659" 
d="M1782 1661h48l24 -24v-68q0 -87 -196 -112h-44q-10 0 -300 -176q-358 -202 -736 -484q-243 -197 -364 -368l-4 -4v-8h4q119 60 216 60q156 0 200 -120l4 -32v-4q0 -119 -180 -264q-124 -76 -272 -76q-141 0 -180 100q-12 32 -12 60v20l-104 -80l-4 4v8q128 127 128 168
q75 250 364 468q471 393 808 604q562 328 600 328zM1002 1641h28q76 0 108 -64l4 -28q0 -91 -148 -184q-85 -24 -124 -24q-106 0 -120 84q0 86 136 184q68 32 116 32zM830 1449q0 -39 52 -44q90 0 164 112l8 32q0 35 -52 40h-4q-21 0 -156 -84q-12 -26 -12 -56zM1502 1169
h20q116 -15 116 -92q0 -80 -128 -172q-71 -36 -148 -36q-103 0 -116 84q0 99 160 196q59 20 96 20zM1326 989v-16q0 -35 52 -40q95 0 168 120v36q-17 28 -52 28q-18 0 -156 -84zM110 161q0 -84 96 -84q131 0 264 160q24 44 24 80v24q-13 56 -52 56h-12q-99 0 -296 -140
q-17 -35 -24 -96z" />
    <glyph glyph-name="C" unicode="C" horiz-adv-x="848" 
d="M228 636q111 0 220 -116h4q197 104 336 104q86 0 164 -100v-28q0 -24 -104 -64q-77 116 -128 116q-47 0 -172 -108l-20 -4v-4q45 -80 236 -140q120 -43 120 -92v-8q0 -54 -100 -120q-54 -16 -84 -16h-36q-91 0 -252 68q-53 -11 -208 -108l-56 -16h-36q-76 0 -76 96v8
q19 120 260 316l28 20q-50 100 -112 100q-108 -15 -108 -96q0 -47 44 -152l-4 -4h-12q-93 0 -132 168v24q0 105 140 156h88zM168 144v-16h8q56 0 164 116l48 12h20q57 0 144 -76q79 -44 124 -44q60 0 60 44v4q0 17 -128 40q-149 50 -208 156q0 20 -8 20q-174 -124 -224 -256
z" />
    <glyph glyph-name="D" unicode="D" horiz-adv-x="457" 
d="M112 517l63 -8q159 -17 246 -289q49 -102 92 -107v-4q-46 -107 -112 -100q-40 13 -85 70q-17 2 -124 -67l-33 -4l-27 3q-64 7 -55 87q12 105 113 217q39 24 40 35q-25 76 -83 82q-78 -10 -83 -55l-2 -16q-4 -35 19 -119l-4 -3l-12 1q-77 9 -88 151l2 20q6 52 83 95
q29 13 50 11zM281 304q-87 -57 -96 -142l-3 -24q-2 -21 13 -29q14 5 72 72l41 8l53 -35z" />
    <glyph glyph-name="E" unicode="E" horiz-adv-x="971" 
d="M-76 500h40q63 0 92 -172v-4h16l92 20h12q28 -28 28 -72l-48 -196l-4 -68q0 -218 180 -424q118 -104 256 -104q188 0 316 148q84 143 84 276l-8 124q8 25 20 28h12q24 -12 24 -112v-120q0 -193 -168 -360q-113 -80 -240 -80h-12q-276 0 -448 288q-80 153 -80 488v60l-8 8
q-31 -13 -96 -68h-16q-20 12 -20 28q16 61 16 92v28q0 56 -52 56h-4q-37 0 -96 -44h-12v12l32 112q75 56 92 56z" />
    <glyph glyph-name="F" unicode="F" horiz-adv-x="721" 
d="M392 684h76q70 0 136 -108q0 -12 12 -12q135 60 216 60q107 0 160 -124v-20q-29 -44 -92 -44h-8q-78 88 -136 88q-128 -16 -128 -36l4 -36q0 -178 -188 -364q-105 -88 -200 -88h-8q-137 0 -160 128l-4 32v4l12 64q-84 23 -84 156v8q0 189 252 272q87 20 140 20zM96 408
q15 -80 68 -80q74 75 316 184q-50 88 -112 88h-24q-133 0 -228 -116q-20 -36 -20 -76zM176 168q0 -64 84 -76l28 -4q101 0 188 152q32 70 32 148q0 64 -16 64q-87 -15 -188 -100q-128 -130 -128 -184z" />
    <glyph glyph-name="G" unicode="G" horiz-adv-x="1000" 
d="M292 1076h68q208 0 368 -192q108 -142 108 -368v-8q144 -78 288 -204v-20l-16 -12q-50 0 -288 88q-5 0 -40 -116q-108 -228 -164 -228q-55 -16 -100 -16q-101 0 -176 100q-114 -52 -176 -52h-36q-128 0 -128 92v8q0 56 72 296q100 -8 100 -24q-48 -138 -48 -192
q6 -52 44 -52q60 14 216 76l32 4h28q14 0 28 -108q20 -36 44 -36h24q138 0 172 220l8 88l-348 284q-200 179 -200 276v4q0 69 120 92zM296 948q36 -76 288 -272l140 -108q0 103 -120 256q-148 132 -292 132h-8z" />
    <glyph glyph-name="H" unicode="H" horiz-adv-x="800" 
d="M923 795l4 -4v-24q0 -9 -164 -52q-212 -64 -212 -120v-12q0 -24 116 -276v-4q0 -200 -156 -200l-184 8h-4q-151 0 -256 -120h-12q-47 0 -56 24v20q0 20 124 156q228 254 228 280l4 16q-9 56 -48 56q-76 0 -276 -268q-88 5 -88 16q145 189 268 300q87 56 144 56h8
q36 0 80 -40h4v16q0 115 176 140zM199 151h4q79 52 136 52h12l76 -20q112 44 112 140q0 37 -68 176l-4 16q-7 -2 -32 -68q-61 -100 -236 -296z" />
    <glyph glyph-name="I" unicode="I" horiz-adv-x="800" 
d="M552 675h64q144 -35 144 -112v-24q0 -44 -100 -180q-12 -17 -12 -32q0 -43 100 -112l120 -108v-8l-8 -8h-4l-180 120h-4v-12q0 -126 -128 -168q-130 -36 -228 -36h-8q-149 0 -184 104l-4 24q169 275 180 312v8q-4 12 -24 12h-8q-42 0 -268 -96h-20q-21 0 -28 16v8
q0 33 100 84q92 52 92 88l4 36q15 12 36 12h4q27 0 56 -48q-8 -20 -40 -56v-4q104 32 124 32q63 0 72 -64v-8q-13 -41 -152 -292q40 -84 144 -84q80 0 156 44q20 27 20 60l-12 72h-4q-95 -108 -152 -108q-60 0 -60 108q20 128 84 128q21 0 96 -40v4q-64 160 -64 252
q32 76 96 76zM560 567v-4q0 -53 52 -144q40 30 40 92v24q0 48 -60 56h-8q-24 0 -24 -24zM396 235l12 -4q31 9 88 76v4l-60 16q-40 0 -40 -92z" />
    <glyph glyph-name="J" unicode="J" horiz-adv-x="626" 
d="M364 696h72q102 0 144 -180l4 -68h4q47 12 100 12q103 0 200 -132v-20q0 -43 -112 -68q-63 120 -128 120h-36q-69 0 -176 -268q-52 -92 -116 -92h-4q-113 0 -160 172v8l16 16q24 0 104 -24q83 29 148 168q16 57 16 100q-22 124 -80 124l-40 8q-158 0 -264 -328l-20 -24
h-16q-14 0 -20 44v24q0 186 192 336q103 72 172 72z" />
    <glyph glyph-name="K" unicode="K" horiz-adv-x="1382" 
d="M1652 1532h12q32 0 32 -32v-40q-24 -104 -104 -104q-244 -191 -344 -364q-216 -295 -216 -344q-16 -66 -16 -116q0 -164 88 -164h4q19 0 204 80l48 8h16q52 0 52 -84v-4q0 -73 -104 -124l-8 -20l4 -100l-36 -32q0 -24 80 -36q69 8 128 28l4 -4v-4q0 -14 -128 -64
q-43 -12 -72 -12h-8q-67 0 -76 84q0 52 36 100q18 148 60 148v4h-4q-69 -32 -188 -32h-12q-90 0 -128 76h-8q0 -84 -108 -224q-124 -120 -220 -120h-4q-142 0 -296 224l-56 16q-38 0 -64 -72q-92 -140 -128 -140h-32q-60 15 -60 60v12q0 48 96 120q167 140 236 140l32 -8
q11 0 204 188q0 22 -36 84v4q44 108 56 108q12 -7 64 -112h8q500 468 748 680q200 188 244 192zM892 756q67 -45 92 -76q53 140 144 280v4h-4q-100 -81 -232 -208zM688 576q72 -147 72 -220v-32q-23 -140 -116 -140h-20q-61 0 -124 96l-12 64l16 76q-43 -14 -96 -60
q50 -54 124 -184q52 -64 96 -64q79 0 188 152q88 209 88 324q0 92 -56 92q-63 0 -160 -104zM608 508q-76 -64 -76 -104v-4q0 -73 84 -136h12q52 0 52 44v8q0 62 -72 192zM1328 348h4l16 16v4zM116 172q32 20 116 100h-4q-60 0 -112 -100z" />
    <glyph glyph-name="L" unicode="L" horiz-adv-x="772" 
d="M447 1428h72q96 0 192 -152q60 -127 60 -280v-188q0 -324 -172 -604q-64 -92 -220 -92q-91 -20 -144 -68l-44 -44h-4q-32 0 -32 32q0 59 120 328l4 24l-12 4q-51 0 -168 -204l-60 -80h-8q-64 9 -64 48v4q0 54 112 168q20 57 20 112v28l-4 16q40 56 76 56q48 0 48 -36v-40
l8 -8h16l68 4q104 0 104 -72q0 -58 -76 -164v-4h4q69 52 160 52q40 19 76 120q96 237 96 480q0 288 -152 420l-44 12h-20q-99 0 -200 -124q-52 -88 -52 -124v-24q0 -312 176 -400q100 -44 100 -92v-12q-144 0 -276 112q-116 119 -116 396q0 155 184 320q103 76 172 76z" />
    <glyph glyph-name="M" unicode="M" horiz-adv-x="890" 
d="M188 1315h84q144 0 316 -160q96 -127 112 -256l16 -140q197 -114 296 -216v-20q0 -7 -20 -12q-39 0 -272 80v-8q0 -370 -236 -552q-64 -33 -108 -40q-176 50 -176 204q0 115 128 268h-32q-184 0 -228 -68h-4q-68 0 -92 176v4q18 144 100 144h12q34 0 56 -28v-80l-4 -80
q197 32 304 76q16 -22 16 -48q0 -55 -108 -260q-16 -49 -16 -84q0 -71 60 -116h20q73 0 148 172q52 287 52 360q-3 36 -136 132q-212 169 -344 308q-76 85 -76 148q0 72 132 96zM196 1183q6 -78 328 -308l80 -64h4v4q0 130 -128 260q-151 116 -276 116z" />
    <glyph glyph-name="N" unicode="N" horiz-adv-x="1093" 
d="M666 613h92q36 -26 36 -64q0 -112 -132 -216q-129 -125 -212 -184v-4q0 -49 100 -84l24 -4q48 0 152 108l296 268l36 8q44 0 72 -48q-12 -110 -56 -312q0 -19 88 -28v-4q-52 -48 -112 -48q-61 0 -104 80q12 122 40 200h-4q-14 0 -232 -224q-88 -68 -204 -68
q-123 0 -180 88q-236 -176 -344 -176h-4q-76 0 -84 108v36q16 112 192 300q71 56 96 56q80 0 176 -160q228 200 268 248q16 21 16 44q0 8 -24 12q-85 -6 -168 -68h-20q-20 9 -20 40v12q0 30 96 56q67 28 120 28zM46 65v-32l16 -16h20q44 0 228 148q-75 128 -120 128
q-82 -103 -144 -228z" />
    <glyph glyph-name="O" unicode="O" horiz-adv-x="871" 
d="M349 1061h52q75 0 188 -44q143 -71 220 -208q64 -131 64 -232v-112q0 -214 -184 -452q-69 -28 -132 -28q-101 0 -176 100q-114 -52 -176 -52h-28q-153 0 -188 104l-8 48v28q0 108 16 108q96 0 96 -28q24 -152 76 -152l20 -4q40 0 236 100l28 4h32q14 0 28 -108
q20 -36 44 -36h24q188 0 188 432q0 126 -124 280q-149 136 -320 136h-48q-194 0 -376 -168q-98 -107 -136 -184h-8q-68 4 -68 12q99 255 348 372q192 81 312 84z" />
    <glyph glyph-name="P" unicode="P" horiz-adv-x="1300" 
d="M1252 1500h44q68 0 124 -84q20 -35 20 -72v-120q-67 -60 -80 -60q-25 192 -100 200h-24q-277 0 -516 -596l-32 -108l24 -96q51 20 112 20q160 -15 160 -120q0 -92 -140 -208q-47 -33 -132 -56q0 -78 -112 -108q-253 -104 -464 -104q-124 4 -124 44q0 32 180 304
q40 80 40 96q-19 52 -64 52h-12q-128 0 -276 -168q-13 -40 -24 -48h-4q-41 0 -52 84q242 216 476 216q84 0 84 -64v-24l-224 -408q15 -12 28 -12h24q141 0 408 108l8 24q-128 27 -128 100v8q0 56 64 148q20 182 64 328q81 244 212 436q171 223 360 276zM716 484v-76
q0 -19 -32 -60l16 -64q102 34 156 124q16 30 16 56q0 45 -72 56q-31 -8 -84 -36zM576 316v-4q8 -18 16 -20v4l-8 20h-8z" />
    <glyph glyph-name="Q" unicode="Q" horiz-adv-x="0" 
d="M-152 200q23 0 32 -416q0 -116 -28 -668q0 -32 52 -116l12 -60v-68q-10 -80 -24 -80q-132 49 -216 200q-40 280 -136 280h-20q-27 0 -280 -92l-136 -16q-222 0 -368 152q-36 41 -36 140q0 190 672 432l4 -12q0 -16 -64 -100q0 -28 -52 -28q-226 -73 -420 -236
q0 -23 -48 -80l-12 -48q21 -100 192 -100h36q207 0 420 116q29 16 64 16h28q98 0 192 -216q14 0 40 240l16 384l-8 240q24 5 56 104z" />
    <glyph glyph-name="R" unicode="R" horiz-adv-x="1385" 
d="M911 639h44q32 0 88 -72q203 0 304 -248q71 -116 116 -116v-4q-33 -108 -92 -108h-16q-22 0 -88 56q-24 -5 -100 -72q-27 -16 -48 -16h-24q-64 0 -64 80q0 147 124 264v4q-40 72 -76 72h-16v-48q0 -65 -32 -156h-4l-36 4v-4l8 -48q0 -164 -172 -164q-105 0 -312 84h-4
q-184 -152 -348 -152h-8q-117 0 -188 72v4q0 79 220 268q88 77 88 120q0 18 -24 28q-76 -22 -76 -140l-84 -84q-14 0 -24 104q0 177 256 216q88 -11 88 -84v-8q-48 -160 -292 -348v-4q0 -17 96 -28q165 0 224 128q47 68 96 68q26 0 196 -108l88 -28q68 0 68 132
q0 64 -56 212v4q19 120 80 120zM987 423v-28q0 -30 24 -96h4v44l-12 104h-4q-12 -4 -12 -24zM1127 207q4 -40 16 -40h8l64 80l28 8h4l56 -24v4l-92 132q-84 -66 -84 -160z" />
    <glyph glyph-name="S" unicode="S" horiz-adv-x="0" 
d="M-193 1497l18 -6l5 -11q-7 -6 -145 11q-269 11 -293 -53l-5 -15l4 -11q248 36 368 -8l38 -14q121 -45 148 -187q4 -36 -9 -69l-23 -64q-34 -93 -110 -79q-55 3 -118 27l-23 8q-206 77 -319 268l-7 2q-94 -20 -278 -115q-55 -45 -72 -92l-14 -38q-60 -162 108 -296l61 -31
l39 -10q11 -28 5 -44q-22 -34 -147 7l-4 1q-204 76 -186 326q5 50 18 82q78 211 446 309q-15 52 -3 82q32 88 260 83zM-560 1326q-9 -25 168 -135q84 -44 168 -75l27 -9l2 7q34 91 -85 185l-36 18q-91 33 -244 9z" />
    <glyph glyph-name="T" unicode="T" horiz-adv-x="951" 
d="M376 1028h108q171 0 324 -152q140 -171 140 -344v-128q0 -166 -136 -388q-80 -44 -144 -44h-8q-91 0 -164 84h-4q-96 -48 -168 -48q-68 0 -152 44q-94 -28 -132 -28l-4 4v4q5 10 88 48l-108 76q-20 21 -20 36v8q0 25 136 48q187 192 288 192h16q60 0 60 -72
q0 -143 -232 -260v-4l36 -8q17 0 224 116l40 8h24q10 0 32 -100q20 -36 44 -36h4q176 0 176 260v96q0 207 -120 328q-139 140 -320 140h-40q-255 0 -456 -264q-72 -140 -80 -140l-56 4h-8v8q61 209 196 316q183 151 416 196zM200 176q24 -28 44 -28q136 97 136 160
q0 28 -24 28q-77 0 -156 -152v-8z" />
    <glyph glyph-name="U" unicode="U" horiz-adv-x="928" 
d="M360 1009h88q220 0 388 -248q84 -170 84 -296v-116q0 -184 -136 -352q-113 -40 -192 -40q-56 6 -56 44q0 30 48 152l4 28v4l-16 16h-12q-25 -21 -92 -144q-56 -64 -168 -64q-67 0 -152 40q-96 -24 -128 -24l-8 8q0 8 84 44v4l-112 80l-12 32q0 35 132 52q196 196 300 196
q68 0 68 -80q0 -138 -232 -252v-4q16 -8 44 -8h4q148 47 148 92q62 108 120 108h20q108 -24 108 -96l-28 -116h12q115 0 148 188l8 112q0 258 -112 368q-143 156 -352 156q-299 0 -500 -308q-42 -92 -52 -96h-64l-8 8q82 254 272 372q144 100 352 140zM176 161q9 -15 32 -28
h12q136 91 136 156q-2 32 -24 32q-70 0 -156 -152v-8z" />
    <glyph glyph-name="V" unicode="V" horiz-adv-x="1441" 
d="M716 1057h60q189 0 348 -168q128 -148 128 -400q172 -98 288 -204v-20l-16 -12q-59 0 -292 92q-31 -117 -88 -224q-73 -128 -132 -128q-29 -12 -80 -12q-101 0 -180 100q-111 -52 -172 -52h-40q-139 0 -188 116l-20 24q-195 -142 -284 -160q-152 25 -152 136
q0 143 212 336q65 48 120 48h12q72 -49 148 -176q4 -16 16 -16q224 187 224 240q-8 25 -20 28q-70 0 -84 -144l-80 -80q-18 11 -24 108q0 164 232 212h32q59 0 80 -68v-24q0 -120 -280 -344q19 -124 80 -124q47 0 224 88l52 8h20q12 0 24 -100q16 -44 44 -44h28
q134 0 168 208l12 100q-259 203 -424 352q-128 132 -128 212q26 92 132 92zM712 929q16 -64 312 -292l112 -88l4 4q-35 170 -128 256q-146 128 -276 128h-16zM16 193v-12q20 -64 88 -64q70 25 168 104q-93 148 -112 160h-12q-63 -25 -116 -140q-16 -27 -16 -48z" />
    <glyph glyph-name="W" unicode="W" horiz-adv-x="1400" 
d="M605 1030h76q89 0 104 -108q-12 -162 -216 -452q-33 -56 -508 -536q-160 -192 -160 -284q0 -129 300 -184q132 -36 308 -36q287 0 691 170q100 100 200 400h8v-12q92 112 -108 -441q-300 -247 -855 -225h-16q-286 0 -520 72q-168 82 -168 212v8q0 112 112 268
q164 176 488 480q316 346 316 492q0 81 -52 92q-16 0 -256 -132l-28 -12l4 -28v-20q0 -85 -148 -128h-28q-44 8 -44 40v8l88 172l16 72l-8 48l4 4h124q12 -2 12 -32v-40l-4 -4v-4h4q241 134 264 140z" />
    <glyph glyph-name="X" unicode="X" horiz-adv-x="942" 
d="M420 1029h52q75 0 188 -44q143 -71 220 -208q64 -131 64 -232v-112q0 -214 -184 -452q-69 -28 -132 -28q-101 0 -176 100q-123 -56 -200 -56q-88 0 -176 56q-40 47 -40 104q0 133 112 204l132 108q60 60 60 88h-8q-94 -124 -236 -124q-100 9 -100 56v20q0 70 132 172
q71 30 140 32q97 0 176 -96l4 -20q0 -121 -188 -296q-88 -69 -88 -80q0 -47 40 -96q18 -16 36 -16q69 0 212 80q44 20 64 20h32q14 0 28 -108q20 -36 44 -36h24q188 0 188 432q0 126 -124 280q-149 136 -320 136h-52q-189 0 -372 -168q-98 -107 -136 -184h-8q-68 4 -68 12
q99 255 348 372q177 77 312 84zM84 529v-4q9 -20 36 -20q74 0 136 96l4 16q-14 24 -48 24q-26 0 -124 -72z" />
    <glyph glyph-name="Y" unicode="Y" horiz-adv-x="947" 
d="M211 613q31 0 36 -40v-24q0 -23 -112 -308q-28 -89 -28 -136q7 -52 44 -52h4q159 0 356 432q34 44 68 44h12q40 0 160 -108h4l84 16h4l8 -8v-8l-52 -48q118 -217 168 -236q20 0 20 -8q-34 -108 -92 -108h-16q-26 0 -84 56q-23 0 -104 -72q-27 -16 -48 -16h-24
q-64 0 -64 80q0 135 112 252q12 0 12 16q-25 52 -68 52h-8q-49 0 -96 -116q-67 -109 -208 -248q-98 -68 -196 -68q-91 0 -128 96l-8 60v20q0 148 224 464q8 0 8 12l4 4h8zM655 149v-28q0 -13 12 -28q21 9 60 72q20 20 52 20l48 -24v4q-88 121 -88 132q-84 -60 -84 -148z" />
    <glyph glyph-name="Z" unicode="Z" horiz-adv-x="174" 
d="M67 1515h12q76 -75 76 -136v-76q0 -74 -72 -168l-16 -4l-12 12v32q0 102 -60 232q12 47 72 108z" />
    <glyph glyph-name="bracketleft" unicode="[" horiz-adv-x="1647" 
d="M1524 712q64 0 76 -80v-8q0 -91 -80 -148l-332 -340l-4 -24v-4q9 -20 40 -20q181 0 344 44q56 0 84 -76v-28q0 -48 -76 -232q-24 -92 -24 -152q0 -158 132 -224q107 -32 164 -32q114 0 212 104h28l12 -12v-32q-111 -101 -280 -140l-96 -8q-232 0 -316 192q-16 57 -16 100
v40q0 95 116 404h-4q-125 -32 -216 -32h-12l-16 -4l-16 4h-12q-164 0 -164 40l-8 60q0 113 264 284q148 97 148 184v8q0 32 -36 32h-24q-105 0 -276 -148l-8 -40l32 -116l-100 -88q-48 83 -48 152v44q-9 0 -52 64q-45 48 -76 48h-12q-41 0 -164 -104l-20 -4v-8
q58 -83 220 -132q136 -47 136 -100v-4q-29 -88 -96 -120q-55 -20 -108 -20h-4q-111 0 -264 72q-74 -24 -216 -116l-64 -12q-96 0 -96 96v8q19 128 284 340v8q-51 88 -96 88h-24q-84 -24 -84 -44v-4q48 -39 48 -76v-4q0 -31 -24 -96l4 -16v-8h-24q-43 0 -104 92h-12
q-146 0 -196 -152l-8 -76v-16l-4 -16l4 -16v-8q0 -55 36 -284v-4l-8 -8h-4q-84 101 -84 272q0 295 208 384q52 15 52 32q0 73 104 136q42 16 88 16q146 0 256 -120h4q202 104 332 104q60 0 132 -60h8q114 82 368 164h72zM324 124l12 -16q52 0 152 108q34 24 76 24
q57 0 156 -84q66 -36 108 -36h16q52 0 52 44q0 20 -136 44q-148 56 -192 144l-16 32q-164 -116 -228 -260z" />
    <glyph glyph-name="backslash" unicode="\" horiz-adv-x="800" 
d="M661 720h52q64 0 76 -80v-16q0 -80 -84 -144l-328 -336l-4 -28q0 -17 56 -24q111 0 352 72q20 -6 20 -28q0 -41 -212 -216q218 -46 316 -88q120 -85 120 -148v-52q0 -88 -156 -172q-81 -40 -188 -40h-4q-131 0 -232 68l-8 12v12l16 16q106 -28 252 -28h8q166 0 196 96v8
q0 103 -388 280q-16 22 -16 40q0 9 76 92v4q-75 -12 -132 -12q-192 0 -192 44l-8 48q0 130 288 312q124 92 124 152v24q0 32 -36 32h-20q-108 0 -268 -140q36 -35 36 -76q-18 -108 -44 -108q-72 -68 -84 -68q-36 86 -48 152q-124 0 -176 -144q-12 -45 -16 -116
q8 -108 40 -308v-4l-8 -8h-4q-84 101 -84 268v4q0 302 216 388q60 15 60 48q97 104 316 176q77 36 120 36z" />
    <glyph glyph-name="bracketright" unicode="]" horiz-adv-x="853" 
d="M1000 1716h28q18 0 36 -68v-52q0 -60 -152 -152q-28 0 -96 -128q-216 -360 -760 -1336l-20 -4q-34 0 -44 80q315 737 740 1336q215 295 240 316zM232 1284h12q116 -13 116 -84v-20q0 -76 -132 -164q-62 -32 -144 -32q-98 0 -112 80v4q0 99 160 196q68 20 100 20zM52 1104
v-28q14 -28 48 -28q107 0 172 124v20q0 35 -52 40q-20 0 -160 -88zM704 684q104 0 120 -88v-12q0 -81 -136 -172q-72 -28 -120 -28h-24q-108 14 -108 68v12q0 106 156 196q59 24 112 24zM512 488q0 -35 48 -40h4q110 0 172 128v12q0 33 -48 44q-55 -20 -156 -80
q-20 -24 -20 -64z" />
    <glyph glyph-name="asciicircum" unicode="^" horiz-adv-x="918" 
d="M945 1218h128q129 0 236 -68q0 -8 -12 -8q-229 32 -280 32q-387 0 -672 -264q-117 -113 -156 -228q-48 -153 -48 -252q0 -322 348 -520q164 -76 380 -76q209 0 532 72l4 -4v-8q-307 -176 -668 -176q-330 0 -500 164q-260 228 -260 524v4q0 358 364 624q357 184 604 184z
" />
    <glyph glyph-name="underscore" unicode="_" horiz-adv-x="5" 
d="M-477 1364h92q145 0 328 -152q45 -49 48 -80v-52q0 -54 -120 -120l-68 -20q-48 59 -48 68l4 4h32q87 0 104 72v4q0 69 -224 164l-76 4q-172 0 -196 -76v-4q0 -41 56 -84h8v8q0 63 92 80h12q80 0 136 -76l8 -24q0 -61 -160 -96q-15 -24 -52 -56h-12q-14 0 -28 68
q-78 31 -144 132l-12 48v8q0 114 176 176zM-445 1056h28q68 16 68 36q0 35 -72 44q-18 0 -24 -80z" />
    <glyph glyph-name="grave" unicode="`" horiz-adv-x="0" 
d="M204 684h64q35 0 52 -56v-44q-17 -80 -28 -80q-23 0 -104 72l-16 8q-168 0 -208 -176l-8 -80q8 -113 40 -312v-8l-8 -8q-88 94 -88 280q0 288 216 384q61 20 88 20z" />
    <glyph glyph-name="a" unicode="a" horiz-adv-x="14" 
d="M-181 1800h40q24 0 52 -220q76 -425 132 -496q97 -177 308 -260q52 -9 52 -16l-12 -12h-64q-229 0 -416 396q-36 73 -76 212h-4q0 -72 -116 -464q-12 -47 -12 -108v-44q0 -84 32 -156l28 4l8 -12q0 -116 -68 -116h-8q-75 0 -88 132q-12 46 -20 160q172 660 172 900v20
l-4 44z" />
    <glyph glyph-name="b" unicode="b" horiz-adv-x="995" 
d="M566 728h80q191 0 252 -356q47 -208 100 -256q204 -194 204 -264v-60q0 -124 -200 -280q-128 -88 -588 -196l-48 -8h-16q-263 0 -336 200l-12 76q0 182 220 340q120 76 372 212h16q24 0 32 -24q0 -38 -92 -84q-170 -116 -344 -280q-52 -77 -52 -160q0 -172 220 -172h4
q273 0 580 172q112 89 112 172v20q0 91 -144 220q-152 144 -152 216q-58 303 -92 356q-42 56 -124 56q-174 0 -376 -232q-104 -132 -104 -232q0 -56 56 -56h12q83 0 236 72v4q-112 59 -112 124v16q0 100 188 168q15 8 72 12q116 0 116 -116v-12q-43 -136 -216 -256
q-185 -108 -308 -108q-115 0 -156 112l-8 60v24q0 209 420 452q134 68 188 68zM370 352q0 -43 68 -120v-4l-16 -16h4q128 105 128 152v8q0 48 -80 48q-104 -17 -104 -68z" />
    <glyph glyph-name="c" unicode="c" horiz-adv-x="905" 
d="M1452 1512h44q68 0 124 -84q20 -35 20 -72v-120q-67 -60 -80 -60q-25 192 -100 200h-24q-277 0 -516 -596l-32 -108q28 -82 28 -232v-20q0 -19 -32 -60q28 -96 28 -144q0 -76 -88 -104q-273 -112 -488 -112q-124 4 -124 44q0 28 180 308q40 71 40 92q-19 52 -64 52h-12
q-128 0 -276 -168q-13 -40 -24 -48h-4q-41 0 -52 84q242 216 476 216q84 0 84 -64v-24l-224 -408q15 -12 28 -12h24q141 0 408 108l12 48q-11 112 -52 112q-15 25 -20 68q0 123 68 380q81 244 212 436q171 223 360 276z" />
    <glyph glyph-name="d" unicode="d" horiz-adv-x="500" 
d="M298 603q124 -23 124 -148v-4q0 -153 -156 -356l-12 -28l24 -4q34 0 288 64l4 -4v-8q-20 -19 -300 -108q-26 -12 -48 -12q-36 0 -40 48v4q92 270 92 336l4 56v4q0 88 -72 88h-8q-67 0 -260 -120h-20l-12 12v8q67 111 296 172h96z" />
    <glyph glyph-name="e" unicode="e" horiz-adv-x="500" 
d="M6 310h36q42 0 56 -76v-16q-32 -171 -32 -252q0 -280 192 -344l68 -8q144 45 176 133.5t52 270.5h8l8 -8v-8q0 -266 -116 -400q-98 -92 -196 -92h-12q-180 0 -256 224q-20 76 -20 160q0 128 32 284q0 42 -56 60l-4 4v4q42 64 64 64z" />
    <glyph glyph-name="f" unicode="f" horiz-adv-x="1149" 
d="M800 904h148q201 0 348 -132q40 -51 40 -88v-56q0 -78 -92 -192q-108 34 -108 44v4q80 48 80 120v28q0 127 -136 160l-124 12h-64q-380 0 -648 -216q-124 -141 -124 -284q0 -177 236 -228q270 0 360 276l4 28q0 41 -72 48q-124 -25 -124 -72q0 -22 64 -124l8 -36v-12
l-8 -8h-40q-65 0 -128 96l-8 48q0 127 220 168l56 4h8q132 -11 132 -100v-12q0 -129 -208 -320q-83 -60 -212 -60q-408 0 -408 296q0 395 568 576q147 32 232 32z" />
    <glyph glyph-name="g" unicode="g" horiz-adv-x="899" 
d="M548 1004h92q133 0 224 -148q32 -74 32 -124v-92q0 -162 -172 -488q-122 -152 -324 -152q-140 0 -160 48q-20 37 -20 60v24q0 97 152 168q56 16 84 16q28 -12 28 -40q-23 -68 -44 -68q-84 0 -84 -40q16 -92 92 -92h8q98 0 200 176q116 233 116 376q0 188 -164 248
q-47 12 -84 12q-247 0 -396 -288q-20 -50 -20 -96q0 -69 104 -144q16 -17 16 -32q-4 -12 -24 -12q-124 0 -200 172l-4 48q0 219 324 404q133 64 224 64z" />
    <glyph glyph-name="h" unicode="h" horiz-adv-x="1017" 
d="M792 528h52q62 0 96 -176q41 -188 112 -188l4 4h12l8 -8v-4q-38 -48 -64 -48h-8q-82 0 -152 292h-4l-8 -48q0 -45 80 -208v-24q0 -80 -232 -112q-96 0 -216 76h-4q-238 -84 -316 -84h-12q-140 0 -140 124v8q0 179 372 332l20 4q21 0 32 -20v-4q-15 -21 -232 -180
q-64 -78 -64 -116v-16q0 -60 132 -60q126 0 232 176q35 32 68 32h32q9 -3 36 -160q30 -60 92 -60q136 13 136 100q-12 35 -116 216l-8 48v16q0 69 44 84z" />
    <glyph glyph-name="i" unicode="i" horiz-adv-x="1437" 
d="M1288 565h36q77 0 112 -140v-96q-16 -128 -36 -128l-8 8v40q0 107 -36 180h-12l-4 -28v-16q0 -61 32 -228v-24q-17 -140 -136 -140l-32 -4q-115 0 -316 88q-175 -156 -360 -156q-92 0 -172 56q-213 -154 -284 -160q-152 23 -152 136q0 140 204 328q70 56 136 56
q85 -61 152 -180l16 -16q216 195 216 216l4 24v4q0 22 -20 28q-72 -25 -72 -100q0 -47 -48 -80q-9 -20 -40 -44q-20 8 -24 112q0 168 256 208q79 0 88 -92q-17 -101 -212 -280l-80 -72q7 -18 88 -28q175 0 224 120q51 76 112 76l232 -128l44 -8q68 14 68 132q-3 82 -60 208
q21 128 84 128zM40 1v-12q17 -64 92 -64q84 35 164 104q-100 153 -108 156l-4 4h-4q-61 0 -136 -168z" />
    <glyph glyph-name="j" unicode="j" horiz-adv-x="735" 
d="M398 1242h76q142 0 220 -212q48 -195 48 -332v-156q0 -256 -160 -452q-113 -104 -180 -104q-148 54 -148 100q-28 37 -28 88v8q0 132 124 272v4h-28q-185 0 -228 -68q-72 0 -92 152l-4 36q0 93 84 136h24q60 -7 60 -44v-44q0 -60 -8 -96l4 -4q196 32 304 76
q12 -20 12 -40v-16q0 -51 -92 -224q-28 -58 -28 -100v-28q0 -50 56 -100h16q98 0 164 216q36 215 36 332v40q-10 361 -184 432l-80 8q-325 0 -468 -372q-32 -120 -32 -204l8 -104q-19 -16 -32 -16q-53 0 -72 244v8q0 239 304 444q229 120 324 120z" />
    <glyph glyph-name="k" unicode="k" horiz-adv-x="1026" 
d="M275 700h72q100 0 140 -168l8 -72l-4 -4l4 -4h4q49 12 92 12q113 0 232 -156q113 -112 140 -112q40 48 64 48l4 -4v-52q-23 -112 -112 -112q-98 0 -240 180q-50 108 -136 108h-20q-70 0 -180 -276q-52 -84 -112 -84h-4q-113 0 -160 172v8l16 16h12l92 -24q84 30 148 168
q16 57 16 100q-20 128 -96 128l-24 4q-158 0 -264 -328l-20 -24h-16q-14 0 -20 44v24q0 201 220 356q90 52 144 52z" />
    <glyph glyph-name="l" unicode="l" horiz-adv-x="1262" 
d="M228 636q111 0 220 -116h4q197 104 336 104q169 0 284 -364q44 -124 100 -124h8q13 0 84 40h8l8 -8v-24q0 -53 -148 -100l-40 -4h-8q-102 0 -132 96q-46 189 -100 288q-78 124 -132 124q-42 0 -176 -108l-16 -4v-4q45 -79 224 -136q132 -45 132 -96v-8q0 -54 -100 -120
q-54 -16 -84 -16h-36q-91 0 -252 68q-53 -11 -208 -108l-56 -16h-36q-76 0 -76 96v8q19 120 260 316l28 20q-50 100 -112 100q-108 -15 -108 -96q2 -52 44 -152l-4 -4h-12q-93 0 -132 168v24q0 105 140 156h88zM168 144v-16h8q56 0 164 116l48 12h20q57 0 144 -76
q79 -44 124 -44q60 0 60 44v4q0 17 -128 40q-149 50 -208 156q0 20 -8 20q-174 -124 -224 -256z" />
    <glyph glyph-name="m" unicode="m" horiz-adv-x="600" 
d="M364 664h48q118 0 228 -252v-20l-108 -80h-4q-11 0 -36 132q-34 108 -68 108l-12 -24q0 -20 88 -216q20 -53 20 -88v-32q0 -95 -104 -148q-141 -44 -252 -44h-8q-149 0 -184 104l-4 24q169 275 180 312v8q-4 12 -24 12h-8q-37 0 -272 -96h-16q-21 0 -28 16v8q0 33 100 84
q96 54 96 96q0 40 28 40h8q31 0 60 -48q-8 -20 -40 -56h4l116 28q76 -12 76 -60v-12q-20 -56 -152 -292q41 -84 144 -84q164 20 164 60q7 0 12 40q0 52 -104 332l-8 72v12q20 64 60 64z" />
    <glyph glyph-name="n" unicode="n" horiz-adv-x="805" 
d="M480 1328h72q96 0 192 -152q60 -128 60 -280v-184q0 -406 -256 -676q-45 -36 -100 -36q-70 0 -100 44q16 64 16 104v8q-7 132 -60 132q-59 0 -204 -256l-32 -32q-68 6 -68 56q0 53 116 168q16 75 16 112v20l-4 28q44 48 72 48h8q44 0 44 -32v-40l4 -4v-4l80 4h16
q100 0 100 -124l4 -56l-4 -32q17 -36 48 -36q50 0 112 188q92 250 92 484q0 280 -148 408l-44 12h-20q-105 0 -212 -140q-40 -81 -40 -120v-12q0 -338 212 -420q60 -28 60 -64l4 -16l-12 -4q-148 0 -280 128q-100 122 -100 376q0 153 180 324q112 76 176 76z" />
    <glyph glyph-name="o" unicode="o" horiz-adv-x="638" 
d="M464 725h60q51 0 68 -76v-20q0 -80 -80 -140l-328 -336l-8 -24v-8q9 -20 40 -20h12q167 0 332 44q72 0 84 -100v-8q0 -49 -56 -176q-44 -117 -44 -200q0 -141 108 -216q109 -44 188 -44q114 0 212 104h28l12 -12v-32q-111 -101 -280 -140l-96 -8h-4q-247 0 -320 224
l-8 72v28q0 102 116 412h-4q-123 -32 -216 -32h-56q-164 0 -164 44l-8 52q0 117 260 284q152 103 152 184v12q0 32 -32 32h-28q-103 0 -276 -148l-8 -36l32 -120l-100 -88q-48 89 -48 156v12q0 139 132 196q225 117 328 128z" />
    <glyph glyph-name="p" unicode="p" horiz-adv-x="886" 
d="M388 945h16q134 -21 316 -336q168 -342 168 -524v-104q0 -20 -60 -24h-8q-150 0 -432 100q-136 -146 -252 -180q-68 -32 -112 -32h-16q-105 0 -132 88q-8 16 -8 44q0 161 128 236q61 36 136 36h4q91 0 248 -88q124 190 124 328q0 16 -48 20q-57 0 -96 -168h-8
q-48 35 -48 80q0 104 184 176l40 4q80 -15 80 -112v-20q0 -119 -156 -336l4 -4q195 -80 320 -80l4 4v24q-24 218 -284 672q-57 84 -72 84l-28 4q-80 0 -212 -168l-104 -16l-4 4v4q39 155 124 216q116 68 184 68zM-32 21q0 -89 88 -100q103 0 256 144l12 16v4
q-195 76 -212 76q-140 -20 -140 -132v-8h-4z" />
    <glyph glyph-name="q" unicode="q" horiz-adv-x="9" 
d="M-202 261h32q84 -3 84 -16l36 -652v-48q0 -156 -160 -240q-74 -28 -168 -28q-202 0 -468 104q-168 87 -168 220v4q0 114 104 184q93 74 196 120l68 28q9 0 12 -68q-292 -129 -292 -244q0 -124 232 -204q188 -44 396 -44h4q66 0 92 64l12 72q-24 520 -24 652v4q0 92 12 92
z" />
    <glyph glyph-name="r" unicode="r" horiz-adv-x="636" 
d="M1782 1657h48l24 -24v-68q0 -87 -196 -112h-44q-10 0 -300 -176q-359 -202 -736 -484q-243 -197 -364 -368l-4 -4v-8h4q119 60 216 60q156 0 200 -120l4 -32v-4q0 -119 -180 -264q-124 -76 -272 -76q-141 0 -180 100q-12 32 -12 60v20l-104 -80l-4 4v8q128 127 128 168
q75 250 364 468q471 393 808 604q562 328 600 328zM110 157q0 -84 96 -84q131 0 264 160q24 44 24 80v24q-13 56 -52 56h-12q-99 0 -296 -140q-17 -35 -24 -96z" />
    <glyph glyph-name="s" unicode="s" horiz-adv-x="9" 
d="M-80 1600h72q111 0 192 -128q16 -41 16 -72v-124q0 -244 -176 -592l-160 -356h-4q-10 0 -12 40q0 91 196 616q48 135 48 244v24q0 152 -76 200q-60 44 -124 44q-211 0 -532 -336q-44 -62 -44 -128v-24q0 -194 216 -252l48 -8l24 4h20q24 -14 24 -36q-18 -48 -140 -48
q-209 0 -288 224l-16 100q0 269 424 516q193 92 292 92z" />
    <glyph glyph-name="t" unicode="t" horiz-adv-x="1116" 
d="M822 1363q100 -32 184 -156q80 -126 112 -364q0 -100 20 -100q246 -152 352 -240q-7 -12 -92 -64h-8l-260 168h-4v-4q0 -284 -100 -528q-44 -80 -148 -80h-24q-201 0 -380 156h-8q-268 -212 -388 -212q-78 0 -112 84l-4 24v8q0 130 220 268q77 40 116 40q68 0 164 -84h4
q-19 29 -20 56v32q0 138 148 260q37 20 72 20h8q78 0 96 -100q0 -120 -224 -332q56 -46 184 -80q73 -16 164 -24q41 0 84 152q24 136 24 288q0 136 -16 136q-161 81 -328 212q-108 95 -108 220v4q0 170 192 240h80zM698 1175v-16q0 -122 276 -304h4v4q-37 214 -120 320
q-49 48 -80 48q-80 0 -80 -52zM550 403l4 -52q-19 -9 -28 -28v-4q132 119 132 180v4q0 28 -28 28h-4q-58 0 -76 -128zM74 83v-20q24 -32 64 -32q93 0 272 188q-58 32 -108 32q-63 0 -144 -48q-84 -64 -84 -120z" />
    <glyph glyph-name="u" unicode="u" horiz-adv-x="754" 
d="M429 1019h64q187 0 256 -396l4 -64v-132q0 -174 -100 -296q-156 -152 -352 -152q-81 0 -156 44q-70 -20 -132 -20h-20l-8 8q1 6 96 40v4q-115 75 -120 112v12q0 27 140 36q195 168 296 168q76 0 76 -64v-8q0 -137 -216 -228v-8l104 -8h4q209 0 276 196q24 93 24 160
q0 213 -112 400q-31 52 -124 52q-218 0 -440 -268q-112 -153 -112 -308l-28 -28h-16q-17 0 -28 56v16q0 389 500 644q77 32 124 32zM161 135q29 -28 40 -28q152 79 152 160q-6 16 -12 16h-16q-77 0 -164 -140v-8z" />
    <glyph glyph-name="v" unicode="v" horiz-adv-x="1234" 
d="M716 1076h52q75 0 188 -44q167 -79 248 -268q36 -105 36 -172v-112q0 -215 -184 -452q-69 -28 -132 -28q-101 0 -176 100q-122 -56 -204 -56q-109 14 -148 44l-72 96q-197 -145 -280 -160q-152 29 -152 128v16q0 100 148 272q107 104 168 104h20q47 -4 168 -192l4 -4
q216 197 216 224l4 20v12l-16 16h-4q-76 -15 -76 -128q-8 -22 -84 -92h-8q-16 60 -16 104q0 174 244 212h24q65 0 76 -88v-4q0 -91 -188 -268q-101 -73 -104 -88q20 -112 76 -112q71 0 228 88l60 12h24q9 0 24 -108q20 -36 44 -36h20q105 0 148 112q44 123 44 320
q0 123 -120 276q-152 140 -320 140h-48q-243 0 -440 -236l-76 -116h-4q-68 0 -68 12q91 237 292 344q222 112 364 112zM12 216v-12q0 -54 84 -72q78 29 172 104q-96 152 -112 160h-8q-61 0 -136 -180z" />
    <glyph glyph-name="w" unicode="w" horiz-adv-x="775" 
d="M713 989h32q48 -8 48 -32l8 -92v-144q-12 -144 -44 -144h-4l-24 8q-260 -1025 -404 -1508q-76 -212 -208 -212h-4q-116 0 -116 148v40q0 275 372 864q44 73 44 108q0 28 -68 32q-322 -36 -380 -36q-64 0 -64 40q3 84 316 348l52 48v4h-16q-119 0 -136 116l-4 16
q0 125 292 180l36 4q120 -11 120 -76v-28q0 -115 -428 -440q-88 -75 -88 -108l36 -4h4l296 20q59 0 100 -28l204 860q11 16 28 16zM257 613v-20q0 -36 48 -108q136 122 136 144l4 28q0 48 -48 48q-140 -26 -140 -92zM105 -939q0 -52 32 -72q137 0 200 452l56 284
q-288 -521 -288 -644v-20z" />
    <glyph glyph-name="x" unicode="x" horiz-adv-x="655" 
d="M396 488h84q112 0 160 -112v-64q0 -92 -184 -244q-134 -68 -252 -68h-8q-147 0 -192 96l-4 24v8q0 147 216 304q119 56 180 56zM120 176q0 -80 96 -80q125 0 248 140q44 58 44 100q0 76 -92 76q-52 0 -216 -112q-80 -13 -80 -124z" />
    <glyph glyph-name="y" unicode="y" horiz-adv-x="966" 
d="M432 656h28q24 -14 24 -36v-4q0 -64 -156 -296q-20 -35 -20 -56v-16l8 -8q128 73 392 296q64 40 108 40q140 0 140 -176v-12q0 -124 -80 -304q0 -12 16 -12v-4l96 20l4 -4v-12q-74 -72 -148 -72q-92 13 -92 84q68 200 68 300q0 44 -28 60h-24q-24 0 -344 -248l-180 -128
h-24q-57 0 -76 80q0 86 136 300l4 12l-224 -120h-24q-36 0 -36 48v8q290 224 432 260z" />
    <glyph glyph-name="z" unicode="z" horiz-adv-x="184" 
d="M80 1637h12q40 -37 68 -92v-20q-56 -137 -56 -228v-32l-12 -12h-8q-33 0 -80 160l-4 48v4q0 99 80 172z" />
    <glyph glyph-name="braceleft" unicode="{" horiz-adv-x="1333" 
d="M1154 724h52q66 0 76 -84v-4q0 -91 -80 -148l-332 -340l-4 -24v-4q9 -20 40 -20h12q165 0 332 44q56 0 84 -76v-32q0 -48 -64 -196q-36 -105 -36 -180q0 -161 132 -228q110 -32 160 -32q120 0 216 104h28l12 -12v-32q-111 -101 -280 -140l-96 -8q-223 0 -304 172
q-28 58 -28 112v40q0 103 116 412h-4q-101 -28 -296 -40q-140 0 -140 60q-7 0 -8 44q0 119 276 296q136 93 136 172v12q0 32 -32 32h-28q-90 0 -244 -120q-32 -139 -96 -208h-20q-13 0 -20 40q-218 -360 -420 -360h-12q-87 0 -124 88q-12 47 -12 80q0 135 176 404
q-23 20 -40 20q-152 0 -196 -148q-12 -38 -12 -72v-24l-4 -16l4 -16v-8q0 -58 36 -284v-4l-8 -8h-4q-84 98 -84 272q0 297 216 388q60 24 108 24h40q60 -20 60 -76q0 -32 -28 -108q-15 0 -100 -248q-20 -60 -20 -100v-20q0 -48 40 -48q129 0 248 220l136 232
q152 114 392 192z" />
    <glyph glyph-name="bar" unicode="|" horiz-adv-x="917" 
d="M745 706h60q51 0 68 -76v-20q0 -80 -80 -140l-328 -336l-8 -24v-8q9 -20 40 -20h12q165 0 332 44q56 0 84 -76v-32q0 -45 -72 -220q-28 -93 -28 -160q0 -151 124 -220q109 -36 168 -36q119 0 216 104h28l12 -12v-32q-115 -101 -264 -136q-55 -12 -112 -12h-4
q-245 0 -316 216q-12 29 -12 80v28q0 103 116 412h-4q-124 -32 -216 -32h-12l-16 -4l-16 4h-12q-164 0 -164 44l-8 52q0 118 260 284q152 103 152 184v12q0 32 -32 32h-28q-103 0 -276 -148l-4 -24q28 -24 28 -52l-4 -60l4 -20q-7 0 -32 -36q-9 0 -68 -52q-11 0 -44 116
q0 16 -8 16h-8q-141 0 -192 -140q-12 -50 -12 -88v-16l-4 -16l4 -16v-12q0 -47 36 -280v-4l-8 -8h-4q-84 103 -84 268v4q0 300 216 388q72 20 72 32q0 63 164 144q223 104 284 104z" />
    <glyph glyph-name="braceright" unicode="}" 
d="M774 638q-172 -5 -223 -71t-51 -132v-468q-1 -74 -77.5 -141.5t-184.5 -67.5h-108v50h90q61 0 107 33.5t47 91.5l-1 500q0 83 61 158t144 76v2q-83 1 -143.5 76.5t-60.5 158.5v500q-1 58 -47 91.5t-107 33.5h-90v50h108q108 0 185 -67.5t77 -141.5v-468q0 -67 51 -133
t223 -71v-60z" />
    <glyph glyph-name="asciitilde" unicode="~" horiz-adv-x="1342" 
d="M828 1057h52q197 0 356 -176q116 -157 116 -308v-112q0 -214 -184 -452q-69 -28 -132 -28q-108 0 -172 100q-134 -56 -204 -56q-101 0 -172 64q-13 35 -52 76q-179 -131 -276 -160q-156 24 -156 132v28q0 91 172 284q99 76 144 76h28q45 -20 132 -152v44q0 82 -132 120
q0 7 -48 8q-179 0 -408 -348l-40 -44h-4l-8 8q8 119 148 272q106 104 228 152v4q-41 5 -48 12q91 242 336 368q193 82 324 88zM252 601l68 4h16q95 0 204 -56v4q0 40 100 108q86 36 136 36h20q61 0 76 -88q0 -113 -244 -316q-48 -30 -48 -44q0 -79 68 -112h12q60 0 244 96
l28 4h32q13 0 28 -108q20 -36 44 -36h24q188 0 188 432q0 126 -124 280q-149 136 -324 136h-44q-260 0 -464 -272zM632 461l4 -12q96 77 96 124q0 22 -16 28h-4q-80 -16 -80 -140zM120 189q0 -59 88 -76q54 19 172 100v4q-104 160 -112 160h-8q-64 0 -140 -184v-4z" />
    <glyph glyph-name="exclamdown" unicode="&#xa1;" horiz-adv-x="672" 
 />
    <glyph glyph-name="cent" unicode="&#xa2;" horiz-adv-x="907" 
d="M881 1493h84q118 0 200 -144q12 -62 12 -120q0 -289 -156 -604l-180 -400l-4 -4h-4q-12 0 -12 40q0 95 200 624q44 140 44 240v16q0 182 -112 224q0 12 -88 24q-210 0 -532 -336q-44 -62 -44 -128v-36q0 -173 200 -236h8q137 60 204 60q96 -15 96 -84v-16q0 -81 -84 -144
q0 -7 -320 -324q-12 -20 -12 -40v-4q0 -16 52 -20q128 0 340 44q76 -17 76 -100v-4q0 -53 -60 -188q-40 -113 -40 -192q0 -139 108 -216q113 -44 188 -44q115 0 212 104h28l12 -12v-32q-120 -104 -268 -136q-47 -12 -108 -12h-4q-245 0 -316 216q-12 29 -12 80v28
q0 105 116 412h-8q-126 -32 -236 -32h-8q-188 0 -188 44l-8 52q0 125 312 324q100 77 100 148v12q0 32 -44 32h-4q0 -40 -152 -52q-140 -78 -140 -116v-4q28 -31 28 -56l-4 -56l4 -24l-56 -48l-40 -36h-4q-27 37 -48 128l-4 4q-136 0 -192 -120q-20 -58 -20 -112v-16l-4 -16
l4 -16v-4q0 -60 36 -284v-8l-8 -8q-88 97 -88 268v12q0 278 196 372q17 14 88 32q17 67 72 100l60 40q-172 101 -172 300q0 252 400 500q207 101 304 104z" />
    <glyph glyph-name="sterling" unicode="&#xa3;" horiz-adv-x="903" 
d="M885 1587h16l8 -8l-212 -64q-184 -70 -184 -136l8 -16q226 120 352 120h28q172 -7 224 -148q12 -37 12 -84q0 -120 -72 -140q-63 -16 -112 -16h-48q-209 0 -392 140q-66 -35 -228 -212q-32 -58 -32 -128q0 -197 212 -260h12q180 82 260 88q104 -10 104 -84v-16
q0 -89 -108 -172q-304 -305 -304 -312l-4 -24v-4q0 -14 44 -20q147 0 348 44q60 0 76 -96v-8q0 -48 -76 -232q-24 -95 -24 -152q0 -134 108 -212q114 -44 180 -44q126 0 220 104h28l12 -12v-32q-37 -45 -192 -116q-102 -32 -172 -32h-16q-233 0 -316 204l-12 92v28
q0 103 116 412h-4q-135 -32 -224 -32h-40q-172 0 -172 44l-8 52q0 124 292 308q120 87 120 160v24q-13 24 -44 24q-82 0 -92 -40q0 -10 -108 -36q-96 -65 -96 -92v-4q28 -31 28 -56l-4 -60l4 -20q-8 0 -32 -36q-11 0 -64 -48h-4q-13 0 -48 128l-4 4q-142 0 -196 -132
q-16 -55 -16 -100v-60q0 -56 36 -272v-12l-8 -8q-88 96 -88 268v4q0 307 228 396q60 12 60 24q0 41 76 100q-92 31 -152 128q-46 103 -48 172q0 181 204 368l108 88q-28 35 -28 64v12q0 88 204 160q199 28 256 28zM601 1299v-4q131 -76 360 -76h56q0 118 -172 156h-20
q-86 0 -224 -76z" />
    <glyph glyph-name="currency" unicode="&#xa4;" 
d="M350 560q41 -40 99 -57q29 -8 58 -8t58 8q58 17 99 57q40 41 57 99q9 29 9 58t-9 58q-17 58 -57 99q-41 40 -100 57q-29 8 -58 8t-58 -9q-58 -17 -98 -56q-39 -40 -56 -98q-10 -30 -10 -60q0 -28 9 -56q16 -59 57 -100zM240 903l-118 118l80 81l118 -118q44 30 99 46
q44 14 89 14q41 0 83 -12q57 -17 102 -48l118 118l80 -81l-117 -117q31 -46 48 -102q12 -42 12 -85q0 -42 -12 -85q-17 -56 -48 -102l117 -117l-80 -81l-118 118q-45 -32 -101 -48q-42 -12 -85 -12q-42 0 -85 12q-57 16 -102 48l-118 -118l-80 81l118 117q-32 46 -48 103
q-12 42 -12 84q0 44 13 87q16 55 47 99z" />
    <glyph glyph-name="yen" unicode="&#xa5;" horiz-adv-x="622" 
d="M416 800h60q57 0 72 -88q0 -91 -108 -176l-304 -304l-8 -32q0 -23 56 -28q278 20 336 52l44 12q24 -109 24 -356v-24q0 -178 -36 -676q0 -16 60 -128l4 -40v-68q-10 -80 -24 -80q-108 41 -172 136q-42 32 -64 176q-43 172 -120 172q-33 0 -276 -88q-73 -20 -132 -20h-52
q-193 0 -340 148q-36 44 -36 140q0 190 668 432l8 -8q0 -16 -68 -112q0 -16 -28 -16q-170 -35 -424 -224q-16 -14 -16 -36q-60 -61 -60 -108q22 -100 188 -100h24q196 0 392 92q64 44 120 44q117 0 208 -220q14 0 40 240l16 380l-8 232h-4q-143 -36 -252 -36q-188 0 -188 44
l-12 48q0 126 268 296q148 99 148 192q0 26 -36 32h-24q-112 0 -280 -152l-4 -24v-20l28 -112q-92 -84 -104 -84q-44 105 -44 164q0 142 128 196q254 132 332 132z" />
    <glyph glyph-name="brokenbar" unicode="&#xa6;" horiz-adv-x="268" 
d="M128 764h28q104 -117 104 -180v-36q0 -9 -20 -12q-43 0 -240 160v12q53 56 128 56zM152 388h4q84 -76 84 -164v-32q0 -83 -72 -188l-20 -4l-12 12v44q0 86 -60 224q41 83 76 108z" />
    <glyph glyph-name="section" unicode="&#xa7;" horiz-adv-x="651" 
d="M635 1544h16l8 -8l-212 -64q-184 -67 -184 -140l8 -12q223 120 352 120h28q153 0 220 -136q16 -43 16 -96q-11 -136 -68 -136q-54 -20 -112 -20h-52q-210 0 -392 140q-58 -34 -208 -184q-52 -68 -52 -140v-32q0 -184 220 -244q204 88 264 88q104 -11 104 -84v-12
q0 -86 -80 -144l-328 -336l-8 -24v-12q0 -14 44 -20q151 0 340 44q72 0 84 -100v-4q0 -46 -76 -232q-24 -87 -24 -156q0 -132 108 -208q110 -44 184 -44q119 0 216 104h28l12 -12v-32q-112 -101 -280 -140l-96 -8h-4q-231 0 -312 196q-16 50 -16 84v48q0 103 116 408h-8
q-124 -32 -232 -32h-28q-172 0 -172 44l-8 48q0 132 296 316q116 85 116 160v8q0 31 -40 36h-4q-82 0 -92 -40q-7 -13 -108 -36q-100 -62 -100 -108v-8l28 -104v-12l-92 -84h-4q-29 33 -48 132v40q0 111 88 168q-83 25 -152 124q-48 109 -48 180q0 223 312 452
q-27 33 -32 68q0 102 224 172zM351 1256v-4q126 -76 372 -76h44q0 103 -144 152l-48 4q-86 0 -224 -76z" />
    <glyph glyph-name="dieresis" unicode="&#xa8;" horiz-adv-x="1109" 
d="M758 761h100q134 0 224 -88q36 -51 36 -108q0 -129 -220 -236l-236 -64q-43 0 -52 56v16q0 110 188 264l24 8h16q36 -6 36 -32q0 -8 -128 -144q-24 -32 -24 -48v-8l12 -12h64q190 0 248 212v12q0 84 -172 112l-64 4q-448 0 -712 -360q-56 -146 -56 -220q0 -169 192 -224
q85 -24 188 -24h60q184 0 508 64v40q0 52 76 52h28q60 0 60 -76l44 -540v-40q0 -150 -212 -224q-97 -24 -204 -24h-4q-259 0 -608 92q-220 75 -220 212q0 105 184 184q97 52 276 104v4h-12q-344 0 -448 192q-48 84 -48 184v8q0 252 284 464q339 188 572 188zM430 -275l8 -60
q-319 -111 -364 -180l-12 -48q0 -55 120 -120q219 -96 692 -96h16q91 0 116 68q12 26 12 56l-28 468q-301 -88 -560 -88z" />
    <glyph glyph-name="copyright" unicode="&#xa9;" horiz-adv-x="1055" 
d="M448 928h92q149 0 340 -160q40 -55 40 -88v-28q0 -58 -92 -112q0 -7 48 -16q43 -53 92 -276q28 -80 100 -80l8 -8v-4q-38 -48 -64 -48q-93 0 -160 292q-10 0 -12 -48q0 -40 72 -188q8 -16 8 -44q0 -79 -232 -112h-8q-84 0 -208 76q-247 -84 -316 -84h-12q-123 0 -140 88
l-4 48q0 177 384 336q40 -6 40 -24q-18 -29 -228 -176q-68 -86 -68 -116v-24q0 -60 128 -60q132 0 244 188q41 24 80 24h12q8 0 36 -164q32 -60 92 -60q136 15 136 96q0 22 -100 192q-24 39 -24 80v8q0 38 12 64q-25 0 -64 72l12 4l24 -4q104 10 104 76v4q0 75 -232 164
l-64 4q-168 0 -196 -72v-12q0 -49 60 -84q0 64 64 84q16 8 44 8q140 -32 140 -104q0 -60 -160 -96q0 -13 -56 -56q-22 0 -36 72q-63 19 -136 120q-20 45 -20 68q0 101 152 168q37 12 68 12zM480 620l4 -4h8q60 0 84 36q0 37 -60 44h-16q-9 0 -20 -76z" />
    <glyph glyph-name="ordfeminine" unicode="&#xaa;" horiz-adv-x="824" 
d="M713 702q57 0 72 -88q0 -91 -108 -176l-144 -144q-168 -164 -168 -184v-8q8 -28 56 -28q278 20 336 52l44 12q24 -109 24 -356v-24q0 -178 -36 -676q0 -16 60 -128l4 -40v-68q-10 -80 -24 -80q-108 41 -172 136q-42 32 -64 176q-43 172 -120 172q-33 0 -276 -88
q-73 -20 -132 -20h-52q-193 0 -340 148q-36 42 -36 140q0 190 668 432q8 0 8 -12t-68 -108q0 -16 -28 -16q-218 -56 -436 -236q0 -17 -44 -72l-20 -56q0 -72 120 -96l76 -8h16q196 0 392 92q64 44 120 44q117 0 208 -220q14 0 40 240l16 380l-8 232h-4q-143 -36 -252 -36
q-188 0 -188 44l-12 48q0 126 268 296q148 97 148 192q0 26 -36 32h-24q-112 0 -280 -152v-4q40 -38 40 -72v-4q-13 -104 -40 -104q-11 0 -72 -56h-8q-32 79 -44 136q-86 0 -160 -80q-44 -84 -44 -184q8 -101 40 -308v-4l-8 -8q-88 96 -88 268v4q0 288 192 376l80 36
q0 119 436 256h72z" />
    <glyph glyph-name="guillemotleft" unicode="&#xab;" horiz-adv-x="944" 
d="M174 479l342 303h14v-37l-205 -266l205 -266v-37h-14zM487 479l342 303h14v-37l-205 -266l205 -266v-37h-14z" />
    <glyph glyph-name="logicalnot" unicode="&#xac;" 
d="M87 767h840v-491l-1 -1h-98v392h-741v100z" />
    <glyph glyph-name="registered" unicode="&#xae;" horiz-adv-x="1790" 
d="M1272 1076h52q196 0 356 -176q116 -155 116 -308v-112q0 -213 -184 -452q-69 -28 -132 -28q-104 0 -176 100q-116 -52 -176 -52h-28q-200 0 -200 172l8 128q0 80 -116 176q-50 28 -72 28q-46 0 -164 -100l-28 -12v-4q40 -76 252 -148q104 -37 104 -84v-4q0 -61 -92 -120
q-48 -24 -112 -24q-103 0 -272 72q-40 -9 -208 -112q-43 -16 -76 -16q-88 0 -88 104q22 128 264 324l24 16q-49 100 -112 100h-4q-104 -17 -104 -96q2 -52 44 -152l-4 -4h-12q-94 0 -132 172v20q0 105 136 156l40 4h32q134 0 240 -120q154 78 200 80v8h-28q-8 0 -8 12
q101 250 332 360q207 92 328 92zM696 620h8l80 8q112 0 204 -144q32 -52 32 -216q26 -116 88 -116q39 0 244 100l24 4h32q17 0 20 -84q21 -60 52 -60h24q188 0 188 432q0 106 -100 252q-153 164 -340 164h-52q-253 0 -456 -260zM168 148v-12l4 -4v-4q58 0 164 116
q36 16 64 16h4q59 0 152 -80q69 -40 124 -40q56 0 56 48q0 16 -144 44q-148 58 -196 164v8h-8q-187 -148 -220 -256z" />
    <glyph glyph-name="macron" unicode="&#xaf;" horiz-adv-x="2247" 
d="M1684 1368h76q163 0 228 -256q24 -182 88 -356q114 -299 304 -420q56 -27 56 -52v-12l-8 -8h-4q-105 19 -304 176q-152 154 -212 316q-85 285 -136 420q-36 80 -108 80q-130 0 -280 -140q-36 -56 -36 -84v-8q0 -194 360 -460q84 -95 84 -176v-48q0 -141 -180 -292
q-61 -28 -112 -28h-32q-85 0 -164 96q-127 -52 -200 -52q-204 0 -204 176l8 108q0 39 -60 124q-72 70 -120 76h-12q-42 0 -172 -108q-16 0 -16 -8q41 -79 292 -160q64 -38 64 -68v-12q0 -53 -100 -120q-54 -16 -84 -16h-36q-102 0 -252 72q-22 0 -216 -116q-31 -12 -56 -12
h-28q-76 0 -76 96v8q0 104 288 340q-53 96 -108 96h-12q-96 -23 -96 -68l-4 -24q0 -56 44 -152l-12 -8q-102 0 -136 176v12q0 114 136 160l52 8q155 0 260 -124q194 104 328 104l4 4q85 0 184 -108q56 -63 56 -232q20 -116 96 -116q34 0 232 96l48 8q28 0 28 -52
q0 -82 60 -96h4q162 0 216 152q8 17 8 64q0 94 -96 176q-23 27 -188 140q-220 177 -220 324q0 171 252 312q148 72 224 72zM168 140v-12h8q55 0 160 112q27 16 48 16h28q54 0 152 -84q78 -36 112 -36q55 0 60 44v4q0 19 -128 40q-157 57 -204 156l-8 20h-8
q-115 -85 -200 -204q-20 -39 -20 -56z" />
    <glyph glyph-name="degree" unicode="&#xb0;" horiz-adv-x="2200" 
d="M1508 1284h88q165 0 408 -236q40 40 72 40h16q80 0 176 -180q64 -220 68 -260v-4l-8 -8q-160 360 -240 360h-12q-20 -1 -20 -8q180 -240 180 -392v-16q0 -116 -108 -192q-68 -28 -128 -28h-4q-93 0 -112 64q-40 110 -40 220v4q0 185 84 328v4q-220 204 -320 204h-16
q-232 -32 -232 -172v-16q0 -176 340 -428q92 -91 92 -200v-12q0 -162 -188 -312q-63 -24 -108 -24h-24q-95 0 -168 96q-131 -52 -200 -52q-161 0 -196 112l-8 56l8 112q0 78 -112 172q-52 32 -68 32h-12q-45 0 -172 -108q-16 0 -16 -8q51 -78 204 -128q152 -50 152 -104
q0 -75 -116 -132q-35 -12 -80 -12h-24q-102 0 -252 72q-22 0 -224 -120l-40 -8h-36q-76 0 -76 96v8q0 104 280 332l4 4h4q-49 100 -108 100h-12q-96 -21 -96 -68l-4 -24q0 -56 44 -152l-16 -8q-89 0 -132 164v24q0 114 136 160l52 8q145 0 260 -120q207 100 324 100h12
q128 0 216 -172q15 -44 24 -192q28 -88 84 -88q53 0 232 96l52 8q28 0 28 -28q10 -120 60 -120h4q169 0 224 164v60q0 132 -244 280q-260 203 -260 332v36q0 131 184 240q90 44 120 44zM1968 704q0 -91 20 -228q78 0 124 132l4 36v24q0 85 -112 232q-28 -20 -36 -196z
M168 140v-12h12q48 0 156 112q27 16 48 16h36q38 0 128 -72q80 -48 128 -48q60 8 60 44v4q0 19 -128 40q-156 57 -200 148l-12 28h-8q-115 -85 -200 -204q-20 -39 -20 -56z" />
    <glyph glyph-name="plusminus" unicode="&#xb1;" horiz-adv-x="1116" 
d="M399 710h60q51 0 68 -76v-20q0 -80 -80 -140l-328 -336l-8 -24v-8q9 -20 40 -20h12q167 0 332 44q72 0 84 -100v-8q0 -49 -56 -176q-44 -117 -44 -200q0 -155 124 -224q108 -36 168 -36q118 0 212 100l24 4h8q16 -6 16 -28v-4q0 -27 -88 -72q-138 -88 -292 -88h-4
q-247 0 -320 224l-8 72v32q0 94 116 408h-4q-123 -32 -216 -32h-56q-164 0 -164 44l-8 52q0 122 300 312q112 89 112 144v24q0 32 -32 32h-28q-103 0 -276 -148l-8 -36l32 -120l-100 -88q-48 89 -48 156v12q0 143 140 200q216 112 320 124zM651 418q53 0 64 -96
q-32 -150 -32 -256q0 -273 184 -340l64 -8h20q109 0 188 164q14 68 44 68l4 -4v-24q-39 -157 -136 -236q-95 -76 -184 -76q-168 0 -252 196q-28 82 -28 168v52q0 88 28 256q0 44 -56 60v8q38 64 68 64z" />
    <glyph glyph-name="uni00B2" unicode="&#xb2;" 
 />
    <glyph glyph-name="uni00B3" unicode="&#xb3;" 
 />
    <glyph glyph-name="acute" unicode="&#xb4;" horiz-adv-x="1140" 
d="M652 1245h96q196 0 360 -264q80 -166 80 -340v-112l-8 -8h-12q-20 0 -68 248q-120 388 -420 388q-141 0 -232 -112v-4q350 0 484 -360q28 -100 28 -192v-12q0 -239 -140 -452q-77 -44 -156 -44q-83 0 -164 84q-99 -48 -168 -48q-68 0 -156 44q-87 -28 -132 -28l-4 4v4
q0 7 88 48v4q-128 76 -128 108v4q0 30 140 52q189 192 276 192h32q44 0 52 -64v-28q0 -101 -172 -208l-56 -28v-8l36 -8l220 112q20 12 52 12h16q10 0 28 -92q21 -44 48 -44h4q176 0 176 264v76q0 211 -96 312q-135 172 -360 172h-8q-56 -146 -136 -188q-74 -52 -144 -52
h-24q-96 0 -112 92v4q0 185 372 264q53 123 212 188q56 20 96 20zM60 797q0 -40 44 -40q79 0 184 144v4h-4q-224 -53 -224 -108zM204 185q30 -28 40 -28q140 88 140 156v20l-12 12h-8q-79 0 -160 -156v-4z" />
    <glyph glyph-name="mu" unicode="&#xb5;" horiz-adv-x="1196" 
d="M408 734h60q53 0 68 -76v-16q0 -87 -84 -148l-328 -336l-4 -28q9 -20 40 -20h12q170 0 332 44q48 0 84 -64q260 293 260 316v16q-5 52 -40 52h-16q-68 0 -260 -260l-4 -4h-4q-88 4 -88 16q156 193 256 292q97 64 172 64q37 -4 76 -44q0 137 176 160q231 17 304 36l4 -4
v-28q-1 -7 -192 -64q-151 -47 -168 -76l-16 -20v-28q0 -23 116 -276v-4q0 -196 -160 -196l-192 8q-142 0 -248 -120q-31 0 -72 -216l-4 -36q0 -145 108 -220q112 -44 184 -44q120 0 212 100l24 4h8l16 -16v-28q-186 -148 -368 -148h-4q-267 0 -332 228l-8 76v4
q0 120 116 428h-4q-123 -32 -208 -32h-64q-164 0 -164 44l-8 52q0 124 316 324q100 81 100 152q-6 36 -36 36h-20q-114 0 -284 -148l-8 -36l32 -120l-100 -88q-48 89 -48 156v12q0 143 140 200q235 119 320 124zM956 446q-12 -85 -260 -356v-4q88 52 140 52l88 -20
q112 47 112 136q0 38 -68 176l-4 16h-8z" />
    <glyph glyph-name="paragraph" unicode="&#xb6;" horiz-adv-x="1024" 
d="M929 1435v-70h-127v-1365h-82v1365h-166v-1365h-84v738q-174 8 -275.5 102.5t-101.5 245.5q0 157 107.5 253t285.5 96h443z" />
    <glyph glyph-name="periodcentered" unicode="&#xb7;" horiz-adv-x="508" 
d="M145 740l82 84q15 14 29 14q13 0 31 -16l80 -86q12 -16 12 -29q0 -15 -14 -31l-80 -88q-20 -20 -29 -20q-16 0 -29 14l-88 101q-10 13 -10 26q0 15 16 31z" />
    <glyph glyph-name="periodcentered" unicode="&#x2219;" horiz-adv-x="508" 
d="M145 740l82 84q15 14 29 14q13 0 31 -16l80 -86q12 -16 12 -29q0 -15 -14 -31l-80 -88q-20 -20 -29 -20q-16 0 -29 14l-88 101q-10 13 -10 26q0 15 16 31z" />
    <glyph glyph-name="cedilla" unicode="&#xb8;" horiz-adv-x="1024" 
d="M360 -290q85 -52 152 -52q66 0 94.5 21.5t28.5 66.5t-49 64q-40 16 -102 16q-16 0 -34 -2l48 176h63l-37 -104q32 4 62 5q86 0 134 -40.5t48 -113.5q0 -76 -58.5 -120.5t-160.5 -44.5q-109 0 -189 32v96z" />
    <glyph glyph-name="uni00B9" unicode="&#xb9;" 
 />
    <glyph glyph-name="ordmasculine" unicode="&#xba;" horiz-adv-x="718" 
 />
    <glyph glyph-name="guillemotright" unicode="&#xbb;" horiz-adv-x="944" 
d="M115 176h-14v37l205 266l-205 266v37h14l342 -303zM428 176h-14v37l205 266l-205 266v37h14l342 -303z" />
    <glyph glyph-name="onequarter" unicode="&#xbc;" horiz-adv-x="951" 
d="M340 1092h92q141 0 324 -148q56 -54 56 -116v-4l-8 -36h4q73 0 172 20l4 -4v-24q0 -11 -192 -64q-184 -57 -184 -112v-12q0 -24 116 -276v-8q0 -196 -160 -196l-184 8h-4q-146 0 -252 -120h-12q-47 0 -56 24v20q0 22 128 160q224 253 224 276l4 16q-8 56 -52 56
q-72 0 -272 -268q-88 6 -88 16q140 182 256 292q92 64 152 64h16q34 0 76 -40h4v28q0 104 200 136l8 32q0 79 -232 168l-64 4q-196 -10 -196 -76v-16q0 -39 60 -76q0 61 60 84l48 8q140 -32 140 -104q0 -58 -160 -96q-43 -56 -56 -56q-22 0 -36 72q-63 19 -136 120
q-20 41 -20 68q0 113 176 176zM372 784l12 -4q55 0 84 36q0 37 -60 44h-16q-10 0 -20 -76zM260 164h4q79 48 128 48h16l76 -20q112 46 112 140q0 38 -68 176l-4 16l-36 -72q-59 -97 -228 -288z" />
    <glyph glyph-name="onehalf" unicode="&#xbd;" horiz-adv-x="1354" 
d="M628 706h56q65 0 76 -88v-4q0 -88 -104 -168q-312 -313 -312 -320v-16q0 -28 40 -28q180 0 344 44q68 0 84 -96v-8q0 -46 -76 -232q-24 -86 -24 -156q0 -148 124 -216q106 -36 168 -36q119 0 216 104h28q16 -6 16 -28v-12q-69 -69 -200 -120q-89 -32 -180 -32
q-229 0 -312 184q-24 74 -24 124q0 115 120 428h-4q-125 -32 -216 -32h-16l-16 -4l-16 4h-8q-143 0 -156 28q-9 0 -16 48v20q0 76 100 168l-44 4q-28 -34 -52 -48h-8q-5 0 -32 72h-4q-124 -65 -124 -164v-20q0 -133 176 -376q20 -26 20 -40l-8 -8h-4q-139 73 -212 292
q-24 86 -24 168q0 81 92 196l76 68q0 132 204 208q194 92 252 92zM288 418l28 -56l12 -88h8q206 150 264 204q32 45 32 88v16q-12 24 -36 24h-24q-109 0 -280 -152zM888 414q52 -21 52 -60q5 0 8 -32q-32 -154 -32 -232v-36q0 -251 160 -320q43 -20 80 -20h28q107 0 188 164
q19 68 32 68h8l8 -8v-20q-39 -156 -132 -232q-95 -80 -188 -80q-166 0 -252 192q-32 98 -32 204q0 81 32 280q0 37 -56 56v12q43 60 60 60z" />
    <glyph glyph-name="threequarters" unicode="&#xbe;" horiz-adv-x="700" 
d="M455 1876h28q27 0 56 -228q76 -419 132 -492q30 -51 92 -120q431 317 752 492q293 156 316 156h12q24 0 44 -28v-64q-26 -116 -208 -116h-28q-17 0 -360 -212q-268 -152 -456 -288v-4q129 -81 196 -84l4 -4v-4q0 -12 -60 -12q-98 0 -196 68h-4q-178 -115 -396 -332
q-94 -98 -136 -164v-4h4q109 56 196 56h32q143 0 188 -112l4 -36v-4q0 -131 -204 -280q-125 -60 -236 -60h-12q-140 0 -180 100q-12 30 -12 64v12h-4l-92 -72h-12v8q128 127 128 168q42 147 176 300l36 36q-44 179 -44 260q172 643 172 888v72q52 40 72 40zM327 884
q0 -121 36 -172l348 284q-175 193 -248 484q-9 0 -32 -144l-96 -340zM143 180q0 -84 96 -84q124 0 256 148q32 54 32 80v36q0 48 -60 56h-4q-99 0 -296 -140q-17 -35 -24 -96z" />
    <glyph glyph-name="questiondown" unicode="&#xbf;" horiz-adv-x="1000" 
d="M280 1330h72q183 0 352 -192q70 -95 96 -280q0 -100 36 -100q166 -103 268 -196v-24q0 -9 -20 -12q-44 0 -272 80v-4q0 -342 -200 -528q-90 -68 -148 -68q-91 23 -140 88q-32 53 -32 100v8q0 132 128 276h-12q-208 0 -248 -68h-8q-41 0 -72 80h-4q-128 -62 -128 -176v-12
q0 -126 204 -400l4 -16l-8 -8q-143 71 -224 288q-28 106 -28 168q0 113 124 236q52 24 52 84q41 80 84 80h16q60 0 60 -52v-36q0 -60 -8 -96l4 -4q224 36 284 72l20 4q12 -15 12 -36v-24q0 -46 -108 -256l-12 -72v-20q0 -59 64 -104h4q87 0 160 180q52 289 52 356
q0 34 -144 136q-199 161 -344 308q-68 88 -68 128v16q0 75 132 96zM288 1206v-4q6 -90 360 -336l52 -44v8q0 106 -104 236q-159 140 -300 140h-8z" />
    <glyph glyph-name="Agrave" unicode="&#xc0;" horiz-adv-x="1069" 
d="M292 1208h96q180 0 348 -148q40 -47 40 -60l-4 -4h-4l-228 120q-118 48 -192 48q-132 0 -184 -148v-4l4 -20h4q0 66 144 88h8q293 0 444 -260q68 -120 68 -304v-8q152 -82 288 -204v-20q0 -6 -16 -12q-58 0 -292 92q-28 -115 -88 -224q-72 -124 -112 -124
q-55 -16 -100 -16q-101 0 -176 100q-114 -52 -176 -52h-36q-128 0 -128 100q0 56 72 296q100 -8 100 -24q-48 -140 -48 -188q0 -52 36 -52h12q29 0 224 76h48q14 0 28 -108q20 -36 44 -36h24q138 0 172 220l8 88l-332 268q-145 138 -188 200l-4 -12q-160 0 -160 80l-4 4
q44 139 144 200q78 47 116 48zM296 948q36 -76 288 -272l140 -108v4q-17 119 -96 224q-150 160 -316 160h-8z" />
    <glyph glyph-name="Aacute" unicode="&#xc1;" horiz-adv-x="1074" 
d="M548 1332h56q84 0 252 -128v-4l-8 -8q-179 88 -264 88q-28 -5 -28 -16v-4q308 -66 308 -216q0 -90 -132 -136l-32 12q136 -153 136 -404v-8q144 -78 288 -204v-20l-16 -12q-50 0 -288 88q-5 0 -40 -116q-108 -228 -164 -228q-55 -16 -100 -16q-101 0 -176 100
q-114 -52 -176 -52h-36q-128 0 -128 92v8q0 56 72 296q100 -8 100 -24q-48 -138 -48 -192q6 -52 44 -52q60 14 216 76l32 4h28q14 0 28 -108q20 -36 44 -36h24q138 0 172 220l8 88l-308 248q-171 155 -204 212q-53 0 -128 92q-24 39 -24 88q0 105 128 180q90 40 204 40
l104 -8q16 60 56 60zM140 1060q14 -74 32 -84q0 88 144 104h12q113 0 244 -60v4q-88 114 -88 180l-80 4h-72q-147 0 -188 -132zM564 1192v-4q34 -84 168 -192h4l20 20v44q0 92 -188 132h-4zM296 948q36 -76 288 -272l140 -108q0 103 -120 256q-148 132 -292 132h-8z" />
    <glyph glyph-name="Acircumflex" unicode="&#xc2;" horiz-adv-x="1000" 
d="M613 1540h16l8 -8l-224 -68q-172 -70 -172 -124v-4l4 -20h4q222 120 352 120h36q125 0 212 -128q201 208 396 208q160 -31 160 -160v-116q-64 -64 -80 -64q0 107 -72 192l-32 8h-24q-243 0 -468 -488q-52 -114 -76 -216l24 -96q52 20 108 20h8q129 0 156 -112v-4
q0 -98 -140 -212q-50 -32 -132 -56q0 -78 -112 -108q-253 -104 -464 -104q-124 5 -124 44q0 28 180 308q40 72 40 92q-18 52 -64 52h-20q-118 0 -272 -172q-13 -44 -20 -44h-4q-41 0 -52 84q162 138 260 172v4q-156 103 -156 284q0 229 312 448q-30 42 -32 76q0 90 204 164
q205 28 260 28zM329 1248q125 -76 372 -76h40v32q0 47 -112 112q-43 12 -72 12q-107 0 -228 -80zM-23 852q0 -174 156 -240q57 -28 108 -28h40q37 0 44 -72v-20l-224 -408q15 -12 28 -12h24q141 0 408 108l8 28h-4q-87 0 -124 84v20q0 56 64 148q30 266 108 448l60 136l-4 4
h-36q-218 0 -388 140h-8q-252 -191 -252 -292zM681 496v-76q0 -14 -32 -64l20 -60q168 80 168 180q0 45 -72 56q-31 -8 -84 -36zM541 328v-4q8 -18 16 -20v4l-8 20h-8z" />
    <glyph glyph-name="Atilde" unicode="&#xc3;" horiz-adv-x="1747" 
d="M1596 1448h20q28 -17 28 -52q-28 -124 -112 -124q-208 -163 -304 -312q-224 -316 -224 -348q-20 -62 -20 -112v-40q0 -136 76 -136h24q29 0 44 68q63 131 252 380q173 219 260 296q41 24 80 24h16q116 0 116 -112v-96q0 -90 -104 -336q32 -53 32 -80v-52q0 -130 -52 -220
l-4 -4h-4q-10 0 -12 16q32 172 32 232q-5 32 -16 32h-4q-38 -140 -124 -140q-66 0 -76 124v20q0 100 108 168l32 4l36 -24q64 157 64 256v16q0 53 -28 72h-8q-94 -2 -400 -408q-46 -58 -124 -184h8q67 32 108 32h16q48 0 48 -88q0 -69 -108 -124q-49 -92 -108 -92
q-74 0 -100 104l12 48q-85 0 -140 80q-9 -109 -120 -236q-115 -100 -200 -100q-137 0 -288 216q-30 16 -56 16q-32 0 -72 -88q-76 -120 -124 -120q-76 8 -76 72q0 44 68 96q178 156 252 156l36 -8l192 184q0 27 -36 80q45 112 60 112q53 -105 64 -112l496 460l408 356
q42 28 56 28zM864 704v-8q66 -45 88 -72q44 124 136 268v4h-4q-65 -49 -184 -164q-28 -28 -36 -28zM668 524q68 -151 68 -232q0 -112 -100 -148h-32q-132 37 -132 156l12 72q-44 -19 -88 -56l136 -200q34 -40 76 -40q85 0 188 160q76 184 76 312q0 76 -52 76
q-63 0 -152 -100zM1580 472q0 -76 44 -76q38 0 56 144q-17 40 -44 40h-8q-48 -32 -48 -108zM588 456q-76 -60 -76 -108q0 -61 88 -128h8q48 8 48 40v16q0 57 -68 180zM1124 220q0 -19 20 -40q40 0 80 64q0 21 56 56q13 0 24 20v4q-4 12 -24 12q-19 0 -136 -64zM112 132
l112 96h-4q-58 0 -108 -96z" />
    <glyph glyph-name="Adieresis" unicode="&#xc4;" horiz-adv-x="800" 
d="M612 1552h48q81 0 172 -144q104 -223 104 -328v-40l-8 -8h-4q-15 7 -84 200q-123 244 -192 244q-40 -16 -40 -64q99 -45 160 -188q40 -149 40 -308q0 -466 -192 -732q-62 -64 -148 -64q-146 -22 -192 -68l-52 -52h-4q-32 0 -32 32v8q0 50 120 320l4 24l-12 4
q-53 0 -168 -204l-60 -80h-8q-64 9 -64 48v4q0 51 116 176q16 63 16 112v4l-4 40q45 46 80 48q44 -4 44 -36v-40q0 -8 12 -8l80 4q100 -8 100 -60v-20q0 -59 -76 -160h4q83 48 100 48h40q103 0 184 448l12 152q0 260 -132 408l-28 20h-8l-92 -192q-135 -238 -224 -252h-16
q-70 0 -84 172q0 212 204 364q92 52 160 52q73 116 124 116zM212 1028q4 -96 20 -96h4q35 13 176 336l4 4v8q-204 -113 -204 -252z" />
    <glyph glyph-name="Aring" unicode="&#xc5;" horiz-adv-x="1192" 
d="M700 1612h72q86 0 160 -152q31 -115 64 -344q60 -237 128 -364q41 -90 168 -212l48 -40v-24l-8 -8h-12q-98 35 -228 160q-181 202 -236 472q-58 286 -116 376q-28 20 -56 20q-116 0 -236 -148q-28 -42 -28 -68q25 -145 340 -500q40 -55 40 -84q0 -118 -108 -392
q-92 -176 -176 -176q-195 -28 -240 -76l-52 -52h-4q-32 0 -32 32q0 59 120 328l4 24l-12 4q-53 0 -176 -216l-52 -68h-8q-64 9 -64 48v4q0 50 116 176q16 63 16 112v20l-4 16q37 56 80 56q44 -4 44 -36v-40l8 -8l84 4q104 0 104 -72q0 -58 -76 -164v-4h4q79 48 96 48h36
q72 0 128 184q48 116 48 196q0 68 -64 128q-288 310 -288 496q0 174 228 300q100 44 140 44z" />
    <glyph glyph-name="AE" unicode="&#xc6;" horiz-adv-x="1258" 
d="M856 839h112q118 0 212 -88q36 -49 36 -100v-4q0 -150 -252 -252l-184 -48h-20q-52 6 -52 48v28q0 98 188 256l24 8h28q24 -11 24 -28q0 -21 -88 -100q-64 -74 -64 -96q0 -20 24 -20h52q189 0 244 204l4 20q0 85 -160 108q-21 8 -84 8q-437 0 -704 -360
q-56 -146 -56 -220q0 -188 244 -236q74 -12 144 -12h36q239 0 652 92q21 0 28 -332v-76q0 -155 -40 -624q0 -24 56 -120l8 -52v-60q-8 -88 -24 -88q-131 50 -212 196q-44 288 -148 288q-34 0 -232 -76q-90 -32 -180 -32h-32q-220 0 -364 164q-24 64 -24 124q0 191 672 432h4
v-4q0 -27 -64 -108q0 -24 -32 -24q-212 -55 -436 -236q0 -17 -48 -84q-12 -19 -12 -52v-4q0 -78 188 -92h32q177 0 372 88q37 33 124 48q123 0 212 -220q17 0 40 260q12 128 16 372l-4 164l-4 4q-276 -100 -632 -100q-365 0 -460 252q-20 62 -20 124v8q0 237 256 444
q130 92 352 164q154 44 248 44z" />
    <glyph glyph-name="Ccedilla" unicode="&#xc7;" horiz-adv-x="890" 
d="M388 1572h68q65 0 236 -144q35 68 88 68q98 0 216 -152l116 -216v-16l-8 -8q-224 276 -308 276h-12q-24 -2 -24 -12q272 -219 272 -404q0 -155 -172 -212l-56 -8h-20q-56 0 -56 56q-116 156 -116 368v12q0 88 24 152q-144 84 -252 120h-32q-93 0 -124 -164l-4 -24
q0 -120 228 -268q161 -117 204 -176l12 -132q0 -240 -68 -408q-62 -96 -112 -96q-178 -64 -220 -164l-16 -20h-8q-36 0 -36 60l44 308v24l-4 4v4q-55 0 -156 -324q-14 -12 -32 -12q-60 5 -60 48v4q0 62 72 172v68q0 33 -20 100q32 64 80 64h4q34 0 44 -68h4l116 24h24
q64 0 64 -84q0 -40 -40 -148q77 80 132 80q64 42 64 144q20 81 20 188q0 127 -72 168q-193 129 -340 276q-56 74 -56 156q0 179 228 304zM720 1268l-4 -44q0 -148 104 -360q44 0 80 128v28q0 125 -176 252z" />
    <glyph glyph-name="Egrave" unicode="&#xc8;" horiz-adv-x="754" 
d="M664 1484h72q118 0 200 -144q12 -65 12 -120q0 -221 -88 -452l-248 -556h-8q-10 0 -12 36q0 100 200 628q44 142 44 228v40q0 162 -112 216q-54 20 -88 20q-218 0 -540 -348q-36 -60 -36 -112v-40q0 -173 200 -236h8q138 60 204 60q84 0 96 -84v-16q0 -86 -88 -148
l-324 -332l-4 -28q0 -21 52 -24q128 0 340 44q76 -21 76 -88v-16q0 -50 -64 -200q-36 -108 -36 -180q0 -139 108 -216q112 -44 188 -44q113 0 212 104h28l12 -12v-32q-115 -100 -264 -136q-55 -12 -112 -12h-4q-233 0 -312 200q-16 47 -16 96v16q0 121 116 424h-8
q-126 -32 -236 -32h-8q-175 0 -184 36l-12 60q0 126 324 332q88 77 88 128v24q0 32 -44 32h-4q0 -40 -152 -52q-144 -76 -144 -132v-4l32 -120l-96 -84h-4q-48 82 -48 156q0 149 120 200l20 16q-99 46 -148 172q-24 72 -24 124q0 268 424 516q195 92 292 92z" />
    <glyph glyph-name="Eacute" unicode="&#xc9;" horiz-adv-x="1017" 
d="M781 984h48q100 0 176 -368q16 -94 16 -156v-120l-12 -12q-13 0 -44 196q-56 242 -116 332q-40 40 -52 40q-35 -12 -84 -76v-4q83 -106 160 -264q132 -294 132 -508q0 -60 -40 -60l-32 -4q-147 0 -432 100q-152 -159 -292 -196q-41 -16 -72 -16h-16q-111 0 -136 100
l-4 32q0 181 164 256q50 16 84 16h36q69 0 228 -84h4q124 191 124 320q0 19 -40 28q-67 0 -104 -168l-4 -4h-4q-48 35 -48 84q0 94 164 168l48 8h24q55 0 68 -120q0 -131 -156 -344v-8q206 -80 324 -80l4 4v8q-20 234 -284 684h-4q-142 -124 -220 -124h-4q-99 0 -132 76
q-8 16 -8 44q0 151 264 212q47 -6 132 -76h4q94 84 136 84zM353 736h16q75 11 196 100v4q-6 16 -28 16h-28q-69 0 -152 -100zM81 44q0 -89 88 -100q82 0 212 104q52 44 52 60q-182 76 -208 76q-109 0 -140 -116z" />
    <glyph glyph-name="Ecircumflex" unicode="&#xca;" horiz-adv-x="1200" 
d="M692 1912h40q25 0 56 -236q36 -208 84 -380h4q197 220 408 220q67 0 132 -76q24 -47 24 -84v-116q-21 -26 -76 -64q-5 0 -20 96q-34 104 -88 104h-24q-149 0 -300 -196q39 -95 200 -204q104 -52 144 -52l4 -4v-4q0 -9 -56 -12q-177 0 -340 212q-125 -189 -196 -444
q28 -78 28 -244v-8q0 -14 -32 -64q28 -87 28 -140q0 -83 -112 -112q-251 -104 -464 -104q-124 4 -124 44q0 28 180 308q40 72 40 92q-19 52 -64 52h-20q-119 0 -272 -172q-11 -44 -20 -44h-4q-52 15 -52 84q239 216 476 216q84 0 84 -64v-24l-224 -408q15 -12 28 -12h24
q141 0 408 108l8 32v36q0 78 -52 96q-10 27 -16 76q20 150 20 200q-66 0 -80 160q-12 45 -16 132q172 670 172 872v48l-4 40zM704 1516q-55 -303 -104 -412q-24 -91 -24 -152v-56q0 -62 20 -124q7 0 44 120q78 191 180 336q-56 102 -112 288h-4z" />
    <glyph glyph-name="Edieresis" unicode="&#xcb;" horiz-adv-x="1536" 
d="M209 593q111 0 220 -116h4q198 104 336 104q56 0 144 -68q27 -12 48 -40v-4q0 -20 -36 -60v-4l116 32q80 -6 80 -72l-152 -296q42 -80 144 -80q86 0 160 48q12 21 12 40v28q-4 60 -16 60q-92 -108 -148 -108q-60 0 -60 96v8q15 132 84 132h4q25 -1 92 -44v4
q-64 166 -64 240v8q19 88 128 88q176 -30 176 -116v-24q0 -45 -108 -192l-4 -28q0 -35 144 -140l76 -76v-4l-8 -8h-4l-180 120h-4v-8q0 -114 -100 -160q-134 -48 -252 -48h-12q-146 0 -184 100l-4 24v8q180 289 180 312v4q-14 12 -32 12q-39 0 -280 -100h-4v-4
q160 -48 160 -104v-8q0 -55 -100 -120q-57 -20 -104 -20q-101 0 -272 72q-19 0 -212 -112q-19 -12 -52 -12h-36q-72 0 -72 100t260 320l28 20q-50 100 -112 100q-104 -22 -104 -72l-4 -24q0 -50 44 -152l-4 -4h-16q-81 0 -124 148l-4 36v8q0 105 140 156h88zM509 393v-4
q48 -76 168 -116l-4 20v4q0 29 124 96l16 16q-65 96 -112 96q-44 0 -172 -108zM1277 477q0 -48 56 -148q40 30 40 92v16q0 64 -64 64h-4q-20 0 -28 -24zM149 101v-16h12q54 0 156 112q36 16 64 16h4q59 0 152 -80q71 -40 124 -40q56 5 56 40v8q0 18 -104 32
q-150 44 -220 144l-20 40q-172 -124 -224 -256zM1117 157v-8q0 -8 12 -8q32 12 88 76v4l-60 16q-40 0 -40 -80z" />
    <glyph glyph-name="Igrave" unicode="&#xcc;" horiz-adv-x="657" 
 />
    <glyph glyph-name="Iacute" unicode="&#xcd;" horiz-adv-x="657" 
d="M937 1812h16l8 -8l-224 -72q-172 -61 -172 -120v-16l8 -8q222 120 352 120h36q135 0 212 -132q16 -63 16 -100q-13 -136 -68 -136q-54 -20 -112 -20h-52q-219 0 -388 140h-8q-240 -192 -240 -248q-9 0 -20 -92q0 -202 232 -264h16q322 254 584 432q645 392 716 392h4
q24 0 44 -28v-64q0 -86 -164 -112q-98 0 -148 -44q-535 -309 -908 -576q-40 -33 -56 -60q-61 -15 -284 -248l-84 -112v-4h4q109 56 196 56h40q130 0 180 -112l4 -36q0 -136 -204 -284q-126 -60 -236 -60h-12q-140 0 -180 100q-12 32 -12 60v16h-4l-92 -72h-12v8
q132 130 132 180q37 133 188 308l208 180q-84 0 -188 104q-72 111 -72 220q0 224 312 444q-32 44 -32 76q0 96 220 168zM653 1520q124 -76 372 -76h44q0 101 -144 152l-48 4q-100 0 -224 -80zM153 176q9 -84 84 -84h4q140 0 264 152q32 45 32 76v28q0 64 -60 64h-4
q-90 0 -296 -136q-24 -73 -24 -100z" />
    <glyph glyph-name="Icircumflex" unicode="&#xce;" horiz-adv-x="1500" 
d="M803 1162h96q93 0 228 -60q77 -33 160 -140v-4q0 -8 -12 -8q-292 168 -404 168h-12q-133 0 -184 -144v-12l4 -20h4q0 78 144 96h8q339 0 480 -328q36 -109 36 -240q152 -87 288 -204v-20l-12 -12q-59 0 -296 88h-4q-26 -151 -160 -328q-64 -32 -136 -32q-102 0 -180 100
q-110 -52 -172 -52h-40q-140 0 -188 116l-20 24q-187 -138 -284 -160q-152 25 -152 136q0 134 200 328q80 56 140 56q70 -41 164 -196q13 0 212 196l16 44q-10 32 -24 32q-76 -22 -76 -140l-84 -84q-19 10 -24 112q0 168 260 208q84 -13 84 -84v-12q0 -121 -280 -336
q22 -128 68 -128h8q55 0 228 88l44 8h16q28 0 28 -52q0 -82 60 -96q159 0 192 224l8 84q-37 37 -308 248q-182 165 -212 224h-4l-4 -20l-20 4h-32q-112 10 -112 76v4q0 73 124 188q77 53 136 60zM811 914v-16q50 -72 184 -180l240 -188h4q-10 127 -144 276
q-154 112 -268 112zM115 162q0 -46 84 -64q84 28 172 104q-100 156 -108 156l-16 4q-81 -38 -132 -180v-20z" />
    <glyph glyph-name="Idieresis" unicode="&#xcf;" horiz-adv-x="657" 
 />
    <glyph glyph-name="Eth" unicode="&#xd0;" horiz-adv-x="1518" 
d="M1034 1250h56q82 0 252 -128v-4l-8 -8q-181 88 -256 88h-8l-28 -8v-12q308 -64 308 -220q-23 -105 -128 -128v-8q96 -140 96 -356q192 -114 288 -204v-20q0 -12 -16 -12q-50 0 -292 88h-4q-26 -151 -160 -328q-64 -32 -136 -32q-102 0 -180 100q-118 -56 -200 -56
q-78 0 -160 52l-60 92q-190 -139 -284 -160q-152 25 -152 136v8q0 115 180 300q86 76 156 76q43 0 168 -196q17 6 184 168q31 19 44 76q-8 28 -24 28q-76 -30 -76 -112q0 -39 -36 -60q0 -9 -48 -52q-16 0 -24 108q0 175 260 212q84 -12 84 -84q0 -137 -280 -348
q22 -128 68 -128h12q49 0 224 88l44 8h28q12 0 24 -104q20 -40 44 -40h28q131 0 168 204l12 100q-38 38 -332 268l-164 164l-8 -8q-53 0 -128 84q-27 41 -28 72v28q0 123 164 192q84 24 168 24l104 -8q16 60 56 60zM626 974q0 -39 32 -84v4l-8 48q26 92 148 92h12
q93 0 208 -40q-43 75 -48 128l-68 4h-88q-159 0 -188 -152zM1050 1110v-4q14 -62 168 -192h4q20 10 20 32v32q0 94 -192 132zM778 910v-4q0 -46 268 -260l156 -120v4q0 123 -144 276q-149 108 -268 108zM82 170v-12q0 -46 84 -64q68 22 172 100v4l-96 148q-15 12 -28 12
q-80 -38 -128 -172z" />
    <glyph glyph-name="Ntilde" unicode="&#xd1;" horiz-adv-x="1422" 
d="M836 1479h68q88 0 160 -152q28 -78 48 -260q56 -267 120 -400q55 -122 156 -228l84 -72v-28l-4 -4v-4q-85 14 -244 164q-181 157 -284 684q-49 184 -116 184h-12q-99 0 -220 -132q-44 -55 -44 -108q0 -157 204 -388q216 -384 216 -668v-4q0 -60 -56 -60h-16
q-148 0 -432 100q-121 -149 -336 -208l-36 -4h-8q-110 0 -136 100l-4 32q0 100 64 188q87 84 196 84h12q90 0 244 -88q124 194 124 328q-6 20 -40 20h-8q-57 0 -96 -164l-4 -4h-4q-48 37 -48 84q0 82 144 160q47 16 72 16h12q61 0 76 -108v-12q0 -136 -156 -344v-8
q206 -80 324 -80l4 4v20q-29 238 -280 664q-152 157 -152 288v20q0 152 192 300q141 88 216 88zM44 63q0 -85 88 -96q98 0 252 140l12 16v4q0 9 -188 76l-24 4q-117 0 -140 -144z" />
    <glyph glyph-name="Ograve" unicode="&#xd2;" horiz-adv-x="1003" 
d="M508 1472h56q88 0 252 -128v-8l-188 72l-76 12q-31 0 -36 -16q308 -72 308 -216v-16q0 -60 -96 -112l-24 -8h-12q-22 0 -104 56v-4q108 -222 108 -416q195 -154 412 -380v-20l-8 -8h-4q-52 0 -404 260h-4q-114 -540 -428 -540h-12q-139 0 -228 92q-20 36 -20 84
q0 192 160 328q53 32 96 32h16q64 -2 64 -44q-25 -72 -44 -72q-112 0 -172 -168q-8 -16 -8 -44v-12q77 -72 188 -72v-4q185 0 252 280q16 73 16 136v40l-140 100q-188 164 -228 268q-20 35 -32 76q-152 52 -152 180q0 117 152 192q96 28 176 28l112 -8q11 60 52 60z
M100 1200q0 -60 60 -120q0 146 164 200l44 4q52 0 108 -40v4q-28 59 -28 96l-80 4h-76q-147 0 -188 -132zM524 1328q11 -51 160 -184l12 -8h4q14 0 20 44v12q0 102 -192 140zM276 1080q19 -116 256 -284v4q-49 185 -100 264q-54 72 -68 72q-88 -9 -88 -56z" />
    <glyph glyph-name="Oacute" unicode="&#xd3;" horiz-adv-x="1027" 
d="M288 1348h100q149 0 316 -120q54 -55 68 -80v-4q0 -8 -12 -8q-286 168 -408 168h-8q-134 0 -184 -148v-12l8 -8q0 67 124 132q33 16 76 16q177 0 288 -356q40 -117 40 -240q229 -186 412 -380v-20q0 -8 -12 -8q-52 0 -404 260h-4q-109 -540 -440 -540q-139 0 -228 92
q-20 39 -20 84q0 192 160 328q50 32 96 32h16q64 -2 64 -44q-25 -72 -44 -72q-124 0 -180 -196v-28q86 -72 168 -72h16l4 -4q220 0 268 384v80q-85 33 -252 196q-118 133 -148 240h-32q-86 0 -108 72v12q54 154 168 212q70 32 92 32zM276 1080q0 -94 256 -284v4
q-68 271 -168 336q-77 0 -88 -56z" />
    <glyph glyph-name="Ocircumflex" unicode="&#xd4;" horiz-adv-x="800" 
d="M907 1692h12l8 -8l-236 -72q-160 -68 -160 -120v-16l8 -8q222 120 352 120h36q104 0 192 -96h4q78 24 132 24h4q107 0 156 -124l4 -36v-116q-21 -26 -76 -64q-5 0 -20 96q-35 104 -84 104h-32q-56 0 -56 -16v-16q0 -113 -80 -132l-128 -16l-12 4q-11 0 -64 -80
q-103 -150 -184 -384l-16 -64q28 -78 28 -244v-8q0 -12 -32 -64q28 -87 28 -140q0 -83 -112 -112q-253 -104 -464 -104q-101 0 -124 40v4q0 29 180 308q40 75 40 92q-18 52 -64 52h-20q-119 0 -272 -172q-11 -44 -20 -44h-12q-44 27 -44 84q236 216 480 216q80 0 80 -68v-20
l-224 -408q15 -12 28 -12h24q141 0 408 108q8 11 8 48h4q-9 108 -48 108q-20 28 -20 52v48q0 73 32 224l-4 4l-88 -12q-206 0 -284 224q-16 54 -16 108q0 214 312 444q-32 33 -32 72q0 90 204 164q205 28 264 28zM615 1396q165 -68 264 -68q67 62 108 88v4q-54 60 -140 60
q-102 0 -232 -80v-4zM267 1000q0 -196 216 -260l44 -4h36q8 0 44 124q80 205 176 348l4 4l-4 4q-152 39 -252 124h-4q-95 -66 -224 -208q-36 -73 -36 -132z" />
    <glyph glyph-name="Otilde" unicode="&#xd5;" horiz-adv-x="1064" 
d="M214 689h64q41 0 56 -72v-4q0 -44 -96 -268q-44 -121 -44 -172v-28q6 -40 36 -40h16q139 0 316 360q55 116 116 116q38 0 64 -64l-8 -92q0 -164 104 -276l48 -8q80 0 188 72h24l12 -12v-28q-144 -148 -328 -148q-160 39 -160 232v76l-4 40h-4q-38 -110 -244 -308
q-97 -56 -164 -56h-24q-102 0 -128 120l-4 48q0 121 164 388v8l-36 16q-150 0 -196 -148l-16 -108l4 -20v-8q0 -58 36 -284v-8l-8 -8q-88 96 -88 276v4q0 288 216 384q61 20 88 20z" />
    <glyph glyph-name="Odieresis" unicode="&#xd6;" horiz-adv-x="1309" 
d="M771 1345h80q94 0 220 -176l28 -32q47 48 84 48q90 0 188 -188l64 -244v-20l-8 -8q-82 159 -156 276q-60 68 -100 68h-8l-8 -8q176 -238 176 -392q0 -140 -124 -208q-36 -16 -112 -24q-108 11 -108 52l4 20q-48 102 -48 240q0 172 80 308q-200 180 -248 180h-28
q-90 0 -144 -168v-20q16 -115 148 -276q106 -130 196 -372q68 -198 68 -324v-60q0 -36 -64 -36h-8q-155 0 -424 100l-116 -104q-169 -106 -256 -108h-16q-111 0 -136 100l-4 32q0 200 192 264l60 8h20q85 0 240 -84h4q68 81 112 236q12 39 12 72v20q0 10 -32 16h-16
q-55 0 -96 -164l-4 -4h-4q-44 33 -44 72v20q0 87 164 160l48 8h12q57 0 76 -96v-40q0 -113 -156 -332l4 -4q200 -80 320 -80l8 16q0 147 -240 604q-28 51 -104 136q-92 123 -92 200v28q0 150 184 252q68 36 112 36zM1063 813v-16q0 -96 28 -240q72 0 116 136l4 40
q0 110 -116 244q-32 -51 -32 -164zM95 25q0 -67 84 -80q102 0 256 144l12 16v4q-191 76 -212 76q-108 0 -140 -116v-44z" />
    <glyph glyph-name="multiply" unicode="&#xd7;" horiz-adv-x="1202" 
d="M1076 701h52q66 0 76 -84v-4q0 -91 -80 -148l-328 -336l-8 -24q0 -32 56 -32q111 0 352 72q20 -6 20 -28q0 -41 -212 -216q271 -56 332 -100q104 -77 104 -136v-52q0 -81 -140 -164q-91 -48 -196 -48h-4q-149 0 -244 72l-4 4v16l16 16q110 -28 248 -28h12q168 0 196 96
v16q0 93 -384 268q-20 23 -20 40q0 16 76 96v4q-75 -12 -132 -12q-188 0 -188 40q-12 28 -12 56q0 122 260 288q152 103 152 184v12q0 32 -36 32h-16q-102 0 -256 -124l16 -16l12 8q9 0 12 -20q0 -21 -44 -136q0 -26 -24 -36q0 -20 -76 -68l-4 4q-7 0 -8 20l-4 4h-4
q-197 -320 -400 -320q-83 0 -120 72q-20 39 -20 100q0 124 172 400v4l-32 20q-141 0 -196 -132q-16 -57 -20 -128q8 -106 40 -312v-4l-8 -8q-88 92 -88 268v4q0 302 220 392q60 24 128 24h12q44 0 64 -72v-8q-20 -116 -40 -116q-108 -265 -108 -336v-28q0 -40 48 -44
q148 0 320 372q0 78 52 136q216 144 408 180z" />
    <glyph glyph-name="Oslash" unicode="&#xd8;" horiz-adv-x="1663" 
d="M1595 697q63 0 76 -80v-8q0 -91 -80 -148l-328 -336l-8 -24q0 -32 56 -32q111 0 352 72q20 -8 20 -24q0 -47 -212 -220q277 -57 336 -104q100 -72 100 -132v-52q0 -81 -140 -164q-93 -48 -196 -48h-4q-237 19 -252 92l20 16q110 -28 244 -28h16q166 0 196 96v16
q0 93 -384 268q-20 23 -20 40q0 18 76 96v4q-75 -12 -132 -12q-192 0 -192 44l-8 56q0 118 260 284q152 103 152 184v12q0 32 -36 32h-24q-111 -4 -276 -148l-8 -40l32 -116l-100 -88q-48 82 -48 152v44q-10 0 -52 64q-48 48 -72 48h-16q-40 0 -164 -104q-20 -3 -20 -12
q62 -82 148 -104q208 -73 208 -124v-8q-46 -140 -184 -140h-40q-102 0 -248 72q-23 0 -216 -116q-31 -12 -56 -12h-20q-84 0 -84 92v12q0 82 200 268q84 69 84 76q-47 92 -104 92h-16q-84 -19 -84 -56q48 -20 48 -80q0 -23 -24 -88l8 -20l-20 -8q-50 0 -112 96h-4
q-157 0 -200 -148q-12 -37 -12 -84v-24l-4 -4l4 -4v-20q0 -58 36 -284v-8l-8 -8q-88 98 -88 268v8q0 296 216 388q44 7 44 32q0 81 128 140l64 8q144 0 256 -120h4q132 79 328 104q63 0 136 -60h8q112 81 368 164h72zM619 369q-206 -175 -224 -264l4 -12h12q48 0 156 112
q27 16 48 16h36q38 0 140 -80q73 -40 116 -40q60 0 60 52q-8 15 -128 36q-155 57 -204 152q-8 28 -16 28z" />
    <glyph glyph-name="Ugrave" unicode="&#xd9;" horiz-adv-x="1079" 
d="M591 1279h96q191 0 360 -260q80 -175 80 -344v-112l-8 -8h-12q-20 0 -72 264q-126 372 -412 372q-145 0 -236 -112v-4q362 0 492 -384q20 -89 20 -164v-40q0 -228 -160 -456q-74 -36 -144 -36q-100 0 -168 92q-160 -80 -212 -80q-123 21 -184 80q-28 42 -28 92
q0 105 56 140q43 50 208 176l40 68l-4 12q-113 -128 -240 -128q-104 0 -104 72q0 85 140 180q70 28 116 28q106 0 196 -100l4 -28q0 -88 -144 -248l-136 -116q28 -104 88 -104q52 0 228 104q31 12 56 12h16q12 0 28 -100q26 -40 36 -40h28q176 0 176 356v68q0 117 -104 264
q-145 156 -352 156h-8q-56 -146 -136 -188q-74 -52 -144 -52h-24q-96 0 -112 92v4q0 186 372 264q53 123 212 188q56 20 96 20zM-1 831q0 -40 44 -40q79 0 184 144v8q-228 -60 -228 -112zM47 543q6 -20 28 -20h16q73 0 132 100v12q0 14 -48 24q-28 -6 -120 -72z" />
    <glyph glyph-name="Uacute" unicode="&#xda;" horiz-adv-x="947" 
d="M459 1508h56q78 0 224 -108q28 -14 28 -20v-4l-8 -8q-180 88 -264 88q-28 -5 -28 -16v-4q308 -65 308 -220q0 -70 -116 -132q48 -66 76 -296q0 -32 44 -48q181 -115 252 -192v-20l-8 -8h-16q-53 0 -264 76h-4v-8q0 -329 -192 -516q-73 -62 -148 -76q-180 52 -180 196
q0 126 128 276h-44q-169 0 -216 -68h-4q-66 0 -92 176v4q0 121 104 148q37 0 64 -32v-96l-4 -60q91 0 304 72q10 0 16 -48q0 -54 -108 -260q-16 -49 -16 -84q0 -69 60 -116h20q65 0 136 144q25 36 64 376v16q0 25 -168 160q-98 63 -320 284h-4q0 -28 -24 -28
q-148 57 -148 172v4q0 124 152 196q95 28 176 28l108 -8q16 60 56 60zM51 1232q36 -132 80 -132q-56 73 -56 128q0 48 84 84q32 12 68 12h40q62 0 152 -32v4l-24 84l-88 4h-64q-148 0 -188 -132zM475 1368v-4q33 -84 168 -192h4q20 10 20 32v32q0 93 -192 132zM219 1200
l-4 -4v-4q24 -101 332 -312l80 -64v8q0 104 -104 236q-165 140 -304 140z" />
    <glyph glyph-name="Ucircumflex" unicode="&#xdb;" horiz-adv-x="1501" 
d="M904 1400h68q98 0 168 -176q24 -86 44 -260q52 -237 116 -376q67 -162 224 -284q16 -6 16 -28v-16l-4 -4v-4q-146 42 -308 236q-127 193 -156 352q-69 281 -104 376q-27 68 -84 68q-112 0 -232 -144q-36 -54 -36 -96q0 -194 284 -460q104 -141 104 -248q0 -185 -284 -296
q-105 -40 -176 -40h-8q-101 0 -148 84q-16 45 -16 96v12q0 119 92 284l4 28q0 20 -16 20q-26 -7 -100 -120q-49 -52 -84 -52q-56 0 -72 256l-24 4q-120 -63 -120 -176q0 -140 224 -396l12 -20v-4q0 -8 -12 -8q-104 42 -196 184q-80 164 -80 260q0 144 144 264q48 32 64 32
h24q76 0 76 -112l4 -124l8 -16q31 0 128 116q31 28 60 28h4q66 0 76 -64v-24q0 -65 -92 -300l-4 -32q0 -68 68 -132h52q189 0 308 148q12 28 16 76q0 160 -212 316q-228 200 -228 380q0 155 192 304q124 80 216 88z" />
    <glyph glyph-name="Udieresis" unicode="&#xdc;" horiz-adv-x="876" 
d="M509 1144h56q119 0 256 -112q112 -189 112 -356v-92q0 -31 -16 -36h-4q-13 0 -48 168q-103 344 -320 344q-77 0 -108 -48q159 0 252 -152q36 -94 36 -172q0 -208 -180 -540q-127 -148 -308 -148h-8q-152 0 -152 36q-32 34 -32 68v32q0 92 148 164q50 16 84 16h8
q24 -17 24 -36q-24 -72 -44 -72q-73 -1 -84 -28v-20q19 -84 92 -84h16q92 0 196 188q112 231 112 360q0 207 -184 260l-40 4h-20q-59 -110 -172 -236q-174 -172 -292 -172q-68 17 -68 68q0 203 352 408l112 40q99 148 224 148zM-19 656q0 -32 32 -36q51 8 168 188l40 56h-4
q-176 -75 -236 -200v-8z" />
    <glyph glyph-name="Yacute" unicode="&#xdd;" horiz-adv-x="970" 
d="M194 1440h108q156 0 328 -140l48 -60v-4l-8 -8l-208 108q-123 60 -208 60q-132 0 -184 -132l-4 -20v-4l12 -40h4q0 84 56 100q35 28 116 28q238 0 404 -228q76 -143 76 -276q8 -60 16 -60q159 -95 288 -208v-24q0 -7 -20 -12q-43 0 -272 80v-4q0 -373 -236 -556
q-64 -33 -108 -40q-89 21 -148 92q-28 58 -28 104q0 134 128 276h-36q-179 0 -224 -68q-69 0 -92 144l-4 36v8q0 105 92 136h16q60 0 60 -64v-24q0 -60 -8 -96h4q94 0 304 72q12 -15 12 -36v-20q0 -51 -108 -260l-12 -72v-8q0 -64 56 -112h24q73 0 144 168q20 52 56 356v16
q-20 36 -28 36q-265 206 -460 400l-52 72l4 -28v-12l-4 -4v-4l-20 4h-40q-104 10 -104 84q41 128 124 180q59 50 136 64zM222 1200v-4q10 -94 360 -336l52 -44v8q0 112 -112 244q-161 132 -284 132h-16z" />
    <glyph glyph-name="Thorn" unicode="&#xde;" horiz-adv-x="600" 
d="M450 716h60q52 0 68 -80v-8q0 -91 -80 -148l-332 -340l-4 -28q0 -17 56 -24q111 0 352 72q20 -6 20 -28q0 -41 -212 -216q269 -54 336 -104q100 -72 100 -132v-52q0 -82 -140 -164q-90 -48 -196 -48h-12q-131 0 -232 68l-8 12v12l16 16q110 -28 244 -28h16q166 0 196 96
v8q0 103 -388 280q-16 22 -16 40q0 9 76 92v4q-75 -12 -132 -12q-188 0 -188 40q-12 28 -12 56q0 120 244 276q168 111 168 196v12q0 32 -40 32h-12q-114 0 -284 -148l-8 -36l32 -124q-94 -84 -104 -84q-44 102 -44 156v12q0 146 144 200q204 110 316 124z" />
    <glyph glyph-name="germandbls" unicode="&#xdf;" horiz-adv-x="900" 
d="M956 1809h92q81 0 176 -112q24 -57 24 -116v-56q0 -63 -16 -184h4q540 324 608 324q24 0 44 -28v-64q0 -93 -192 -116q-77 0 -132 -48q-347 -203 -368 -224q-43 -111 -280 -640l-8 -8h-4l-8 8v52q0 73 160 504h-4q-270 -160 -596 -436q-171 -174 -212 -244v-4h4
q110 56 196 56h32q147 0 188 -116l4 -44q0 -108 -180 -256q-127 -76 -260 -76h-8q-142 0 -180 92q-16 33 -16 68v16h-4l-92 -72h-12v8q132 130 132 180q29 126 204 324l332 280h-24q-221 0 -296 224q-16 70 -16 104q0 236 356 472q214 123 352 132zM360 1237v-28
q0 -183 216 -244l56 -8l40 4l8 -8h4q211 163 428 312q28 111 28 188q0 174 -100 220q-43 32 -104 32q-216 0 -540 -348q-36 -58 -36 -120zM144 161q0 -84 96 -84q123 0 256 148q32 54 32 80v36q0 48 -60 56h-4q-99 0 -296 -140q-17 -35 -24 -96z" />
    <glyph glyph-name="agrave" unicode="&#xe0;" horiz-adv-x="777" 
d="M516 1452h88q94 0 220 -176l28 -32q47 48 84 48q90 0 188 -188l64 -244v-20l-8 -8q-82 159 -156 276q-60 68 -100 68h-8l-8 -8q176 -238 176 -392q0 -140 -124 -208q-38 -16 -108 -24q-109 0 -132 88q-28 105 -28 196q0 190 84 336q-199 180 -248 180h-28
q-82 0 -136 -144l-4 -40q0 -121 140 -172q71 -19 140 -116q40 -92 40 -164v-40q0 -183 -172 -512q-125 -156 -324 -156h-4q-133 0 -152 40q-28 34 -28 80q0 136 196 192l40 4h4q24 -14 24 -36v-4q-20 -68 -48 -68q-80 0 -80 -44q0 -60 80 -88h24q98 0 200 184
q112 229 112 352v16q0 184 -160 252q-164 126 -164 264v16q0 176 228 276zM816 920v-16q0 -93 28 -240q78 0 120 152v16q0 121 -116 252q-32 -51 -32 -164z" />
    <glyph glyph-name="aacute" unicode="&#xe1;" horiz-adv-x="1100" 
d="M636 1600h64q111 0 168 -212q28 -225 88 -416q96 -254 212 -340l52 -48v-20l-8 -8h-8q-212 86 -348 340q-63 153 -136 476q-38 116 -80 116h-8q-103 0 -224 -156q-48 -83 -48 -172q0 -128 152 -176q168 -84 168 -288v-12q0 -213 -180 -536q-123 -148 -308 -148h-12
q-133 0 -152 40q-28 37 -28 80q0 136 196 192l40 4h4q24 -14 24 -36v-4q-20 -68 -48 -68q-80 0 -80 -40q17 -92 92 -92h8q107 0 212 200q104 220 104 340v8q0 186 -160 256q-160 118 -160 260v16q0 190 216 368q126 76 188 76z" />
    <glyph glyph-name="acircumflex" unicode="&#xe2;" horiz-adv-x="1300" 
d="M728 1076h64q77 0 184 -44q206 44 264 44h36q69 0 156 -136q68 -161 68 -308v-160q0 -121 -32 -152h-4q-20 0 -20 148q-24 216 -56 320q-46 135 -108 184l-40 4l-140 -24q168 -170 168 -416q0 -267 -188 -508q-71 -28 -132 -28h-8q-91 0 -172 100q-120 -56 -200 -56
t-160 52q-29 56 -64 88q-191 -142 -280 -160q-152 29 -152 128v16q0 101 152 276q100 100 176 100h8q46 -2 160 -184l12 -12q216 196 216 220l8 24q-6 28 -24 28q-65 0 -76 -128q0 -16 -84 -92h-8q-16 70 -16 104q0 142 176 200l76 12h16q76 0 76 -92q0 -123 -292 -352
q20 -116 76 -116q72 0 228 88l60 12h24q12 0 24 -104q20 -40 44 -40h28q184 0 184 428q0 188 -184 336l-16 4q-332 -112 -484 -112q-188 18 -188 88v16q0 86 340 188zM404 880q0 -16 104 -24q124 0 356 72v8q-100 28 -164 28h-20q-146 0 -272 -76l-4 -4v-4zM32 216v-12
q0 -57 88 -72q95 42 168 104v4q-32 39 -92 140l-20 16h-8q-61 0 -136 -180z" />
    <glyph glyph-name="atilde" unicode="&#xe3;" horiz-adv-x="1601" 
d="M1084 1268h88q165 0 408 -236q40 40 72 40h12q81 0 176 -172l72 -260v-12l-8 -8q-131 290 -204 344q-21 16 -36 16h-12q-20 -1 -20 -8q180 -242 180 -392v-16q0 -132 -124 -200q-54 -20 -92 -20h-40q-78 0 -96 64q-40 101 -40 220v4q0 196 84 320v8q-213 208 -328 208
h-12q-135 0 -220 -120l-8 -52v-16q0 -178 344 -432q88 -92 88 -204v-4q0 -163 -184 -312q-63 -28 -128 -28h-8q-94 0 -172 100q-104 -56 -240 -56q-85 0 -204 136q-216 -156 -280 -156q-116 0 -152 116v24q0 117 176 300q91 80 160 80q53 -19 152 -172l12 -24h12
q212 195 212 216l4 24v4q0 17 -16 28q-80 -17 -80 -140l-84 -84q-19 10 -24 104q0 175 252 216q92 0 92 -92q0 -120 -272 -340q15 -128 84 -128q34 0 236 96l48 8h4q36 0 36 -84q13 -64 52 -64q169 0 224 164l4 44q0 151 -232 284q-276 212 -276 360q0 181 256 292z
M1572 880q-28 -97 -28 -192q8 -203 24 -228q86 0 124 152v32q0 107 -116 236h-4zM120 212v-12q0 -57 88 -68q26 0 168 96v8l-100 152l-20 8q-66 -24 -120 -140z" />
    <glyph glyph-name="adieresis" unicode="&#xe4;" horiz-adv-x="1900" 
d="M1256 1352h88q61 0 136 -76q88 -124 88 -236q36 -189 84 -316q73 -195 216 -340q70 -61 136 -100l4 -20v-8l-8 -8h-16q-324 125 -468 412q-52 108 -152 456q-47 120 -112 120l-16 4q-133 0 -276 -140q-40 -49 -40 -84q0 -201 340 -456q104 -93 104 -184v-44
q0 -158 -188 -308q-69 -24 -124 -24q-108 0 -172 100q-147 -60 -228 -60q-113 0 -212 136q-11 0 -176 -112q-90 -44 -112 -44q-152 23 -152 136q0 142 212 336q69 48 124 48q41 -3 148 -164q0 -12 24 -32q218 193 220 224l4 20q-8 25 -20 28q-80 -16 -80 -140l-84 -84
q-24 35 -24 104q0 181 260 216q84 -12 84 -84v-12q0 -117 -268 -328l-8 -12q22 -120 76 -120h28q24 0 224 96l28 4h32q14 0 28 -108q20 -36 44 -36h24q146 0 204 156l4 44v8q0 153 -224 276q-280 206 -280 372q0 171 252 312q148 72 224 72zM120 208v-16q17 -64 92 -64
q74 29 164 104q-100 156 -108 156l-16 4q-64 -25 -124 -156z" />
    <glyph glyph-name="aring" unicode="&#xe5;" horiz-adv-x="1427" 
d="M840 1076h64q68 0 192 -44q187 44 268 44h24q62 0 144 -116q80 -158 80 -332v-156q0 -121 -32 -152h-4q-20 0 -20 148q-24 212 -56 324q-47 130 -104 176q-16 8 -44 8l-140 -24q168 -167 168 -420q0 -261 -184 -500q-64 -32 -136 -32q-100 0 -180 100q-118 -56 -200 -56
q-156 25 -156 56q-10 4 -60 84h-4q-178 -130 -276 -160q-72 0 -140 68q-16 36 -16 64v28q0 91 172 284q92 76 152 76h20q81 -61 144 -176l20 -20q208 196 208 208q12 19 12 44q-8 18 -16 20h-4q-80 -17 -80 -136l-80 -84h-4q-16 0 -32 216q-61 76 -144 76h-12
q-158 0 -364 -368l-4 -4h-8l-8 8q0 158 204 336q110 84 196 84h40q112 0 204 -76q103 44 156 44h16q65 0 80 -88q0 -77 -136 -220q-105 -97 -160 -132q21 -120 80 -120h4q59 0 244 96l28 4h32q11 0 28 -108q12 -27 32 -36h36q184 0 184 412v24q0 147 -144 300l-44 32h-4
q-313 -96 -352 -96q-53 -12 -136 -16q-192 17 -192 92q0 108 364 204zM520 880q0 -16 92 -24q132 0 368 72q-63 36 -176 36h-8q-146 0 -276 -76v-8zM144 204q0 -53 88 -72q94 38 172 108q-19 17 -104 152l-20 4q-52 0 -132 -168z" />
    <glyph glyph-name="ae" unicode="&#xe6;" horiz-adv-x="268" 
d="M160 1416h32q68 -19 68 -52v-20q0 -29 -84 -96q-28 -229 -64 -840l-24 -8q-76 0 -76 92q-12 150 -12 252q0 321 124 652q21 20 36 20zM156 232q104 -125 104 -196v-24l-12 -12h-12q-61 12 -232 160v4q0 47 152 68z" />
    <glyph glyph-name="ccedilla" unicode="&#xe7;" horiz-adv-x="1521" 
d="M1256 1352h88q61 0 136 -76q88 -124 88 -236q36 -189 84 -316q73 -195 216 -340q70 -61 136 -100l4 -20v-8l-8 -8h-16q-325 125 -468 412q-52 108 -152 456q-47 120 -112 120l-16 4q-133 0 -276 -140q-40 -49 -40 -84q0 -201 340 -456q104 -93 104 -184v-44
q0 -158 -188 -308q-69 -24 -124 -24q-104 0 -176 100q-129 -57 -224 -60q-113 0 -212 136q-11 0 -176 -112q-90 -44 -112 -44q-152 23 -152 136q0 142 212 336q69 48 124 48q43 -2 164 -188l8 -8q220 193 220 228l4 16q-8 25 -20 28q-80 -16 -80 -140l-84 -84
q-19 15 -24 108q0 58 40 112q0 65 -40 92q-62 36 -116 36q-167 0 -348 -344l-28 -32h-4l-8 8q0 172 228 360q98 68 200 68q132 0 244 -104l92 16q78 0 84 -92v-4q0 -117 -268 -328l-8 -12q22 -120 76 -120h28q24 0 224 96l28 4h32q14 0 28 -108q20 -36 44 -36h24
q146 0 204 156l4 44v8q0 153 -224 276q-280 206 -280 372q0 171 252 312q148 72 224 72zM120 208v-16q17 -64 92 -64q74 29 164 104q-100 156 -108 156l-16 4q-64 -25 -124 -156z" />
    <glyph glyph-name="egrave" unicode="&#xe8;" horiz-adv-x="900" 
d="M664 1164h76q129 0 264 -372l4 -20v-32h-8q-9 2 -140 208q-101 136 -176 136q-57 0 -100 -60q136 -58 216 -204q68 -128 68 -268v-36q0 -253 -184 -488q-71 -28 -132 -28q-102 0 -180 100q-113 -52 -168 -52h-44q-188 0 -188 168q0 120 16 120q100 -6 100 -20
q14 -160 80 -160h20q47 0 228 96l40 4h24q12 0 24 -104q20 -40 44 -40h28q184 0 184 420v4q0 206 -208 356q-52 28 -64 28q-32 -45 -240 -112q-123 -32 -212 -32h-24q-112 11 -112 80v12q0 136 300 200q87 12 152 12l112 -12q93 96 200 96zM0 860h32q123 0 324 92v8h-28
l-32 4q-162 0 -296 -92v-12z" />
    <glyph glyph-name="eacute" unicode="&#xe9;" horiz-adv-x="1611" 
d="M1047 1217h88q164 0 408 -236q40 40 72 40h12q90 0 184 -192l64 -240v-12l-8 -8q-161 360 -240 360h-12q-20 -1 -20 -8q180 -243 180 -392v-16q0 -132 -124 -200q-51 -20 -92 -20h-32q-100 0 -100 64q-44 82 -44 216v24q0 166 84 312q-217 208 -320 208h-16
q-143 0 -224 -120l-12 -56q0 -166 272 -388q164 -102 164 -260q0 -167 -184 -316q-65 -28 -128 -28h-4q-101 0 -176 100q-109 -56 -236 -56q-96 0 -208 136q-218 -156 -280 -156q-152 23 -152 120v36q17 120 176 288q94 76 160 76q50 -18 140 -156q21 -40 32 -44
q212 200 212 212l8 28v16l-20 20q-80 -25 -80 -144l-80 -80q-14 0 -24 76l-4 -4h-4q-21 0 -40 136q-65 60 -132 60h-24q-151 0 -352 -376l-4 -4h-8l-8 8q0 195 256 384q70 48 172 48q113 0 216 -76h4q100 68 184 68q78 0 88 -92q0 -120 -276 -340q22 -128 84 -128h8
q29 0 228 96l52 8h4q32 0 32 -60q0 -77 56 -88q167 0 220 156l8 52q0 147 -220 276q-288 212 -288 372q0 181 260 288zM1535 829q-28 -84 -28 -204q8 -190 24 -216q85 0 124 152v32q0 106 -116 236h-4zM79 149q0 -52 84 -68h4q59 15 172 100q-94 152 -120 164
q-68 -25 -116 -132q-20 -35 -24 -64z" />
    <glyph glyph-name="ecircumflex" unicode="&#xea;" horiz-adv-x="1276" 
d="M776 1352h84q123 0 200 -172q27 -68 52 -248q68 -247 132 -348q30 -91 200 -244q88 -56 88 -64v-20l-8 -8h-16q-324 125 -468 412q-47 99 -152 456q-47 120 -108 120l-20 4q-134 0 -284 -148q-32 -54 -32 -80q0 -200 360 -464q88 -99 88 -200q0 -177 -192 -324
q-66 -24 -120 -24h-4q-97 0 -176 100q-112 -52 -176 -52h-36q-160 0 -184 128l-4 36q0 124 16 124q100 0 100 -32q12 -152 96 -152q34 0 236 100l36 4h24q13 0 20 -92q18 -52 48 -52h32q133 0 192 148q8 16 8 44v16q0 147 -220 276q-284 206 -284 372q0 167 256 316
q156 68 216 68z" />
    <glyph glyph-name="edieresis" unicode="&#xeb;" horiz-adv-x="909" 
d="M472 1304h96q127 0 360 -148q30 60 80 60h12q77 0 200 -148l116 -236l-8 -8q-118 159 -208 252q-61 48 -92 48h-12q-21 0 -28 -16q268 -223 268 -408q0 -163 -184 -216l-52 -8q-64 0 -92 68q-92 149 -92 340q0 91 32 188q-235 140 -320 140q-144 0 -236 -144
q-12 -27 -12 -60q0 -98 140 -216q113 -89 292 -168q120 -96 120 -152q16 -38 16 -80v-24q0 -127 -124 -280q-86 -52 -152 -52h-12q-76 0 -144 64q-132 -100 -244 -100h-24q-106 0 -140 96q-16 35 -28 148q0 8 104 16q45 -148 112 -148h8q50 0 176 112q59 48 92 48h20
q8 0 28 -72q23 -52 60 -52q88 0 164 104q28 49 28 100v4q0 178 -288 272q-352 160 -352 336v20q0 169 236 300q52 20 84 20zM952 1012l-4 -40v-16q0 -141 80 -360q68 0 96 144v20q0 120 -172 252z" />
    <glyph glyph-name="igrave" unicode="&#xec;" horiz-adv-x="838" 
d="M716 1644h68q98 0 168 -176q24 -88 48 -280q48 -213 112 -356q103 -212 236 -292l4 -20v-16q0 -8 -12 -8q-267 110 -408 428q-56 166 -128 472q-38 132 -108 132q-113 0 -240 -152q-24 -49 -24 -68q0 -142 272 -376q108 -108 108 -188v-4q0 -299 -160 -576
q-105 -160 -184 -160l-24 -4q-68 0 -96 44q16 67 16 120q-10 124 -60 124q-57 0 -200 -248q-28 -40 -36 -40q-68 6 -68 56q0 52 112 164q20 64 20 116v20l-4 24q0 25 72 52h8q44 0 44 -32v-40l4 -4v-4l80 4h16q100 0 100 -112v-92q0 -37 52 -44q68 0 168 400q24 117 24 172
q0 69 -84 144q-244 291 -252 380q-12 35 -12 80v28q0 164 232 292q95 40 136 40z" />
    <glyph glyph-name="iacute" unicode="&#xed;" horiz-adv-x="820" 
d="M756 1412h48q77 0 112 -244v-92q0 -31 -20 -40q-18 0 -48 188q-35 108 -76 108q-58 0 -84 -76v-4q120 -123 120 -440q0 -554 -284 -792q-39 -20 -80 -20q-96 12 -96 48q16 63 16 104q0 113 -52 132h-12q-57 0 -192 -240l-40 -44q-68 6 -68 56q0 52 112 164q20 64 20 116
v20l-4 28q41 48 80 48q31 0 44 -24v-48l4 -4v-4l88 4h16q92 0 92 -112v-92q0 -44 52 -44q50 0 136 272q60 202 60 360v68q0 189 -92 324h-4q-267 -364 -396 -364h-12q-61 0 -72 136v16q0 178 204 348q105 64 188 64l76 -12q78 92 164 92zM236 928q4 -28 12 -28h4
q47 0 204 208l60 84v8h-20q-99 0 -200 -120q-53 -80 -60 -152z" />
    <glyph glyph-name="icircumflex" unicode="&#xee;" horiz-adv-x="758" 
d="M403 1537h68q70 0 240 -156l4 4q38 60 88 60q82 0 204 -156l108 -236v-8l-8 -8q-122 159 -200 240q-64 52 -108 52q-20 -3 -20 -12q248 -232 248 -384v-28q0 -150 -172 -208l-60 -8q-80 0 -112 96q-64 135 -64 308q0 103 32 196q-135 85 -252 132h-16q-92 0 -132 -120
q-12 -24 -12 -76v-4q0 -133 268 -280q172 -100 172 -252l8 -120q0 -347 -164 -568q-58 -36 -116 -36q-51 0 -68 28v80q0 93 -68 148h-16q-56 0 -152 -272q-24 -52 -32 -52h-20q-56 0 -56 56q0 46 84 180v44q0 54 -16 108q31 64 80 64h4q37 0 44 -72h4q73 24 120 24
q88 0 104 -160q0 -60 52 -60q81 0 104 452q0 199 -56 228q-384 293 -384 392q-11 13 -12 76q0 197 232 300zM735 1225q-8 -18 -8 -52v-28q0 -139 84 -332q59 0 88 144v12q0 124 -164 256z" />
    <glyph glyph-name="idieresis" unicode="&#xef;" horiz-adv-x="800" 
d="M511 1257h76q109 0 248 -112l4 -4v-12l-4 -4v-4q-182 60 -228 60h-16q-144 -16 -144 -136l-4 -24l48 4q175 0 232 -180q72 -177 72 -348q0 -348 -224 -452q-109 -64 -224 -64h-4q-85 0 -164 44q-64 -20 -128 -20h-20l-8 8q1 6 96 40v8q-124 71 -124 112q0 36 140 44
q200 168 300 168h8q68 0 68 -72q0 -113 -164 -204l-56 -24v-8l116 -8q211 0 276 216q16 67 16 140v8q0 210 -108 388q-35 52 -92 52h-8l-68 -8v-24q0 -163 -240 -316q-93 -44 -140 -44h-24q-108 0 -108 124v12q42 131 348 328q60 29 60 44q0 211 156 264zM35 609
q12 -20 32 -20q79 0 228 188l20 52h-4q-276 -144 -276 -220zM199 141q25 -32 36 -32q152 78 152 148v24l-20 4h-8q-70 0 -160 -136v-8z" />
    <glyph glyph-name="eth" unicode="&#xf0;" horiz-adv-x="900" 
d="M788 1812h84q112 0 192 -132q20 -51 20 -132l-4 -84q119 56 208 56q152 -41 152 -164v-116q-9 -14 -76 -64l-8 8v12q-28 180 -88 180h-44q-88 0 -168 -72q-5 -109 -232 -584q-70 -171 -84 -180q-12 4 -12 24v16q0 96 176 560q-111 -149 -196 -392l-20 -72q28 -85 28 -248
v-8q0 -12 -32 -64q28 -87 28 -140q0 -76 -88 -104q-274 -112 -488 -112q-124 5 -124 44q0 29 180 308q40 75 40 92q0 40 -72 56q-115 0 -264 -152q-23 -27 -36 -68h-8q-52 15 -52 84q239 216 472 216h12q76 0 76 -60v-28l-224 -408q15 -12 28 -12h24q140 0 408 108l8 32v36
q0 78 -52 96l-16 68q5 202 112 500q96 249 284 448q33 0 40 68v28q0 156 -76 208q-62 44 -128 44q-201 0 -532 -336q-44 -78 -44 -148q0 -187 200 -252l72 -12l44 4q20 -23 20 -40q0 -36 -144 -44q-218 0 -292 244l-8 68v12q0 264 404 504q177 94 300 104z" />
    <glyph glyph-name="ntilde" unicode="&#xf1;" horiz-adv-x="1108" 
d="M672 1392h68q90 0 164 -160q28 -105 56 -316q60 -265 168 -448q43 -72 180 -188v-24l-8 -8h-12q-84 24 -240 172q-157 158 -236 516q-48 230 -100 316q-20 22 -60 24q-112 0 -232 -144q-36 -51 -36 -96q0 -192 284 -460q104 -138 104 -248q0 -170 -252 -292
q-82 -36 -168 -36q-93 0 -168 44q-64 -20 -132 -20h-24v8q0 8 96 40l-116 92l-8 28q0 36 124 44q19 0 112 76q128 92 204 92q72 0 72 -60v-16q0 -134 -216 -224v-8l104 -8h4q174 0 284 140q11 23 16 76q0 163 -200 304q-240 213 -240 388q0 161 192 308q142 88 216 88z
M200 160q29 -32 40 -32q152 79 152 152v12l-12 12h-16q-76 0 -164 -144z" />
    <glyph glyph-name="ograve" unicode="&#xf2;" horiz-adv-x="1010" 
d="M378 1059h64q70 0 192 -44q188 44 268 44h24q68 0 156 -136q68 -161 68 -308v-160q-7 -150 -32 -152h-4q-17 0 -24 192q-60 464 -196 464l-144 -24q104 -95 152 -312l12 -112v-88q0 -229 -140 -416q-116 -40 -184 -40h-8q-56 7 -56 44q0 21 52 164v12q0 21 -12 24h-16
q-18 -13 -96 -152q-58 -56 -168 -56q-51 0 -152 40q-84 -24 -128 -24l-4 4v4l84 44l4 4v4q-128 70 -128 112q0 28 140 52q185 192 292 192h4q64 0 64 -68v-4q0 -151 -232 -260v-4l48 -8q148 47 148 92q68 112 128 112q120 -21 120 -100q0 -26 -28 -116h4q164 0 164 296
q0 327 -136 436q0 7 -64 56q-333 -116 -488 -116q-192 17 -192 92v8q0 93 356 196zM58 863q0 -15 92 -24q132 0 368 72q-62 36 -176 36h-8q-146 0 -276 -76v-8zM166 171q24 -28 44 -28q136 90 136 156q0 32 -24 32q-69 0 -156 -152v-8z" />
    <glyph glyph-name="oacute" unicode="&#xf3;" horiz-adv-x="1010" 
d="M556 1276h92q126 0 308 -216h4q29 40 84 40q71 0 172 -172l72 -260v-12l-8 -8l-76 160q-105 200 -168 200l-28 -4v-8q180 -240 180 -380v-24q0 -149 -152 -212l-88 -16q-126 0 -160 172l-4 68v28q0 198 104 360q-186 168 -296 168h-4q-184 -23 -184 -164q0 -172 264 -420
q104 -132 104 -236v-16q0 -183 -288 -304q-79 -20 -132 -20q-93 0 -168 44q-59 -20 -140 -20h-16v8q0 7 96 40q-93 65 -116 96l-8 24q0 36 124 44q19 0 112 76q129 92 204 92q76 0 76 -72q0 -113 -164 -204l-56 -24v-8l116 -8q169 0 284 148l8 72q0 163 -216 316
q-220 207 -220 332v28q0 164 212 268q55 24 76 24zM948 916q-72 -149 -72 -284v-32q0 -114 72 -128q89 0 120 88l12 64q0 123 -120 292h-12zM200 164q28 -36 40 -36q152 78 152 148v16l-12 12h-16q-70 0 -164 -140z" />
    <glyph glyph-name="ocircumflex" unicode="&#xf4;" horiz-adv-x="1500" 
d="M924 1360h84q95 0 180 -140q40 -90 60 -260q60 -231 132 -368q50 -101 188 -232q104 -69 104 -76v-20l-8 -8h-16q-335 133 -472 420q-67 162 -136 416q-53 152 -120 152l-16 4q-127 0 -268 -128q-52 -58 -52 -104q0 -188 356 -460q112 -120 112 -200v-28q0 -99 -100 -216
q-73 -63 -236 -100q-48 -12 -88 -12h-8q-56 5 -56 48q0 19 52 160v12q0 24 -24 24h-4q-23 -17 -76 -120q-52 -88 -184 -88q-63 0 -152 40q-96 -24 -128 -24l-8 8q0 7 84 44l4 4v4q-128 70 -128 108q0 35 132 52q196 196 300 196h4q64 0 64 -80q0 -138 -232 -252v-4
q18 -8 56 -8q136 52 136 84q67 120 132 120q120 -23 120 -100l-28 -116h4q260 38 260 256q0 103 -244 252q-256 200 -256 340v28q0 142 216 284q173 88 260 88zM204 204l32 -28h12q136 88 136 164q-3 24 -24 24q-70 0 -156 -152v-8z" />
    <glyph glyph-name="otilde" unicode="&#xf5;" horiz-adv-x="758" 
d="M670 1400q118 0 172 -156l8 -48v-84q0 -36 -28 -56h-12q-12 3 -12 32v40q0 141 -88 180q-46 20 -76 20q-84 -24 -84 -84q0 -8 40 -32q156 -141 156 -588q-11 -494 -308 -616l-36 -8q-65 8 -144 84q-36 65 -36 116q0 118 128 272h-40q-172 0 -220 -68h-4q-65 0 -92 176v4
q0 103 84 144h36q48 -13 48 -28v-108l-4 -48h4q89 0 300 72q13 0 16 -52q0 -50 -100 -244q-24 -52 -24 -96q0 -65 60 -116h16q88 0 156 188q44 221 44 368v20q0 323 -156 432q-361 -320 -516 -320q-75 0 -80 84q0 130 180 248q223 136 364 136v4q40 88 160 132h88zM-18 924
v-8h24q121 18 340 204l12 16h-8q-205 0 -356 -184q-12 -15 -12 -28z" />
    <glyph glyph-name="odieresis" unicode="&#xf6;" horiz-adv-x="1300" 
d="M760 1280h88q165 0 408 -236q38 40 72 40h20q68 0 168 -168q72 -246 72 -272v-4l-8 -8q-160 364 -248 364q-24 -5 -24 -12q180 -241 180 -392v-4q0 -121 -96 -196q-68 -36 -144 -36q-94 0 -112 64q-40 107 -40 216v24q0 168 84 312v4q-221 204 -320 204h-16
q-143 0 -224 -120l-8 -40v-24q0 -174 304 -404q132 -128 132 -224v-60q0 -128 -156 -240q-175 -68 -264 -68h-8q-56 5 -56 48q0 19 52 156v16q0 24 -24 24h-4q-30 -30 -84 -136q-55 -72 -176 -72q-58 0 -156 40q-85 -24 -124 -24l-8 8l84 44l4 4v4q-128 70 -128 108
q0 34 140 56q186 192 296 192q64 0 64 -68v-12q0 -141 -232 -252q0 -12 56 -12q144 51 144 100q66 100 112 100h24q108 -23 108 -92q0 -35 -28 -120h4q150 0 244 152q16 43 16 92v4q0 73 -128 196q-368 241 -368 428q0 164 236 276zM1220 692q0 -124 24 -220q76 0 124 144
v40q0 96 -112 240q-29 -16 -36 -204zM204 204l36 -32q144 90 144 160v4q0 28 -24 28q-68 0 -156 -152v-8z" />
    <glyph glyph-name="divide" unicode="&#xf7;" horiz-adv-x="933" 
d="M731 692h60q60 0 72 -92q0 -87 -100 -164q-316 -317 -316 -324v-28q0 -12 56 -20q252 20 252 40l48 4h36q40 -16 40 -76l44 -536v-44q0 -131 -168 -208q-99 -40 -252 -40q-290 0 -644 104q-184 82 -184 180v20q0 125 280 224l120 48q-64 110 -64 248q0 141 68 272
q120 126 196 128l32 68q138 114 396 192zM395 432q40 -25 40 -64v-12q-12 -100 -40 -100q-10 0 -72 -56q-30 44 -52 136q-80 0 -156 -76q-44 -76 -44 -172v-4q0 -129 40 -296l40 12q8 -9 12 -64q-376 -114 -376 -220q0 -109 300 -180q228 -40 500 -40h36q87 0 116 84l4 40
l-28 532v44l-4 4v4q-97 -24 -192 -24q-184 10 -184 32l-12 60v16q0 111 312 316q100 70 100 160q-12 28 -36 28h-24q-107 0 -276 -148z" />
    <glyph glyph-name="oslash" unicode="&#xf8;" horiz-adv-x="777" 
d="M462 718h60q51 0 68 -76v-20q0 -84 -96 -156l-308 -316l-12 -32q8 -28 56 -28q88 0 264 36l28 4q206 0 288 -244q8 -16 8 -44v-72q0 -199 -312 -464q-240 -168 -388 -168h-12q-184 0 -248 228l-8 84v4q0 168 92 492l4 4h4l8 -8v-4l4 -64l-12 -264v-8q0 -134 64 -268
q77 -80 160 -80q213 0 512 400q32 62 32 116q0 131 -104 216q-94 48 -140 48q-129 -28 -224 -28q-192 0 -192 48l-4 28v36q0 105 280 288q132 91 132 176q0 35 -44 36h-12q-118 0 -284 -152l-4 -36v-8l28 -112l-96 -84q-18 0 -48 128l-4 32q0 143 120 196q263 136 340 136z
" />
    <glyph glyph-name="ugrave" unicode="&#xf9;" horiz-adv-x="796" 
d="M400 1349h80q104 0 252 -196l48 40l40 12q92 0 196 -188l72 -240v-20h-8l-116 196q-93 136 -152 136l-20 -4v-4q196 -239 196 -396q0 -182 -196 -232l-32 -4q-122 0 -160 256l-4 80q0 150 64 288q-205 168 -256 168h-12q-106 0 -148 -184v-12q6 -120 292 -416
q124 -160 124 -288q0 -235 -368 -324l-68 -8h-8q-124 8 -156 104l-8 76v12q0 118 88 276l8 32q0 24 -16 24q-17 0 -116 -136q-39 -36 -64 -36q-67 0 -80 308l-4 16q9 14 96 24l4 4h4q20 -29 20 -152v-32l4 -20h4q35 0 136 120q28 20 52 20h4q76 0 76 -68v-20q0 -70 -92 -296
v-56q0 -50 64 -112h52q190 0 308 148l12 56q0 162 -212 352q-284 225 -284 380v24q0 174 236 280zM732 993q-20 -76 -20 -144q0 -110 40 -272h4q71 0 108 144v28q0 114 -128 244h-4z" />
    <glyph glyph-name="uacute" unicode="&#xfa;" horiz-adv-x="1059" 
d="M603 1400h68q92 0 160 -156q32 -86 48 -260q56 -259 124 -408q64 -132 180 -244q56 -37 56 -44v-28l-4 -4v-4q-146 42 -308 236q-94 129 -160 348q-89 440 -152 440q0 5 -32 8q-111 0 -232 -144q-36 -51 -36 -96q0 -184 248 -424q140 -152 140 -280q0 -190 -284 -300
q-107 -40 -176 -40h-8q-102 0 -148 84q-16 47 -16 84v24q0 121 88 276l8 32q0 20 -16 24q-25 -8 -108 -128q-42 -44 -76 -44h-4q-60 42 -60 184l-16 140q17 15 96 24l4 4h4q20 -26 20 -164v-20l8 -24q29 0 136 124q28 20 52 20h4q76 0 76 -84q0 -71 -84 -280l-12 -60
q0 -64 68 -128h52q188 0 308 148q12 26 12 56v40q0 145 -228 312q-208 196 -208 360q0 192 256 348q106 48 152 48z" />
    <glyph glyph-name="ucircumflex" unicode="&#xfb;" horiz-adv-x="1724" 
d="M1567 686h60q51 0 68 -76v-20q0 -81 -84 -144l-324 -332l-8 -24q0 -32 56 -32q99 0 344 68q60 -17 60 -60q48 -496 48 -564v-40q0 -131 -168 -208q-99 -40 -252 -40q-300 0 -656 108q-176 81 -176 188q0 131 268 228q56 28 212 72l12 -60q-376 -125 -376 -212v-20
q0 -77 196 -144q219 -68 604 -68h28q91 0 116 68q12 26 12 56l-28 520v52q-138 -28 -224 -28q-188 0 -188 40q-12 26 -12 56q0 126 288 308q124 92 124 152v24q0 32 -40 32h-12q-111 0 -280 -144l-12 -44l32 -120l-100 -84q-48 83 -48 152v44q-9 0 -52 64q-47 48 -72 48h-16
q-38 0 -164 -104q-20 -3 -20 -12q48 -83 284 -156q72 -41 72 -76q0 -74 -120 -136l-64 -8h-36q-106 0 -252 72q-22 0 -216 -116q-31 -12 -56 -12h-20q-84 0 -84 100v4q3 86 200 268q84 68 84 76q-47 92 -104 92h-16q-84 -19 -84 -56q48 -24 48 -68v-8q0 -32 -24 -92l8 -20
l-12 -8q-61 0 -120 96h-4q-141 0 -192 -124q-20 -48 -20 -108v-52q0 -58 36 -284v-8l-8 -8q-88 98 -88 268v8q0 296 216 388q44 7 44 32q0 61 92 124q44 24 100 24q144 0 256 -120h4q132 79 328 104q66 0 136 -60h8q223 134 388 164zM643 358q-220 -189 -220 -264v-12h8
q55 0 160 112q27 16 48 16h28q53 0 152 -84q78 -36 112 -36q60 0 60 44v4q0 19 -128 40q-154 57 -200 148q-14 32 -20 32z" />
    <glyph glyph-name="udieresis" unicode="&#xfc;" horiz-adv-x="1653" 
d="M1530 681h60q57 0 72 -88q0 -92 -108 -176l-308 -316l-4 -16q0 -32 60 -32q122 0 352 76q8 -18 16 -20l-4 -40q12 -167 12 -284v-44q0 -173 -36 -664q0 -25 56 -120l8 -52v-60q-8 -88 -24 -88q-137 54 -216 204q-24 163 -68 236q-37 44 -76 44q-30 0 -280 -92
q-76 -16 -136 -16h-36q-196 0 -348 152q-32 65 -32 132q0 195 668 436h8v-4q0 -27 -64 -108q0 -24 -32 -24q-211 -54 -436 -236q0 -17 -48 -84q-12 -19 -12 -52v-4q0 -79 196 -92h12q197 0 392 92q64 44 120 44q118 0 208 -220q15 0 36 216q20 218 20 412l-4 176l-12 12
l8 20h-4q-114 -32 -220 -32q-196 0 -196 44q-8 16 -8 44v12q0 120 280 300q132 86 132 184q-12 28 -36 28h-24q-106 0 -276 -148l-8 -32v-4l28 -112v-8l-96 -88q-22 18 -48 124l-4 44l4 24l-68 84q-39 32 -56 32h-16q-41 0 -160 -100l-28 -12q40 -80 260 -152
q100 -38 100 -88q0 -48 -84 -112q-46 -28 -100 -28h-40q-105 0 -248 72q-23 0 -216 -116q-31 -12 -56 -12h-32q-72 0 -72 92v12q0 102 272 328q12 0 12 16q-48 92 -104 92h-16q-88 -24 -88 -52q52 -31 52 -76q0 -29 -24 -96l4 -24l-4 -4h-4q-63 0 -120 96h-4
q-156 0 -204 -152l-12 -108q8 -113 40 -304v-12l-8 -8q-88 98 -88 268v12q0 280 196 372q12 11 64 28q0 109 140 160l52 4q140 0 256 -120h4q206 104 328 104q61 0 136 -60h8q95 68 312 148q47 16 72 16zM610 353q-165 -130 -220 -248l-4 -16l4 -12h12q45 0 156 112
q24 16 48 16h36q36 0 140 -80q63 -37 112 -40q64 6 64 44q0 25 -100 36q-167 49 -228 152z" />
    <glyph glyph-name="yacute" unicode="&#xfd;" horiz-adv-x="1041" 
d="M870 1669h92q79 0 164 -100l32 -60l100 16q156 -40 156 -164v-116q-9 -14 -76 -64q-5 0 -20 96q-34 104 -84 104h-52q-20 -1 -20 -8q0 -154 -68 -376l-188 -424v-4q52 -30 52 -88q0 -91 -140 -208q-50 -32 -132 -56q0 -78 -112 -108q-253 -104 -464 -104q-101 0 -124 40
v4q0 34 180 304q40 82 40 96q-18 52 -64 52l-12 4q-108 0 -260 -152q-24 -28 -36 -68h-8q-52 16 -52 84q239 216 472 216h12q76 0 76 -60v-28l-224 -408q15 -12 28 -12h24q141 0 408 108l8 24q-128 28 -128 100v8q0 58 64 148q0 68 52 284q-56 -12 -108 -12q-198 0 -276 220
q-12 31 -20 100q0 270 424 520q203 92 284 92zM274 1081q0 -201 224 -260l48 -4l44 4q154 461 440 632v4q-71 108 -176 108q-218 0 -540 -344q-40 -58 -40 -140zM662 677l24 -92q63 16 112 16h16l28 -4q160 438 200 588l12 140h-8q-255 -196 -384 -648zM690 497v-72
q0 -14 -32 -64l20 -60q57 13 132 96v60l8 68l-44 12q-25 0 -84 -40zM550 337v-4q8 -24 16 -24v4q-9 24 -16 24z" />
    <glyph glyph-name="thorn" unicode="&#xfe;" horiz-adv-x="1013" 
d="M611 1718h20q38 0 44 -96q48 -289 84 -432h4q228 316 484 316q152 -41 152 -164v-116q-9 -14 -76 -64q-8 0 -16 84q-40 116 -80 116h-44q-184 0 -376 -320v-4q99 -207 332 -300q52 -7 52 -16q0 -12 -64 -12q-196 0 -356 256h-8q-116 -260 -116 -304l24 -96q63 16 104 16
h12q156 -17 156 -116q0 -96 -140 -212q-48 -30 -132 -56q0 -80 -124 -112q-244 -100 -452 -100q-124 5 -124 44q0 29 180 308q40 75 40 92q-21 56 -72 56q-114 0 -264 -152q-24 -28 -36 -68h-8q-52 15 -52 84q239 216 472 216q84 0 84 -44l4 -28v-16l-224 -408
q15 -12 28 -12h24q140 0 408 108l8 28h-4q-87 0 -124 84v20q0 53 48 124q-78 0 -88 112q-24 102 -24 184q168 656 168 856l4 40l-4 68zM615 1322q-58 -303 -116 -456l-16 -136q8 -144 32 -164q7 105 112 380l72 152q-52 116 -80 224h-4zM675 478v-72q0 -12 -32 -64l20 -60
q168 81 168 180q0 46 -72 56q-25 0 -84 -40zM535 318v-8q8 -18 16 -20v4q-9 24 -16 24z" />
    <glyph glyph-name="ydieresis" unicode="&#xff;" horiz-adv-x="645" 
d="M458 692h60q60 0 72 -92q0 -87 -100 -164q-316 -317 -316 -324v-28q0 -12 56 -20q252 20 252 40l48 4h36q40 -16 40 -76l44 -536v-44q0 -134 -176 -212q-103 -36 -240 -36h-4q-292 0 -644 104q-184 82 -184 180v20q0 135 332 244q29 16 144 48q8 -9 12 -64
q-376 -114 -376 -220q0 -109 300 -180q228 -40 500 -40h36q87 0 116 84l4 40l-28 532v44l-4 4v4q-97 -24 -192 -24q-184 10 -184 32l-12 60v16q0 111 312 316q100 70 100 160q-12 28 -36 28h-24q-107 0 -276 -148l-8 -32l28 -116v-8l-96 -88q-52 88 -52 164q24 144 52 144
q43 54 344 172z" />
    <glyph glyph-name="dotlessi" unicode="&#x131;" horiz-adv-x="514" 
d="M328 223q0 -173 100 -173h46v-50h-442v50h46q100 0 100 173v432q0 77 -111 77h-48v44q222 69 261 182h48v-735z" />
    <glyph glyph-name="circumflex" unicode="&#x2c6;" horiz-adv-x="1211" 
d="M183 687h72q103 0 144 -180l4 -64v-4q46 12 96 12h4q46 0 104 -28q32 92 64 92q35 41 280 140q89 32 136 32q100 -11 100 -84v-8q0 -91 -80 -148l-328 -336l-8 -24v-12q0 -14 56 -20q111 0 352 72q16 -6 16 -12v-20q0 -42 -208 -212q232 -48 320 -92q116 -80 116 -144
v-52q0 -82 -140 -164q-92 -48 -196 -48h-4q-237 19 -252 92l20 16q110 -28 244 -28h16q166 0 196 96v16q0 93 -384 268q-20 23 -20 40q0 18 76 96v4q-57 -12 -136 -12q-188 0 -188 44l-8 48v4q0 121 244 276q168 111 168 196v20q-12 24 -36 24h-20q-107 0 -280 -148l-8 -40
l32 -116l-100 -88q-7 0 -24 44h-4l-24 -4q-58 120 -136 120h-36q-58 0 -172 -276q-51 -84 -120 -84q-106 0 -156 172v8l16 16h4q29 0 96 -24q81 21 148 160q20 59 20 96v4q0 100 -80 136l-40 4q-159 0 -268 -336q-11 -16 -28 -16h-4q-14 0 -20 44v24q0 186 192 336
q103 72 172 72z" />
    <glyph glyph-name="caron" unicode="&#x2c7;" horiz-adv-x="1024" 
d="M542 1032h52q173 0 328 -144q144 -164 144 -340v-112q0 -215 -184 -452q-72 -28 -128 -28q-105 0 -180 100q-110 -52 -184 -52h-28q-188 0 -188 168q0 120 20 120q-20 28 -44 28h-4q-141 0 -192 -140l-16 -116q0 -52 40 -312v-8l-8 -8q-88 98 -88 272v4q0 305 228 396
q72 20 128 20q68 -22 68 -80l-16 -80q0 -133 80 -156h28q29 0 224 96l24 4h36q10 0 24 -108q20 -36 44 -36h24q188 0 188 432q0 126 -124 280q-148 136 -320 136h-52q-229 0 -432 -236l-76 -116q-72 0 -72 16q88 232 324 360q220 92 332 92z" />
    <glyph glyph-name="uni02C9" unicode="&#x2c9;" horiz-adv-x="1024" 
d="M254 1195v125h516v-125h-516z" />
    <glyph glyph-name="breve" unicode="&#x2d8;" horiz-adv-x="1024" 
d="M219 1349h51q17 -73 75 -107t167 -34t166 33.5t74 107.5h51q-20 -133 -94 -201.5t-197 -68.5q-122 0 -197 69t-96 201z" />
    <glyph glyph-name="dotaccent" unicode="&#x2d9;" horiz-adv-x="1024" 
d="M422 1289l69 72q6 6 13 9t14 3q6 0 12.5 -3t12.5 -9l71 -76q5 -4 7 -10t2 -14q-1 -9 -3 -15t-8 -12l-71 -76q-12 -11 -16 -13.5t-7 -2.5q-10 0 -16.5 2.5t-10.5 8.5l-75 87q-4 4 -6 9.5t-2 13.5q0 6 3 12.5t11 13.5z" />
    <glyph glyph-name="ring" unicode="&#x2da;" horiz-adv-x="1024" 
d="M411 1257q0 -42 29 -71t71 -29t71 29t29 71q0 40 -29.5 69.5t-70.5 29.5t-70.5 -29.5t-29.5 -69.5zM335 1257q0 75 51 126t125 51q76 0 127.5 -51.5t51.5 -125.5q0 -75 -51.5 -126.5t-127.5 -51.5q-74 0 -125 51.5t-51 126.5z" />
    <glyph glyph-name="ogonek" unicode="&#x2db;" horiz-adv-x="1024" 
d="M640 0q-71 -62 -110.5 -119.5t-39.5 -112.5q0 -47 27 -75t73 -28q40 0 69.5 15.5t49.5 48.5l28 -16q-36 -63 -90.5 -97t-119.5 -34q-70 0 -114 35.5t-44 90.5q0 76 60.5 156.5t161.5 135.5h49z" />
    <glyph glyph-name="tilde" unicode="&#x2dc;" horiz-adv-x="405" 
d="M298 1600h12q76 -72 76 -148v-64q0 -67 -68 -168l-20 -4l-12 12v36q0 95 -60 232q26 59 72 104zM54 1500h8q84 -71 84 -184q0 -90 -68 -192l-16 -12h-8l-12 12v20q0 112 -60 248q13 43 72 108z" />
    <glyph glyph-name="hungarumlaut" unicode="&#x2dd;" horiz-adv-x="1024" 
d="M217 1079l144 273q24 44 45.5 63t46.5 19q28 0 48 -20t20 -47q0 -16 -10.5 -35t-30.5 -41l-205 -212h-58zM502 1079l144 273q24 44 45.5 63t46.5 19q28 0 48 -20t20 -47q0 -16 -10.5 -35t-30.5 -41l-205 -212h-58z" />
    <glyph glyph-name="endash" unicode="&#x2013;" horiz-adv-x="1108" 
d="M56 419v120h996v-120h-996z" />
    <glyph glyph-name="emdash" unicode="&#x2014;" horiz-adv-x="391" 
d="M75 1642h12q31 -21 72 -104q-60 -136 -60 -232v-36l-12 -12q-53 0 -92 184v28q0 99 80 172zM323 1542h8q68 -78 68 -104v-12q-56 -131 -56 -240v-20l-12 -12h-8q-37 15 -80 152l-4 56q0 106 84 180z" />
    <glyph glyph-name="quoteleft" unicode="&#x2018;" horiz-adv-x="0" 
d="M-446 1581h108q139 0 312 -124l60 -72v-8l-8 -8q-291 164 -372 164l-40 4q-138 0 -188 -144v-8l36 -112v-16l-4 -4v-4l-20 4h-32q-88 0 -108 64l-4 20q41 128 124 180q64 53 136 64z" />
    <glyph glyph-name="quoteright" unicode="&#x2019;" horiz-adv-x="5" 
d="M-376 1573h56q87 0 252 -128v-8h-8q-188 84 -256 84q-31 0 -36 -16q304 -78 304 -196v-48q0 -49 -92 -100l-24 -8h-12q-135 49 -216 192l-32 100l-80 4h-72q-148 0 -188 -132l-4 -20q0 -71 88 -144v-20q-4 -12 -24 -12q-148 58 -148 172v4q0 120 144 192q91 32 188 32
l108 -8q9 60 52 60zM-360 1429q17 -56 156 -184l24 -8q16 20 16 56q0 101 -192 140z" />
    <glyph glyph-name="quotesinglbase" unicode="&#x201a;" horiz-adv-x="1700" 
d="M1530 1569h24q28 -16 28 -56q0 -73 -80 -124q-41 0 -100 -60q-162 -131 -240 -244l-260 -384q-36 -100 -36 -184q0 -164 88 -164h4q52 0 52 36q71 196 488 692q84 104 168 104h12q120 -17 120 -60l8 -60v-92q-17 -266 -416 -888l-20 -24h-16q-12 4 -12 24v4q0 71 240 572
q112 253 112 340v24q0 22 -16 28h-4q-104 0 -432 -436q-140 -192 -140 -212q80 40 128 40h8q60 0 60 -80v-12q0 -78 -112 -132q-61 -104 -120 -104q-86 0 -108 116l12 52h-12q-86 0 -140 84q-17 -115 -96 -216q-137 -148 -248 -148h-4q-146 0 -308 232q-40 20 -60 20
q-38 0 -64 -72q-99 -152 -140 -152h-20q-72 11 -72 68v8q0 48 100 124q174 148 240 148l48 -8l204 196v4q0 28 -36 80v8q0 22 56 116h4l64 -120h8l556 516l396 344q64 52 84 52zM738 757v-4q64 -34 96 -76q48 134 152 296v4h-4q-83 -64 -244 -220zM526 565q76 -151 76 -252
q0 -108 -108 -152h-44q-51 0 -120 96q-12 37 -12 68v8q0 25 16 72h-4q-47 -13 -100 -64q56 -53 100 -140q67 -116 132 -116q91 0 204 172q84 211 84 328q0 92 -48 92h-20q-65 0 -156 -112zM362 393v-12q0 -74 92 -140q64 0 64 60q-5 66 -76 196q-80 -60 -80 -104zM1022 245
v-8q0 -24 24 -40q84 37 84 76q10 27 84 68l4 16l-24 8v4q-164 -58 -164 -96zM-78 141l128 112h-4q-66 0 -124 -112z" />
    <glyph glyph-name="quotedblleft" unicode="&#x201c;" horiz-adv-x="1500" 
d="M1465 1496h32q28 -17 28 -52q-25 -128 -116 -128q-233 -190 -296 -300l-192 -276v-4q76 60 196 60q223 0 404 -188q20 -37 20 -56v-40q0 -89 -188 -148l-48 64v4l8 8h12l16 -4q104 17 104 72q0 86 -236 172l-64 4q-139 0 -188 -56l-8 -28q0 -46 64 -84q0 65 68 88l40 4
q136 -35 136 -92v-16q0 -57 -160 -92q-9 -12 -20 -12v-4h8q54 28 96 28h24q48 0 48 -84q0 -75 -108 -132l-8 -28l8 -72q0 -25 -32 -40q-50 0 -140 136l-8 28v20l4 20h-40q-85 0 -136 80q-17 -134 -132 -248q-110 -100 -192 -100h-8q-142 0 -292 220q-33 20 -64 20
q-32 0 -68 -84q-70 -106 -116 -128h-28q-68 10 -68 60v12q0 48 84 108q173 152 244 152l36 -8q34 24 204 188q0 21 -36 84v4q0 30 56 108q9 -4 64 -112h4l512 472q439 388 452 388zM717 720q75 -52 92 -76q47 129 144 284h-4q-81 -62 -232 -208zM513 540q72 -148 72 -224
v-20q0 -122 -116 -148h-16q-71 0 -128 100l-12 60l16 76h-4q-55 -24 -92 -60q44 -48 128 -188q47 -60 92 -60q73 0 176 136q96 193 96 328v28q0 76 -48 76h-8q-60 0 -156 -104zM849 588l-8 -88v-12q0 -156 84 -156h8q64 10 64 32l12 56q-152 95 -152 168h-8zM1105 480
q75 0 96 40q-16 40 -60 40h-16q-14 0 -20 -80zM433 472q-76 -63 -76 -100v-20q0 -55 84 -124h12q52 0 52 52q-3 67 -72 192zM1169 336q0 -17 -24 -24v-4h4q24 10 24 24v4h-4zM1033 196q0 -35 32 -56q8 0 28 124l32 32h-8q-68 -18 -68 -28zM-63 132l120 104h-4
q-61 0 -116 -104z" />
    <glyph glyph-name="quotedblright" unicode="&#x201d;" horiz-adv-x="910" 
d="M238 1577q44 0 88.5 -65.5t44.5 -151.5q0 -109 -71 -226.5t-139 -117.5v43q73 43 87 190q0 119 -129 161v42zM591 1577q44 0 88.5 -65.5t44.5 -151.5q0 -109 -71 -226.5t-139 -117.5v43q73 43 87 190q0 119 -129 161v42z" />
    <glyph glyph-name="quotedblbase" unicode="&#x201e;" horiz-adv-x="984" 
d="M628 1256h76q142 0 220 -212q48 -195 48 -332v-156q0 -256 -160 -452q-113 -104 -180 -104q-148 54 -148 100q-28 37 -28 88v8q0 132 124 272v4h-28q-185 0 -228 -68q-61 0 -84 108q-10 60 -16 60q-53 0 -116 -100q-24 -65 -24 -148q0 -70 40 -320l-4 -4h-4
q-92 99 -92 276q8 114 28 180q-52 84 -52 228v8q0 239 304 444q229 120 324 120zM96 556h8q58 77 144 112q32 60 80 60h8q41 0 64 -40q48 -30 48 -72v-20l-12 -44l4 -4q168 31 256 68q12 -20 12 -40v-16q0 -51 -92 -224q-28 -58 -28 -100v-20q0 -61 56 -108h16q98 0 164 216
q36 215 36 332v40q-10 361 -184 432l-80 8q-323 0 -464 -364q-36 -113 -36 -216z" />
    <glyph glyph-name="dagger" unicode="&#x2020;" horiz-adv-x="1500" 
d="M967 1287q101 0 216 -224q80 -205 80 -304v-44q2 -30 120 -116q296 -261 296 -296v-8q0 -8 -12 -8q-97 30 -404 260h-4q-53 -274 -192 -440q-103 -100 -248 -100q-135 0 -228 92q-20 39 -20 84q0 186 156 328v4h-16l-12 4q-78 -8 -132 -28v-4l4 -40q0 -179 -188 -364
q-101 -88 -208 -88q-137 0 -160 128l-4 32v4l12 64q-84 23 -84 156v8q0 189 252 272q104 24 192 24q101 0 168 -124h4q136 60 212 60q117 0 168 -132q-3 -26 -60 -56q-136 0 -192 -200v-28q82 -72 188 -72h20q158 0 228 264q20 73 20 148v48q-100 34 -304 256
q-104 140 -104 252q0 130 164 188h72zM847 1087q0 -94 256 -284v8q-32 130 -88 240q-50 81 -84 92q-73 0 -84 -56zM35 403q16 -80 68 -80q74 75 292 172l24 8v8q-56 84 -108 84h-20q-146 0 -236 -116q-20 -36 -20 -76zM115 155q0 -62 112 -72q94 0 180 136q40 80 40 156v20
q0 52 -16 52q-104 -23 -192 -104q-124 -124 -124 -188z" />
    <glyph glyph-name="daggerdbl" unicode="&#x2021;" horiz-adv-x="1200" 
d="M202 742h72q105 0 144 -180l4 -60v-8q46 12 96 12h4q43 0 96 -24q0 58 300 180q102 44 156 44h28q84 -15 84 -84v-4q0 -92 -76 -148q-340 -333 -340 -348v-24q0 -17 48 -20q150 0 340 44q65 0 80 -100v-4q0 -46 -76 -232q-24 -83 -24 -156q16 -174 128 -216
q95 -36 168 -36q113 0 212 104h28l12 -12v-32q-115 -102 -280 -140l-96 -8h-4q-244 0 -316 212q-11 32 -16 96q0 115 120 428h-4q-133 -32 -224 -32h-44q-168 0 -168 44q-8 16 -8 44v8q0 125 280 300q132 90 132 180q0 36 -52 36q-109 0 -288 -152l-4 -40q28 -89 28 -116
q-87 -84 -100 -84q-72 184 -132 184q0 7 -48 8h-20q-57 0 -180 -292q-50 -68 -116 -68q-100 0 -152 172v8l16 16h4l104 -20q58 0 144 164q16 58 16 88v12q-17 128 -96 128l-24 4q-158 0 -268 -336l-20 -16h-12q-14 0 -20 44v24q0 186 192 336q105 72 172 72z" />
    <glyph glyph-name="bullet" unicode="&#x2022;" horiz-adv-x="1024" 
d="M216 718q0 123 87 209t210 86q122 0 208.5 -86.5t86.5 -208.5t-87.5 -209.5t-209.5 -87.5q-123 0 -209 87t-86 210z" />
    <glyph glyph-name="ellipsis" unicode="&#x2026;" horiz-adv-x="1474" 
d="M1139 1214h76q152 0 228 -240q40 -188 40 -304v-156q0 -255 -160 -452q-108 -99 -180 -104q-110 30 -156 104q-20 50 -20 80v28q0 112 124 256v4h-28q-182 0 -232 -68h-4q-58 0 -88 148l-32 8h-24q-48 0 -76 -16l8 -88l-32 -16l-16 8q-12 -120 -148 -288
q-127 -120 -224 -120h-28q-66 0 -124 52q-32 53 -32 112l12 64h-4q-80 23 -80 160v4q0 186 244 268q111 28 196 28q74 0 124 -60l8 8v32q0 191 236 380q117 89 304 152q57 16 88 16zM611 586h4q103 36 140 36q38 64 76 64h16q60 0 60 -68v-48l-4 -16l28 -48q79 0 276 68
q12 -19 12 -52q0 -55 -100 -244q-16 -34 -24 -96q0 -56 56 -116h20q100 0 168 228q32 227 32 324v28q-5 336 -164 432q-36 16 -104 16q-284 0 -436 -300q-41 -80 -56 -208zM35 406q14 -80 68 -80q84 80 316 184q-48 88 -124 88q-148 0 -240 -116q-20 -41 -20 -76zM115 154
q17 -68 112 -68q126 0 208 204l12 100l-8 60q-91 -7 -216 -120q-108 -112 -108 -176z" />
    <glyph glyph-name="guilsinglleft" unicode="&#x2039;" horiz-adv-x="1400" 
d="M942 1314h84q137 0 212 -204l60 -292q64 -204 148 -336q137 -187 244 -228l8 -24v-12l-8 -8h-8q-134 33 -320 196q-175 185 -240 444q-56 228 -116 320q-31 32 -76 32q-142 0 -292 -152q-28 -55 -28 -76q0 -199 348 -452q100 -102 100 -208v-8q0 -165 -188 -316
q-74 -28 -124 -28q-99 0 -180 100h-4q-107 -52 -188 -52q-208 0 -208 176v4l4 80l-32 8q-156 -39 -156 -196q0 -118 148 -400v-8l-8 -8q-188 145 -188 420v16q0 184 212 292l60 12q68 -24 68 -80q12 -208 96 -208h16q28 0 228 96l44 8q32 0 32 -60q0 -77 56 -88h4
q171 0 220 160l4 40v12q0 143 -224 276q-280 203 -280 368q0 168 256 316q156 68 216 68z" />
    <glyph glyph-name="guilsinglright" unicode="&#x203a;" horiz-adv-x="954" 
d="M1003 1568h20l8 -8q-326 -89 -380 -156q-20 -21 -20 -44l8 -16q223 120 360 120h32q128 0 204 -124q16 -37 16 -68v-80q-20 -100 -64 -100q-72 -16 -116 -16h-48q-209 0 -392 140q-244 -192 -244 -252q-16 -28 -16 -76v-12q0 -193 200 -256l52 -8h60q20 -10 20 -32
q0 -33 -68 -44l88 -80q68 20 96 20l4 -4v-12q-17 -23 -52 -48q129 -236 172 -236q20 0 20 -8q-19 -44 -44 -236q-48 -175 -112 -300q-376 -668 -916 -668h-4q-270 0 -364 188q-24 61 -24 104v8q0 155 128 244h4q8 0 8 -12q-44 -82 -44 -160v-24q0 -110 104 -192
q86 -56 220 -56h12q611 0 876 900q16 58 16 104q-50 44 -64 44q-23 -9 -108 -80l-52 -8q-72 0 -72 80q0 132 112 256l16 8q-28 60 -76 60q-49 0 -100 -116q-203 -320 -400 -320q-128 0 -140 152v32q0 143 224 460q8 0 8 12l4 4h16q28 -18 28 -40v-24q0 -19 -112 -312
q-28 -77 -28 -136q0 -46 48 -52q154 0 356 432l12 16q-124 37 -176 120q-60 114 -60 196q0 176 204 364l108 88q-28 35 -28 64v12q0 89 204 160q199 28 256 28zM719 1280v-4q126 -76 372 -76h44v4q0 109 -164 152h-20q-96 0 -232 -76zM707 336q-80 -69 -80 -152v-28
q3 -24 12 -24h8q66 87 80 88h20l56 -24v4z" />
    <glyph glyph-name="fraction" unicode="&#x2044;" horiz-adv-x="342" 
d="M-342 -29l940 1461h84l-938 -1461h-86z" />
    <glyph glyph-name="fraction" unicode="&#x2215;" horiz-adv-x="342" 
d="M-342 -29l940 1461h84l-938 -1461h-86z" />
    <glyph glyph-name="franc" unicode="&#x20a3;" 
d="M247 357h-194v60h194v732q0 235 -103 235h-96v50h915l103 -231h-49q-59 182 -190 182l-316 -1q-102 0 -102 -235v-352h361q100 0 100 63v58h50v-342h-50v60q0 62 -100 62h-361v-281h194v-60h-194v-72q0 -235 102 -235h97v-50h-560v50h96q103 0 103 235v72z" />
    <glyph glyph-name="lira" unicode="&#x20a4;" 
d="M748 1347q-72 31 -160 31h-2q-100 0 -190 -101q-84 -93 -84 -241q0 -15 1 -30q0 -106 33 -213h380v-60h-360q12 -30 26 -60h352v-60h-321q35 -63 35 -138q0 -161 -162 -375h402q130 0 189 132l49 -1l-103 -231h-719l1 50q187 238 187 418q0 77 -34 143l-2 2h-172v60h143
q-14 31 -26 60h-135v60h113q-36 107 -36 193q0 226 123.5 347t310.5 121q75 0 185.5 -14t110.5 -34v-161h-58q-5 61 -77 102z" />
    <glyph glyph-name="peseta" unicode="&#x20a7;" horiz-adv-x="2028" 
d="M409 1384v-662q3 -9 7 -17q41 -102 108 -153q57 -44 116 -44q10 0 19 1q68 8 127 75t87 177q22 87 22 179q0 24 -1 47q-7 116 -49.5 218.5t-108.5 144.5q-56 35 -112 35q-10 0 -21 -1h-194zM1496 908h-179v-685q0 -81 34 -119q28 -31 81 -37l-71 192l49 1
q55 -130 114 -174q57 -44 127 -44h7q92 0 151 52q59 53 59 136q0 102 -259 226q-101 52 -144 112t-43 145q0 121 73 194zM1039 910q-7 -101 -48 -194q-50 -114 -141 -177.5t-190 -63.5q-100 0 -191 64q-33 22 -60 51v-305q0 -235 102 -235h97v-50h-560v50h96q103 0 103 235
v864q0 235 -103 235h-96v50h618q92 -2 181 -62q91 -62 143 -177q50 -113 51 -237h10q216 0 216 355h50v-355h259q42 19 110 20h2q54 0 133.5 -13.5t79.5 -33.5v-159h-42q-4 66 -65.5 108t-133.5 42q-64 0 -102.5 -36.5t-38.5 -96.5q0 -108 235 -220q122 -55 167.5 -117.5
t45.5 -153.5q0 -140 -83 -231q-102 -84 -228 -86q-58 0 -105 11q-28 6 -56 6q-18 0 -36 -3q-28 -5 -59 -5q-124 0 -173.5 57t-57.5 176h-1v687h-129z" />
    <glyph glyph-name="Euro" unicode="&#x20ac;" 
d="M140 372q-62 135 -76 281h-108l17 60h87v29q0 16 1 31h-71l17 60h58q14 145 76 281q81 178 226 274t298 96q43 0 87 -8q40 -10 82 -29q8 -6 16 -6q20 0 34 45h41l84 -281l-40 -1q-49 134 -138 178q-43 22 -81 32v3q-50 16 -101 16q-17 0 -34 -2q-120 -12 -226 -113.5
t-157 -273.5q-32 -104 -39 -211h706l-17 -60h-692q0 -30 2 -60h674l-17 -60h-652q17 -158 83 -298q74 -157 193 -236q102 -68 216 -69q186 3 256 91q74 91 74 185h48v-143q0 -70 -111 -127q-105 -54 -267 -56q-181 0 -325.5 98t-223.5 274z" />
    <glyph glyph-name="afii61352" unicode="&#x2116;" horiz-adv-x="2271" 
 />
    <glyph glyph-name="trademark" unicode="&#x2122;" horiz-adv-x="2911" 
d="M996 1060q28 -11 28 -44v-16l-44 -388v-76h12q48 0 48 -16l-48 -44v-8q0 -42 44 -176q-2 -17 -36 -28q-124 9 -124 48q-21 29 -56 160l-24 -4l-324 -20q-336 -432 -444 -432q-28 6 -28 16v12q35 71 360 404h-84q-72 0 -72 36q55 76 156 76l84 -8q515 508 552 508z
M2876 1052h24v-4l-364 -312q52 -128 136 -128l88 4v-8l-192 -164h-4l-156 172l-152 -152l-24 -8h-56l-8 8v20l16 56q-179 -80 -288 -80t-208 112q-24 39 -24 72q0 61 340 228q66 28 84 28h12q72 -25 72 -44q0 -54 -264 -192l-8 -8q76 -116 212 -116h28q56 0 56 24
q22 59 40 80l56 -16h16l64 12v4q-119 127 -184 144l-4 4v4q6 56 12 56q41 -28 68 -28q131 56 148 56q38 -25 100 -108zM1416 892l4 -4v-20q-22 0 -76 -180l-4 -56h4q93 115 212 168l20 4q43 0 92 -76l4 -12q0 -88 -128 -216q-58 -20 -180 -36l-52 4q-25 0 -48 -96
q-113 -325 -140 -372v4l104 416v4h-4l-124 -412h-8l84 448q-75 26 -80 36v12q0 16 24 48l40 -8l4 4h24q44 171 44 216q-4 16 -24 16h-8l-72 -12l-4 4v16l4 4v4l4 -4h4q25 0 280 96zM560 548h4l256 -12v8l-4 52q0 112 44 264zM1908 784l-28 -44l12 -48q80 24 80 48
q0 17 -64 44zM1316 492h84q70 0 112 108v4q-25 76 -72 76h-4q-68 -67 -120 -188zM1380 196h4q122 -100 144 -100v-8h-76v4l4 12h-4l-20 16h-116q-22 0 -36 -24h8v-8h-52v8q20 0 144 100zM1672 196h12v-4l-112 -108h-12v4q55 61 112 108zM1364 168l-44 -40h100q-42 40 -56 40
zM1760 160l4 -12l60 12h16q58 0 72 -36q0 -36 -116 -40v8h28q44 0 44 28q0 25 -60 28h-4l-40 -8v-40l20 -4v-8h-12l-4 4h-4v-24l8 -8h20v-8h-100v8h28l4 20v60q0 8 -20 8v8h4zM1932 160h64l8 -8v-44q3 -12 32 -12l52 8v40l-8 8h-20v8h60l8 -8v-44l12 -16l-48 -8l-4 16
q-43 -16 -72 -16q-56 0 -56 44v24h-28v8zM2240 160l8 -12q21 12 40 12h28l8 -8q0 -8 -12 -8l-48 4l-20 -8v-44h8v-8h-56v4l8 12v16q0 28 -16 28h-8v8h4zM2404 160h8v-8q-22 0 -32 -16h-24l-8 8q18 16 56 16zM2424 160h32q40 0 40 -32q0 -29 12 -32l20 4q0 -10 -48 -16
l-24 12l-64 -12q-52 6 -52 20q0 19 100 28v-8h-4q-56 -4 -56 -16q3 -12 32 -12l44 8v24h-8v8h8v12l-20 4h-12v8zM2592 104h4q24 -2 24 -12l-36 -8l-16 12z" />
    <glyph glyph-name="partialdiff" unicode="&#x2202;" 
d="M232 537q0 -41 5 -79q14 -122 61.5 -230t118.5 -165q64 -53 128 -53q6 0 13 1q70 5 127.5 70.5t80.5 179.5q16 73 16 149q0 42 -5 85q-14 122 -62.5 231.5t-119.5 165.5q-65 50 -128 50h-11q-68 -5 -126 -69.5t-82 -178.5q-16 -84 -16 -157zM937 477q0 -132 -56.5 -251
t-159 -185t-214.5 -66t-214.5 66t-159 185t-56.5 251q0 131 58 251t161 185t211 65q109 0 212 -65q29 -18 54 -41q-84 235 -233.5 377t-326.5 155v55q306 0 515 -285t209 -697z" />
    <glyph glyph-name="Delta" unicode="&#x2206;" horiz-adv-x="1081" 
d="M514 1195l-406 -1072h801zM547 1434l526 -1434h-1067z" />
    <glyph glyph-name="product" unicode="&#x220f;" horiz-adv-x="1515" 
d="M511 1384q-102 0 -102 -235v-1281q0 -235 102 -235h97v-51h-560v51h96q103 0 103 235v1281q0 235 -103 235h-96v50h1419v-50h-97q-102 0 -102 -235v-1281q0 -235 102 -235h97v-50h-560v50h96q103 0 103 235v1281q0 235 -103 235h-492z" />
    <glyph glyph-name="summation" unicode="&#x2211;" horiz-adv-x="1206" 
d="M1059 548l-788 -914h635q130 0 189 182h49l-103 -232h-921v50q62 0 106 53l663 781l-663 859q-44 57 -106 57v50h921l103 -232h-49q-59 182 -189 182h-485z" />
    <glyph glyph-name="minus" unicode="&#x2212;" 
d="M87 647v140h839l1 -1v-139h-840z" />
    <glyph glyph-name="radical" unicode="&#x221a;" 
d="M181 0l-164 359l74 35l85 -185l728 1470h150v-60h-72z" />
    <glyph glyph-name="infinity" unicode="&#x221e;" 
d="M439 755q-15 103 -74 133q-46 22 -84 22q-12 0 -23 -2q-49 -10 -92.5 -44.5t-65.5 -84.5q-20 -46 -20 -90v-8q2 -48 27.5 -89t71.5 -58q29 -11 61 -11q16 0 33 3q47 10 90.5 43.5t75.5 185.5zM466 687q12 -96 94 -153q69 -48 123 -48q11 0 21 2q62 12 117.5 52t84.5 101
q26 54 26 108v11q-2 60 -35.5 108.5t-91.5 68.5q-37 13 -76 13q-22 0 -44 -4q-67 -9 -127 -62t-92 -197zM450 827q9 35 21 69q34 88 95 137t128 49t128 -48t95 -135t34 -182t-34 -182t-95 -135t-128 -48t-128 49t-95 136q-12 35 -21 70q-5 -21 -12 -41q-27 -73 -74 -113
t-99 -40t-100 41t-73.5 113.5t-25.5 149.5q0 76 25.5 149t73.5 114t100 41t99 -40t74 -112q7 -21 12 -42z" />
    <glyph glyph-name="integral" unicode="&#x222b;" horiz-adv-x="665" 
d="M-12 -281q-60 0 -60 29v159h36q1 -43 34.5 -64.5t63.5 -21.5h1q82 0 115 162q32 162 40 316l70 734l8 62q27 238 135 429.5t234 191.5q60 0 60 -29v-159h-36q-1 43 -35 64.5t-63 21.5q-71 0 -116 -155.5t-49 -363.5l-73 -767q-20 -231 -130.5 -420t-234.5 -189z" />
    <glyph glyph-name="approxequal" unicode="&#x2248;" 
d="M923 1053v-156q-63 -72 -122 -97.5t-116 -25.5q-60 0 -177.5 48.5t-176.5 48.5q-51 0 -107.5 -28t-129.5 -112v156q64 73 123 99t114 26q64 0 181.5 -49.5t172.5 -49.5q52 0 108.5 28t129.5 112zM923 705v-156q-63 -72 -122 -97.5t-116 -25.5q-60 0 -177.5 48.5
t-176.5 48.5q-51 0 -107.5 -28t-129.5 -112v156q64 73 123 99t114 26q64 0 181.5 -49.5t172.5 -49.5q52 0 108.5 28t129.5 112z" />
    <glyph glyph-name="lessequal" unicode="&#x2264;" 
d="M927 1074l-625 -359l625 -355v-167l-840 481v83l840 484v-167zM87 1v140h839l1 -1v-139h-840z" />
    <glyph glyph-name="greaterequal" unicode="&#x2265;" 
d="M87 1241l840 -484v-83l-840 -481v167l625 355l-625 359v167zM87 2v140h839l1 -1v-139h-840z" />
    <glyph glyph-name="uniF001" unicode="&#xf001;" horiz-adv-x="1073" 
 />
    <glyph glyph-name="uniF001" unicode="&#xfb01;" horiz-adv-x="1073" 
 />
    <glyph glyph-name="uniF002" unicode="&#xf002;" horiz-adv-x="1081" 
 />
    <glyph glyph-name="uniF002" unicode="&#xfb02;" horiz-adv-x="1081" 
 />
  </font>
</defs>
</svg>
