 <svg  version="1.0" xmlns="http://www.w3.org/2000/svg"  width="300.000000pt" height="78.000000pt" viewBox="0 0 300.000000 78.000000"  preserveAspectRatio="xMidYMid meet">  <g transform="translate(0.000000,78.000000) scale(0.100000,-0.100000)" fill="#171364" stroke="none"> <path d="M930 525 c-13 -39 -6 -75 16 -75 16 0 19 16 3 25 -6 4 -8 22 -4 46 8 48 0 51 -15 4z"/> <path d="M1052 491 c-57 -56 -111 -181 -77 -181 8 0 15 5 15 10 0 6 9 1 20 -10 44 -44 123 -12 123 50 0 46 -35 74 -85 67 l-38 -5 27 35 c14 19 35 41 47 48 11 8 17 17 14 20 -3 3 -23 -12 -46 -34z m56 -125 c5 -22 -25 -56 -48 -56 -10 0 -28 9 -41 19 -20 16 -22 23 -13 38 19 31 56 44 79 29 11 -7 22 -21 23 -30z"/> <path d="M424 489 c-50 -39 -52 -41 -32 -34 19 8 30 -38 17 -73 -19 -49 -5 -100 25 -89 13 5 14 11 5 33 -7 20 -7 36 2 56 11 28 38 34 30 7 -13 -46 -11 -66 7 -83 26 -23 50 -18 75 15 16 23 18 36 12 89 -12 108 -67 138 -141 79z m90 5 c9 -4 22 -16 28 -27 11 -21 11 -21 -15 -4 -15 9 -38 17 -52 17 -14 0 -25 5 -25 10 0 11 39 13 64 4z m0 -45 c20 -16 26 -29 26 -59 0 -51 -8 -70 -31 -70 -17 0 -19 6 -17 53 3 50 2 52 -24 55 -20 2 -28 9 -28 23 0 26 39 25 74 -2z"/> <path d="M1465 470 c-16 -16 -39 -30 -51 -30 -13 0 -35 -11 -51 -24 -25 -22 -26 -26 -15 -51 11 -24 10 -29 -5 -40 -24 -18 -18 -22 48 -30 51 -6 59 -5 80 16 13 13 30 23 36 21 18 -4 16 18 -4 40 -9 10 -13 21 -9 26 4 4 14 -2 22 -12 13 -18 15 -18 32 -3 40 36 44 -24 5 -65 -15 -15 -22 -28 -16 -28 18 0 63 60 63 85 0 31 -25 51 -44 36 -11 -9 -16 -9 -21 0 -4 6 -19 9 -35 6 -46 -10 -55 12 -18 50 18 18 27 33 22 33 -6 0 -23 -13 -39 -30z m-72 -84 c-10 -13 -21 -22 -26 -19 -11 7 12 43 29 43 13 0 12 -4 -3 -24z m65 12 c19 -19 15 -66 -7 -78 -25 -13 -68 -13 -76 0 -3 5 8 9 28 8 57 -2 78 29 37 54 -11 7 -20 16 -20 20 0 12 25 9 38 -4z m-18 -43 c0 -8 -4 -15 -10 -15 -5 0 -10 7 -10 15 0 8 5 15 10 15 6 0 10 -7 10 -15z m-40 -5 c0 -5 -5 -10 -11 -10 -5 0 -7 5 -4 10 3 6 8 10 11 10 2 0 4 -4 4 -10z"/> <path d="M2036 484 c-3 -9 -6 -27 -6 -40 0 -26 -7 -28 -75 -25 -30 2 -46 -3 -58 -17 -13 -14 -15 -22 -7 -27 7 -4 17 -2 23 4 6 6 20 11 31 11 14 0 5 -9 -27 -31 -46 -30 -55 -52 -19 -42 10 2 24 -3 31 -11 16 -19 38 -21 43 -5 3 8 10 9 23 2 11 -6 26 -8 33 -6 17 6 15 54 -4 81 -13 20 -14 22 0 22 9 0 23 -12 33 -26 14 -21 15 -33 6 -65 -9 -33 -8 -37 3 -28 19 15 18 68 -2 115 -9 20 -14 53 -12 71 4 34 -5 45 -16 17z m-30 -129 c20 -31 11 -45 -14 -22 -23 21 -32 21 -32 2 0 -17 -2 -18 -25 -9 -14 6 -13 10 12 30 36 29 39 29 59 -1z"/> <path d="M2504 485 c-4 -8 -7 -26 -8 -40 0 -16 -6 -23 -14 -20 -20 7 -77 -20 -96 -46 -21 -30 -21 -93 0 -125 32 -48 107 -69 157 -43 31 16 67 50 67 63 0 6 -6 4 -13 -4 -45 -58 -126 -67 -176 -21 -46 43 -38 113 15 142 30 16 77 2 82 -25 5 -24 -12 -40 -34 -32 -13 5 -15 9 -6 18 16 16 15 28 -2 28 -20 0 -37 -25 -30 -44 10 -27 40 -38 69 -24 36 16 42 50 15 93 -16 25 -20 43 -15 65 7 31 -1 42 -11 15z"/> <path d="M233 479 c-18 -5 -35 -14 -38 -19 -4 -6 3 -6 20 0 46 17 83 12 116 -18 26 -23 31 -35 31 -71 -1 -53 -6 -59 -32 -36 -20 18 -21 18 -34 -1 -8 -10 -18 -16 -21 -12 -4 4 4 21 19 38 30 37 31 43 10 64 -28 29 -74 10 -74 -31 0 -22 4 -25 25 -21 30 6 30 7 5 -22 -26 -30 -25 -39 6 -50 35 -14 44 -13 44 7 0 15 1 15 18 0 23 -21 27 -21 46 -1 21 20 21 97 0 129 -8 13 -33 30 -55 39 -44 18 -42 18 -86 5z m52 -79 c3 -5 -1 -10 -9 -10 -9 0 -16 5 -16 10 0 6 4 10 9 10 6 0 13 -4 16 -10z"/> <path d="M2113 475 c-18 -8 -33 -19 -33 -25 0 -7 9 -5 22 4 32 23 80 20 107 -5 19 -18 22 -29 18 -61 -7 -54 -23 -70 -66 -66 -31 3 -36 7 -39 32 -2 16 1 33 7 39 8 8 11 3 11 -16 0 -35 25 -45 50 -22 37 33 19 75 -32 75 -62 0 -91 -81 -42 -119 43 -33 70 -27 124 29 53 55 53 55 81 40 29 -16 23 -44 -16 -79 -24 -21 -30 -31 -20 -31 25 0 75 55 75 83 0 37 -33 61 -74 54 -30 -5 -35 -2 -40 19 -12 47 -81 72 -133 49z m73 -76 c3 -6 2 -15 -4 -21 -6 -6 -11 -2 -15 11 -5 22 7 29 19 10z"/> <path d="M1282 448 c-7 -7 -12 -27 -12 -44 0 -23 -8 -39 -26 -53 -31 -25 -19 -28 15 -5 19 14 25 14 32 3 14 -22 11 -28 -16 -35 -29 -7 -75 2 -75 15 0 5 12 23 26 40 29 35 26 58 -8 66 -27 7 -78 -9 -78 -24 0 -17 19 -22 41 -11 32 18 34 4 5 -30 -14 -17 -26 -38 -26 -46 0 -32 109 -47 145 -20 17 12 18 17 7 41 -10 22 -9 31 4 55 26 43 -1 81 -34 48z m28 -20 c0 -7 -4 -19 -9 -27 -11 -17 -23 1 -15 23 7 19 24 21 24 4z"/> <path d="M753 430 c-13 -5 -23 -14 -23 -20 0 -16 30 -24 43 -11 6 6 17 11 25 11 9 0 3 -13 -17 -35 -35 -40 -37 -48 -18 -64 28 -22 72 -24 97 -2 22 17 23 22 12 40 -10 18 -9 24 8 41 49 49 79 -6 40 -74 l-22 -41 26 26 c36 34 44 87 19 118 -18 22 -22 23 -48 10 -40 -20 -73 -65 -57 -81 7 -7 12 -16 12 -20 0 -11 -31 -10 -49 1 -12 8 -9 15 13 41 15 18 26 40 24 49 -4 19 -52 25 -85 11z"/> <path d="M1752 414 c-38 -20 -62 -60 -62 -105 0 -48 65 -109 116 -109 22 0 55 8 73 18 37 20 72 62 52 62 -6 0 -11 -5 -11 -10 0 -19 -65 -50 -104 -50 -30 0 -45 7 -73 35 -30 30 -35 40 -29 68 11 59 85 99 116 62 16 -19 9 -49 -14 -53 -16 -3 -18 0 -12 23 6 22 4 26 -11 23 -27 -5 -30 -54 -4 -67 55 -30 110 50 64 92 -28 25 -65 29 -101 11z"/> <path d="M584 335 c-4 -9 0 -23 9 -32 21 -21 49 -9 45 19 -4 28 -45 38 -54 13z"/> </g> </svg> 