<?xml version="1.0" standalone="no"?>
<!DOCTYPE svg PUBLIC "-//W3C//DTD SVG 20010904//EN"
 "http://www.w3.org/TR/2001/REC-SVG-20010904/DTD/svg10.dtd">
<svg version="1.0" xmlns="http://www.w3.org/2000/svg"
 width="300.000000pt" height="81.000000pt" viewBox="0 0 300.000000 81.000000"
 preserveAspectRatio="xMidYMid meet">
<metadata>
Created by potrace 1.10, written by Peter Selinger 2001-2011
</metadata>
<g transform="translate(0.000000,81.000000) scale(0.100000,-0.100000)"
fill="#171364" stroke="none">
<path d="M991 563 c-18 -102 -20 -165 -3 -171 9 -3 11 6 7 35 -3 21 1 61 8 88
l14 50 12 -37 c7 -21 28 -51 47 -66 l35 -29 -46 -37 c-89 -73 -105 -169 -25
-150 30 7 70 42 70 61 0 11 37 33 57 33 3 0 -5 -16 -16 -36 -12 -19 -19 -40
-16 -45 4 -5 24 -9 46 -9 28 0 42 6 51 20 12 18 13 18 31 2 18 -16 20 -16 37
6 23 28 24 27 54 -3 14 -14 29 -25 34 -25 17 0 62 41 62 57 0 10 6 13 16 9 9
-3 24 -6 35 -6 15 0 17 -4 9 -24 -5 -13 -6 -27 -3 -30 10 -9 53 -7 53 3 0 5
-9 7 -19 4 -16 -4 -19 -1 -14 16 3 12 9 24 14 27 5 3 9 12 9 21 0 11 -6 14
-20 9 -11 -3 -29 -9 -40 -12 -17 -5 -20 -2 -20 26 0 36 42 102 94 148 34 29
46 52 29 52 -5 0 -50 -39 -102 -86 -61 -54 -97 -81 -101 -73 -6 8 -9 8 -15 -1
-4 -6 -4 -14 -1 -17 8 -9 -24 -43 -40 -43 -7 0 -26 -11 -42 -25 -26 -22 -31
-23 -42 -10 -11 13 -11 20 0 39 16 30 6 46 -27 46 -23 0 -25 -3 -19 -30 4 -22
2 -30 -9 -30 -8 0 -12 6 -10 13 3 6 -6 17 -19 23 -18 8 -25 8 -32 -4 -6 -8
-28 -14 -58 -15 l-48 -2 55 50 c61 56 221 155 249 155 11 0 18 7 18 20 0 20
-1 20 -48 -4 -26 -13 -78 -45 -115 -70 l-68 -45 -29 25 c-33 30 -47 60 -58
123 -4 25 -12 46 -17 48 -6 2 -17 -32 -24 -74z m487 -148 c-6 -14 -18 -25 -26
-25 -12 0 -10 6 8 25 13 14 25 25 27 25 1 0 -3 -11 -9 -25z m-36 -61 c-10 -67
-42 -96 -73 -68 -24 22 -24 36 0 51 17 11 21 9 26 -8 9 -27 0 -35 -20 -19 -13
11 -14 10 -9 -4 8 -20 40 -21 48 0 3 8 1 25 -5 36 -8 16 -8 23 2 29 20 13 34
5 31 -17z m-202 -10 c0 -8 -4 -14 -10 -14 -5 0 -10 9 -10 21 0 11 5 17 10 14
6 -3 10 -13 10 -21z m-155 -24 c8 -13 -39 -60 -60 -60 -26 0 -17 38 13 54 33
18 39 19 47 6z m105 -40 c15 0 21 18 8 23 -10 4 -10 6 0 6 19 1 27 -30 11 -40
-8 -5 -16 -9 -19 -9 -18 0 -32 20 -25 36 8 18 8 18 12 2 3 -10 8 -18 13 -18z"/>
<path d="M2116 507 c-10 -50 -18 -102 -17 -114 0 -17 -5 -23 -20 -23 -11 0
-29 -5 -40 -11 -15 -7 -24 -7 -34 1 -8 6 -26 10 -42 8 -33 -4 -44 -35 -18 -54
10 -8 12 -14 6 -19 -19 -11 -13 -45 7 -45 10 0 22 3 26 8 4 4 31 7 59 7 66 0
75 23 20 49 l-38 18 25 13 c32 17 46 6 62 -47 11 -38 13 -40 45 -35 20 4 31 2
28 -4 -6 -9 28 -14 75 -10 29 2 70 44 70 71 0 19 32 36 49 25 6 -3 5 -23 -4
-51 l-14 -46 35 5 c19 3 34 2 34 -4 0 -5 16 -27 36 -49 43 -47 84 -58 159 -41
55 12 135 62 135 83 0 6 -10 2 -22 -9 -78 -71 -179 -79 -244 -18 -27 25 -34
40 -34 69 0 73 48 127 131 145 56 13 68 1 29 -27 -16 -13 -30 -32 -30 -43 0
-18 4 -19 38 -13 57 10 95 70 57 92 -12 6 -14 16 -7 48 l8 39 21 -47 c22 -47
62 -84 85 -75 8 3 2 9 -14 15 -37 15 -57 50 -71 121 -6 34 -17 61 -23 61 -6 0
-14 -25 -17 -58 -9 -84 -12 -89 -65 -96 -91 -12 -172 -82 -172 -147 0 -16 -4
-29 -9 -29 -5 0 -17 -3 -26 -6 -16 -6 -16 -5 -1 24 31 60 12 97 -38 74 -21 -9
-23 -7 -34 34 -13 48 -43 65 -81 44 -12 -6 -26 -8 -31 -5 -19 12 -39 62 -46
113 -3 29 -12 52 -18 52 -6 0 -19 -42 -30 -93z m71 -69 c15 -17 15 -20 -9 -46
-27 -29 -44 -77 -29 -86 5 -3 11 7 14 22 8 40 52 81 80 75 18 -4 19 -3 7 6
-12 9 -10 11 11 11 30 0 49 -32 49 -85 0 -55 -49 -91 -88 -67 -9 7 -8 13 8 27
21 19 29 8 8 -13 -7 -7 -8 -12 -2 -12 6 0 19 9 29 20 14 16 16 23 7 32 -9 9
-19 7 -41 -10 -47 -34 -77 -38 -92 -11 -17 33 -20 106 -7 167 l11 53 14 -33
c8 -18 21 -40 30 -50z m493 -33 c0 -14 -4 -25 -10 -25 -5 0 -10 11 -10 25 0
14 5 25 10 25 6 0 10 -11 10 -25z m-40 -25 c0 -11 -7 -20 -15 -20 -13 0 -14 4
-5 20 6 11 13 20 15 20 3 0 5 -9 5 -20z m-663 -57 c-15 -15 -17 -15 -23 1 -8
21 16 40 30 26 7 -7 4 -16 -7 -27z m82 -31 c14 -5 20 -11 14 -15 -5 -3 -22 0
-37 8 -24 13 -30 13 -52 -1 -30 -20 -31 -8 -2 23 19 20 23 21 37 9 9 -8 27
-19 40 -24z"/>
<path d="M562 530 c-49 -35 -67 -68 -58 -104 7 -28 67 -96 85 -96 19 0 12 18
-9 25 -23 7 -27 25 -5 25 8 0 15 5 15 10 0 6 -9 10 -19 10 -38 0 -33 57 7 79
21 11 35 4 51 -26 15 -29 14 -56 -5 -125 -16 -57 -34 -77 -34 -38 0 13 -10 24
-26 30 -38 15 -44 13 -44 -14 0 -14 -4 -28 -10 -31 -12 -7 -13 -25 -2 -25 5 0
15 11 22 25 7 14 19 25 27 25 7 0 13 -11 13 -25 0 -18 5 -25 19 -25 27 0 44
31 81 149 41 128 37 154 -26 159 -31 2 -49 -3 -82 -28z m106 -37 c2 -24 -1
-51 -7 -60 -9 -15 -10 -14 -11 11 0 33 -25 66 -49 66 -23 -1 -59 -31 -70 -60
-9 -22 -10 -23 -10 -4 -1 36 76 96 119 91 22 -2 25 -7 28 -44z"/>
<path d="M333 432 c-35 -19 -69 -59 -59 -70 4 -3 13 4 22 16 19 28 65 52 99
52 37 0 85 -50 85 -89 0 -16 -4 -41 -10 -55 -10 -29 -40 -36 -40 -10 0 12 -6
15 -20 10 -11 -3 -29 -9 -40 -12 -29 -9 -26 17 5 46 33 31 32 58 -1 66 -29 7
-72 -25 -60 -45 9 -15 18 -14 42 4 18 13 18 14 -5 8 -17 -4 -22 -3 -17 5 9 15
33 15 42 1 4 -7 -7 -22 -25 -36 -17 -13 -31 -33 -31 -44 0 -21 37 -35 68 -24
11 3 23 1 27 -5 23 -38 85 25 85 88 0 40 -23 88 -49 102 -29 15 -82 11 -118
-8z"/>
<path d="M1768 436 c-85 -31 -128 -82 -128 -154 0 -59 56 -121 116 -129 53 -7
143 19 184 53 41 35 32 41 -15 10 -83 -57 -168 -55 -227 4 -48 48 -33 134 30
179 57 40 162 48 162 11 0 -22 -31 -50 -55 -50 -17 0 -17 2 3 23 12 13 19 27
15 30 -10 11 -53 -34 -53 -56 0 -16 5 -18 32 -12 46 10 68 26 75 54 12 47 -58
66 -139 37z"/>
<path d="M837 355 c-20 -14 -37 -31 -37 -37 0 -6 12 -3 27 7 25 17 26 17 18
-1 -13 -33 -18 -64 -9 -64 5 0 33 18 63 41 29 22 56 38 59 35 3 -3 1 -22 -5
-40 -11 -35 -8 -46 11 -46 6 0 12 24 14 55 3 48 0 55 -15 55 -10 0 -35 -14
-56 -31 -42 -34 -58 -33 -33 3 17 24 21 48 8 48 -4 0 -24 -11 -45 -25z"/>
<path d="M662 273 c5 -25 28 -28 28 -4 0 12 -6 21 -16 21 -9 0 -14 -7 -12 -17z"/>
</g>
</svg>
