<?xml version="1.0" standalone="no"?>
<!DOCTYPE svg PUBLIC "-//W3C//DTD SVG 20010904//EN"
 "http://www.w3.org/TR/2001/REC-SVG-20010904/DTD/svg10.dtd">
<svg version="1.0" xmlns="http://www.w3.org/2000/svg"
 width="300.000000pt" height="30.000000pt" viewBox="0 0 300.000000 30.000000"
 preserveAspectRatio="xMidYMid meet">
<metadata>
Created by potrace 1.10, written by Peter Selinger 2001-2011
</metadata>
<g transform="translate(0.000000,30.000000) scale(0.100000,-0.100000)"
fill="#1c1364" stroke="none">
<path d="M1461 255 c-22 -20 -54 -58 -71 -86 -25 -38 -38 -49 -59 -49 -20 0
-23 2 -11 10 12 7 12 12 2 22 -19 19 -67 -2 -67 -31 0 -12 -8 -27 -18 -32 -9
-6 -17 -16 -17 -23 0 -11 -39 -36 -55 -36 -12 0 -3 29 20 62 31 45 31 48 3 40
l-23 -5 20 23 c20 22 20 22 0 19 -10 -2 -22 -15 -25 -27 -5 -23 -77 -75 -91
-66 -4 2 -5 14 -1 26 l5 22 -30 -22 c-17 -12 -37 -22 -43 -22 -19 0 7 28 43
47 25 12 31 13 38 1 7 -10 9 -9 9 5 0 26 -43 21 -79 -9 -17 -14 -31 -32 -31
-39 0 -23 19 -28 44 -12 20 13 23 13 32 -1 9 -14 15 -14 42 -3 17 7 38 21 48
32 28 31 36 22 15 -17 -20 -38 -18 -64 5 -64 19 0 64 22 64 32 0 4 8 8 19 8
21 0 45 23 34 33 -3 4 0 7 8 7 8 0 24 3 35 6 19 5 21 2 16 -23 l-5 -28 27 24
c28 26 36 42 11 21 -8 -7 -15 -9 -15 -4 1 15 27 44 40 44 9 0 9 -4 2 -12 -12
-16 2 -56 23 -65 9 -3 26 -1 39 5 13 6 29 6 38 1 9 -5 22 -3 34 5 16 12 20 12
30 -2 10 -14 16 -14 38 -4 17 7 26 8 26 1 0 -5 15 2 34 18 30 23 33 30 24 47
-11 20 -11 20 -19 -1 -4 -12 -27 -32 -50 -43 l-42 -22 7 26 c8 32 3 32 -34 4
-31 -23 -51 -19 -31 6 18 22 69 37 74 23 2 -7 8 -9 12 -5 4 4 4 11 0 17 -12
20 -54 11 -88 -19 -40 -35 -84 -54 -92 -39 -16 24 7 64 48 85 44 21 90 77 85
103 -6 31 -54 24 -97 -14z m79 5 c0 -26 -64 -86 -107 -101 -19 -6 -36 -9 -39
-7 -2 3 22 32 54 66 58 63 92 78 92 42z m-233 -130 c-1 -20 -37 -30 -37 -10 0
7 26 28 37 30 1 0 1 -9 0 -20z"/>
<path d="M2931 225 c-22 -20 -48 -54 -57 -75 -11 -24 -31 -46 -55 -60 -38 -21
-39 -21 -39 -1 0 11 5 23 10 26 6 3 10 13 10 21 0 22 -45 17 -77 -10 -32 -26
-67 -46 -82 -46 -5 0 -13 9 -16 20 -4 11 -11 18 -16 15 -5 -4 -9 -1 -9 4 0 27
-25 8 -26 -19 -1 -31 13 -41 22 -15 5 12 9 11 23 -6 15 -19 21 -20 40 -10 17
10 26 10 37 1 11 -10 19 -9 37 3 21 14 24 13 34 -1 9 -16 13 -16 48 1 35 17
38 17 50 1 14 -19 50 -14 91 13 42 27 26 33 -21 7 -24 -14 -49 -23 -55 -19
-19 12 -10 33 24 55 45 28 98 88 94 108 -5 28 -26 24 -67 -13z m50 -3 c-11
-20 -87 -92 -97 -92 -9 0 24 50 54 83 30 32 58 38 43 9z m-191 -89 c0 -10 -66
-53 -80 -53 -17 0 -1 20 34 41 33 20 46 24 46 12z"/>
<path d="M485 231 c-16 -10 -61 -51 -100 -90 -38 -39 -73 -71 -77 -71 -14 0
-9 26 16 73 13 26 19 47 15 47 -5 0 -33 -25 -62 -55 -48 -50 -77 -68 -77 -47
0 4 16 27 35 51 19 24 35 52 35 61 0 33 -48 39 -129 15 -100 -30 -186 -146
-111 -152 14 -1 18 0 8 3 -46 14 8 97 81 126 70 28 131 31 131 6 0 -6 -16 -32
-35 -58 -35 -47 -45 -80 -24 -80 16 0 51 20 77 44 23 21 24 21 22 1 -7 -67 21
-60 105 26 63 64 127 109 155 109 16 0 12 -31 -7 -52 -9 -10 -11 -18 -5 -18
17 0 45 48 38 65 -8 21 -55 19 -91 -4z"/>
<path d="M954 175 c-37 -74 -46 -83 -73 -66 -10 6 -11 13 -2 29 6 11 11 34 11
50 0 51 -76 67 -176 37 -62 -18 -97 -52 -92 -91 3 -25 8 -29 38 -31 l35 -2
-32 10 c-91 27 12 107 144 112 56 2 77 -19 61 -64 -9 -27 -13 -29 -44 -23 -27
5 -34 3 -34 -10 0 -8 12 -19 26 -22 l25 -6 -22 -24 c-27 -28 -86 -57 -100 -49
-6 4 -7 20 -4 37 5 21 4 28 -4 24 -17 -11 -13 -66 4 -72 26 -10 64 5 104 41
43 39 76 45 86 15 8 -27 35 -27 28 0 -3 11 -1 20 4 20 5 0 18 7 29 16 18 14
18 15 -3 4 -13 -6 -23 -7 -23 -3 0 19 69 128 79 126 6 -2 11 2 11 7 0 6 -9 10
-19 10 -15 0 -30 -20 -57 -75z"/>
<path d="M2211 231 c-10 -10 -29 -37 -41 -60 -25 -43 -38 -49 -58 -29 -27 27
-7 78 31 78 10 0 15 5 12 10 -10 16 -24 12 -50 -15 -32 -31 -31 -50 2 -81 42
-39 16 -49 -37 -14 -57 38 -80 39 -80 4 0 -61 49 -95 100 -69 26 14 32 13 95
-20 65 -34 128 -45 169 -29 14 5 32 52 42 104 2 8 8 16 14 18 5 2 8 8 5 12 -3
5 0 12 6 16 8 5 9 3 4 -5 -11 -19 54 17 81 45 51 50 11 76 -44 29 -17 -14 -44
-47 -61 -73 -17 -27 -43 -55 -58 -62 -16 -8 -32 -16 -37 -19 -5 -2 -6 8 -2 23
8 31 2 32 -31 6 -14 -11 -30 -20 -35 -20 -19 0 -1 24 32 41 25 14 37 16 47 7
10 -8 13 -7 13 6 0 28 -54 20 -90 -14 -27 -25 -30 -33 -20 -45 11 -14 15 -14
36 0 21 13 24 13 33 -2 9 -17 11 -17 45 0 l36 17 -6 -28 c-10 -39 -23 -52 -54
-52 -34 0 -102 24 -146 51 -29 17 -32 23 -22 39 7 10 22 21 34 24 31 8 84 72
84 101 0 30 -22 33 -49 6z m299 -10 c-13 -25 -69 -65 -78 -56 -7 7 65 75 80
75 5 0 4 -9 -2 -19z m-260 -1 c0 -14 -67 -86 -74 -80 -8 9 48 90 62 90 6 0 12
-5 12 -10z m-186 -111 c39 -23 44 -34 20 -43 -30 -11 -53 -6 -68 16 -35 49
-11 62 48 27z"/>
<path d="M2437 135 c-36 -25 -37 -26 -20 -51 16 -26 32 -27 77 -9 14 6 17 5
12 -3 -12 -20 1 -13 33 16 28 26 30 30 16 48 -13 17 -14 17 -15 1 0 -21 -56
-57 -88 -57 -38 0 -25 42 16 54 17 5 32 13 32 17 0 16 -25 9 -63 -16z"/>
<path d="M1813 126 c-61 -50 -97 -59 -87 -21 4 17 2 25 -7 25 -19 0 -23 -59
-4 -66 7 -3 23 0 35 6 16 9 25 9 36 0 11 -10 19 -9 37 3 21 14 24 13 33 -1 9
-14 15 -14 42 -3 29 12 73 51 58 51 -4 0 -19 -9 -33 -20 -35 -28 -63 -27 -55
2 l5 22 -30 -22 c-17 -12 -37 -22 -43 -22 -19 0 7 28 43 47 25 12 31 13 38 1
7 -10 9 -9 9 5 0 25 -43 22 -77 -7z"/>
</g>
</svg>
